<?xml version="1.0" encoding="UTF-8"?><svg id="Layer_1" xmlns="http://www.w3.org/2000/svg" width="1920" height="1080" viewBox="0 0 1920 1080"><rect width="1920" height="1080" fill="#282828"/><path d="m2154.07,939.43c9.58,41.77,24.09,122.81-40.8,122.8-27.7,0-55.47-10.49-80.8-20.69-36.36-14.64-71.4-32.5-106.14-50.57-83.47-43.41-165.49-89.81-251.49-128.15-74.92-33.39-157.97-66.09-241.45-63.45-105.16,3.33-191.64,83.88-259.08,156.72-91.1,98.4-166.28,211.89-265.56,302.66-52.42,47.92-130.58,110.73-206.13,84.85-31.16-10.68-56.98-33.68-78.96-57.49-27.38-29.66-50.52-63.07-72.49-96.84-47.51-73.01-91.01-148.45-139.83-220.66-46.52-68.81-95.86-135.77-148.82-199.77-92.76-112.09-197.43-217.41-319.94-296.96-99.63-64.69-213.38-111.66-333.25-116.41-28.32-1.12-56.65.2-84.76,3.72-3.15.39-3.19,5.4,0,5,121.94-15.28,242.66,16,350.09,73.32C2.51,505.74,111.83,605.57,207.9,712.97c115.52,129.16,211.64,272.74,302.08,420.11,39.71,64.72,80.42,135.79,139.68,184.9,22.72,18.83,49.32,33.83,79.25,36.19,39.69,3.14,77.74-14.66,110.46-35.35,54.33-34.34,100.22-80.46,142.8-128.17,45.93-51.46,88.46-105.83,132.65-158.76,42.46-50.85,86.4-101.24,137.1-144.13,41.57-35.17,90.63-68.13,144.82-79.24,81.46-16.7,168.79,14.02,243.17,44.7,89.01,36.71,173.3,83.74,258.31,128.65,36.56,19.32,73.27,38.54,111.11,55.26,27.6,12.2,56.5,24.19,86.55,28.66,18.47,2.75,39.97,2.63,54.58-10.78,16.91-15.52,18.17-41.84,16.91-63.15-1.07-18.13-4.43-36.09-8.48-53.76-.72-3.14-5.54-1.81-4.82,1.33h0Z" fill="#ccc"/><path d="m-456.6,385.57c119.91-18.34,239.87,9.11,347.04,63.65,124.94,63.59,232.28,158.37,326.98,260.63,113.74,122.81,208.19,259.82,299.76,399.45,40.4,61.6,82.51,127.76,140.79,174.2,23.83,18.99,50.96,33.76,81.61,37.43,38.5,4.6,76.45-8.11,110.3-25.48,54.35-27.9,101.07-68.73,144.13-111.56,47.06-46.8,90.45-97.12,134.89-146.36s87.73-95.84,137.53-137.43c43.29-36.15,93.5-70.87,148.82-85.23,77.34-20.08,162.11,7.37,233.86,35.46,86.89,34.02,169.08,78.81,251.83,121.62,35.84,18.55,71.81,37.03,108.85,53.11,27.18,11.8,55.59,23.36,85.09,27.68,18.09,2.65,39.04,2.59,53.64-10.1,16.62-14.45,18.67-39.25,17.86-59.78-.69-17.54-3.74-34.94-7.47-52.06-.69-3.14-5.51-1.81-4.82,1.33,9.17,42,20.43,117.55-42.78,117-27.41-.24-54.79-10.44-79.93-20.44-36.05-14.35-70.84-31.82-105.36-49.45-80.93-41.34-160.66-85.34-244.37-120.96-72.22-30.73-153.25-60.63-233.13-53.96-44.15,3.69-85.23,22.73-122.42,45.95-52.03,32.48-97.47,74.72-140.06,118.55-89.27,91.86-166.92,197.55-268.43,276.8-57.92,45.22-137.83,92.41-212.4,61.07-65.99-27.73-112.75-95.83-151.93-152.53-47.27-68.39-90.7-139.3-138.84-207.12-46.63-65.69-95.88-129.6-148.58-190.54-91.62-105.93-194.57-205.26-314.47-278.8-99.09-60.78-211.74-102.75-329.11-103.09-26.86-.08-53.64,2.09-80.19,6.15-3.17.48-1.82,5.3,1.33,4.82h0Z" fill="#ccc"/><path d="m-438.43,407.02c116.42-21.18,234.07.97,340.22,51.3,122.13,57.91,227.73,146.9,321.22,243.38,112.74,116.35,206.56,247.02,299.26,379.37,41.3,58.96,84.45,120.72,141.35,165.83,24.32,19.28,51.7,34.78,82.47,40.67,38.61,7.39,77.85-.48,113.88-14.92,53.25-21.35,100.04-55.99,143.05-93.41,47.68-41.48,91.47-87.19,135.62-132.33,45.07-46.08,90.45-92.19,140.28-133.2,45.66-37.58,96.58-72.65,153.17-91.43,73.28-24.31,156.15-.22,225.68,25.37,84.56,31.12,164.49,73.47,244.76,114.05,34.96,17.67,70.02,35.31,106.04,50.73,26.96,11.54,55.06,22.81,84.23,27.18,17.95,2.69,38.77,2.9,53.61-9.2,16.61-13.56,19.34-37.27,18.9-57.3-.37-16.68-3.06-33.28-6.42-49.59-.65-3.15-5.47-1.82-4.82,1.33,5.54,26.87,12.13,60.78.18,87.02-8.43,18.51-26.67,24.7-45.89,24.22-27.04-.69-53.92-10.57-78.79-20.36-35.5-13.98-69.82-30.9-103.91-47.96-77.99-39.01-155.03-80.31-235.96-113.07-69.8-28.26-148.81-55.23-225.23-44.87-45.65,6.19-88.64,29.41-126.73,54.2-51.28,33.38-97.06,74.64-140.77,117.23-88.11,85.86-168.74,184.88-272.95,252.18-63.27,40.87-143.77,71.58-216.36,36-62.68-30.72-109.1-92.05-149.54-146.87-47.93-64.95-91.93-132.67-140.27-197.35-46.32-61.98-95-122.25-146.93-179.62-90.89-100.41-192.67-194.33-310.61-262.18-97.34-56-207.13-92.55-320.38-89.61-26.75.7-53.37,3.62-79.69,8.41-3.16.58-1.82,5.39,1.33,4.82h0Z" fill="#ccc"/><path d="m-420.26,428.47c113.57-24.12,229.5-7.01,335.17,39.49,120.02,52.81,224.4,136.8,317.13,228.32,54.19,53.48,104.89,110.44,153.13,169.32,51.11,62.39,98.14,127.73,146.58,192.16,41.38,55.04,84.7,111.35,139.35,153.99,25.07,19.57,52.9,35.43,83.95,43.19,35.57,8.88,72.71,6.6,107.93-2.79,111.94-29.82,201.22-118.37,283.3-195.24,89.63-83.94,181.27-177.18,297.04-224.21,71.95-29.23,150.47-11.95,221.41,12.14,82.47,28.01,160.34,67.94,238.31,106.32,34.15,16.81,68.36,33.62,103.44,48.42,26.91,11.35,54.89,22.42,83.91,26.9,18.04,2.79,38.99,3.28,54.17-8.51,16.17-12.55,19.67-34.65,19.71-53.89.03-16.08-2.33-32.12-5.36-47.87-.61-3.16-5.43-1.82-4.82,1.33,4.95,25.73,10.72,58.49-1.79,83.13-9.08,17.89-27.79,23.09-46.62,22.37-26.84-1.02-53.41-10.65-78.19-20.28-34.87-13.55-68.64-29.86-102.24-46.26-76.16-37.17-151.62-76.41-231.03-106.37-66.95-25.26-143.56-48.61-215.62-33.83-47.73,9.79-93.11,37.15-132.96,64.09-49.93,33.75-95.53,73.52-139.86,114.21-87.11,79.96-171.09,172.27-277.64,226.79-65.98,33.76-143.64,48.61-212.33,13.49-59.93-30.64-106.19-85.93-147.39-137.69-48.15-60.51-92.06-124.26-139.72-185.16s-96.6-118.85-149.24-174.44c-90.22-95.29-190.86-184.19-306.86-246.88-96.95-52.39-205.64-84.38-316.56-77.71-26.11,1.57-52.03,5.25-77.62,10.68-3.15.67-1.81,5.49,1.33,4.82h0Z" fill="#ccc"/><path d="m-402.1,449.93c110.51-27,224.21-15.14,329.35,26.99,118.38,47.43,222.12,126.72,314.39,213.46,109.13,102.59,200.98,219.41,294.35,335.98,42.89,53.55,87.64,107.69,142.15,149.92,54.18,41.99,118.7,63.5,187.42,54.04,112.09-15.43,205.68-94.79,288.88-165.52,92.5-78.64,183.1-165.3,293.96-217.83,36.13-17.12,70.92-26.9,111.06-25.56,37.75,1.26,75.03,9.81,111.03,20.82,80.34,24.57,156.18,61.98,231.78,98.08,34.16,16.31,68.34,32.69,103.35,47.13,26.64,10.99,54.28,21.66,82.91,26.07,17.87,2.75,38.55,3.39,53.9-7.76,16.09-11.68,20.29-32.63,20.76-51.36.38-15.25-1.63-30.51-4.28-45.49-.56-3.16-5.38-1.82-4.82,1.33,4.39,24.77,9.41,56.93-4.23,79.95-10.15,17.13-29.75,20.92-48.29,19.79-26.67-1.63-52.92-11.06-77.65-20.57-34.5-13.28-67.99-29.1-101.36-44.95-73.91-35.09-147.44-71.91-224.93-98.63-64.24-22.15-138.8-41.6-206.15-21.68-49.79,14.73-96.63,44.08-139.03,73.31-49.67,34.24-95.94,73.15-141.68,112.4-85.91,73.73-173.43,158.76-281.4,198.98-67.39,25.11-140.96,26.16-205.43-8.32-59.6-31.88-107.13-85.03-150.2-136-48.31-57.17-92.77-117.46-140.52-175.09-46.86-56.56-95.8-111.48-147.72-163.46C124.73,565.02-86.2,409.8-326.22,432.01c-26.04,2.41-51.81,6.89-77.2,13.1-3.12.76-1.8,5.59,1.33,4.82h0Z" fill="#ccc"/><path d="m-383.93,471.38c107.79-29.97,219.87-23.35,324.79,14.6,116.42,42.1,219.28,116.18,311.05,197.93,108,96.22,199.49,206.79,293.33,316.31,84.09,98.14,184.66,210.25,325.29,206.91,110.09-2.62,206.58-70.61,290.77-134.91,95.08-72.61,185.44-153.85,292.07-209.64,36.92-19.31,73.65-35.51,115.74-36.93,36.41-1.22,72.75,5.46,107.78,14.88,78.31,21.05,152.28,55.99,225.69,89.79,33.31,15.33,66.6,30.81,100.62,44.53,26.31,10.61,53.49,20.89,81.6,25.47,18.05,2.94,39.04,4.06,55.02-6.48,16.31-10.76,21.35-30.78,22.27-49.22.72-14.4-.93-28.83-3.2-43.02-.51-3.17-5.33-1.82-4.82,1.33,3.78,23.62,7.77,54.3-6.12,75.68-10.75,16.54-30.67,19.65-48.98,18.4-26.79-1.82-53.16-11.15-78.08-20.58-33.98-12.85-67.05-28.05-100.06-43.2-71.8-32.96-143.56-67.4-219.22-90.76-62.22-19.21-134.19-34-197.01-9.15-108.14,42.79-199.82,119.49-290.01,190.93-85.02,67.35-175.94,143.66-283.8,169.79-69.05,16.73-140.18,6.23-201.68-29.36-57.06-33.02-104.21-82.27-147.9-130.93-47.41-52.79-91.48-108.46-138.22-161.83s-96.97-106.86-149.35-156.44C132.11,562.54-76.59,420.84-310.09,451.14c-25.41,3.3-50.49,8.55-75.17,15.42-3.1.86-1.78,5.69,1.33,4.82h0Z" fill="#ccc"/><path d="m-365.76,492.83c104-32.6,213.33-31.84,317.23.76,114.51,35.93,216.75,104.11,308.18,180.46,107.09,89.42,198.71,193.36,292.44,296.14,85,93.21,183.23,197.32,315.74,212.23,106.51,11.99,205.11-40.85,290.86-97.98,98.31-65.49,188.94-142.39,291.82-201.01,39.1-22.28,81.28-46.62,126.72-52.11,34.16-4.12,68.97.13,102.4,7.45,76.64,16.77,149.21,49.25,220.68,80.77,57.92,25.54,118.21,57.2,181.24,67.73,18.02,3.01,38.84,4.44,55.26-5.17,16.19-9.47,22.4-27.72,24.05-45.49,1.31-14.11,0-28.34-1.96-42.32-.45-3.17-5.27-1.82-4.82,1.33,3.23,22.94,6.29,53.28-9.14,72.9-11.74,14.92-31.75,16.94-49.4,15.53-27.22-2.18-53.94-11.54-79.35-21-32.96-12.27-65.14-26.56-97.31-40.75-70.01-30.87-140.34-62.99-214.51-82.66-32.58-8.64-66.25-14.91-100.05-14.87-35.61.04-66.64,9.45-98.71,24.41-106.61,49.75-198.96,124.32-294.02,192.46-83.79,60.06-176.98,125.01-282.41,136.02-140.27,14.66-249.86-80.08-340.02-174.93-47.35-49.81-91.9-102.19-138.73-152.48-47.19-50.67-96.19-99.73-147.9-145.8-162.06-144.34-367.59-271.61-593.68-234.66-25.73,4.2-51.04,10.42-75.91,18.22-3.06.96-1.75,5.79,1.33,4.82h0Z" fill="#ccc"/><path d="m-347.59,514.29c101.49-35.62,209.33-40.33,313.29-12.36,112.72,30.33,214.44,92.99,305.69,164.35,105.62,82.59,196.98,179.68,290.03,275.66,86.17,88.89,182.61,186,307.72,214.31,101.5,22.97,199.84-13.59,287.41-63.11,100.31-56.71,191.17-128.46,290.08-187.46,25.39-15.14,51.27-29.48,77.83-42.47,19.24-9.41,38.71-19.07,59.65-24.04,31.95-7.57,65.57-6.06,97.77-.94,73.93,11.75,144.41,41.11,213.08,69.79,58.67,24.5,118.88,54.98,182,66.07,18.44,3.24,39.59,5.1,56.82-3.83,15.91-8.25,23.3-24.74,25.68-41.8,1.89-13.53,1.1-27.28-.5-40.79-.37-3.16-5.38-3.19-5,0,2.6,21.96,4.61,50.21-10.51,68.54-12.19,14.77-32.62,16.49-50.43,15.03-26.74-2.2-52.99-11.03-78.09-20.02-32.24-11.55-63.78-24.98-95.34-38.23-68.56-28.8-137.82-58.77-210.76-74.69-31.68-6.92-64.49-11.2-96.93-8.47-38.4,3.23-71.84,19.58-105.75,36.99-102.75,52.78-194.63,123.4-291.7,185.43-85.04,54.34-181.13,108.51-285.22,106.43-133.39-2.67-240.6-96.41-330.08-185.52-93.91-93.53-181.82-192.22-283.68-277.54-87.46-73.26-183.53-139.58-290.93-179.92-94.58-35.53-196.5-47.32-296-27.61-26.33,5.21-52.16,12.52-77.47,21.41-3.02,1.06-1.72,5.89,1.33,4.82h0Z" fill="#ccc"/><path d="m-329.42,535.74c98.67-38.54,204.68-49,308.44-26.31,110.02,24.06,210.53,80.03,301.15,145.4,105.09,75.81,196.87,166.47,289.37,256.68,85.91,83.78,178.04,173.23,293.24,214.54,48.99,17.57,100.64,23.39,152.22,16.38,47.33-6.43,92.82-22.36,136.11-42.15,102.07-46.68,193.8-113.16,289.57-171.01,47.93-28.95,97.72-59.43,150.16-79.57,29.23-11.23,61.15-13.03,92.1-10.5,72.3,5.9,142.15,32.84,209.14,59.01,58.84,22.99,118.57,51.86,181.19,62.95,18.52,3.28,39.5,5.31,57.16-2.68,16.49-7.46,25.03-23.24,27.97-40.51,2.11-12.42,1.75-25.11.59-37.61-.3-3.18-5.3-3.21-5,0,1.99,21.38,2.75,48.76-13.6,65.3-13.37,13.53-34.14,14.33-51.92,12.61-27.31-2.63-54.07-11.47-79.84-20.47-32.01-11.19-63.45-23.97-94.97-36.44-66.57-26.33-134.59-53.53-205.77-64.22-29.99-4.51-60.84-5.92-90.76-.1-15.09,2.94-29.14,8.15-43.07,14.54-27.06,12.4-53.5,26.09-79.51,40.56-98.78,54.97-190.54,121.67-289.89,175.63-88.52,48.09-188.83,87.3-291.07,67.23-122.89-24.13-222.73-114.25-310.47-198-91.66-87.49-179.56-178.31-279.93-256.15-86.95-67.43-182.27-127.47-287.64-161.31-94.29-30.29-194.51-36.08-290.99-12.62-25.64,6.23-50.73,14.41-75.3,24-2.96,1.16-1.67,5.99,1.33,4.82h0Z" fill="#ccc"/><path d="m-310.66,556.94c96.93-41.93,202.37-57.85,306.87-39.93,107.23,18.39,206.49,67.91,296.45,127.62,103.79,68.89,195.37,152.76,286.53,237.13,87.21,80.72,177.99,166.85,287.73,216.04,45.6,20.44,94.26,32.27,144.37,31.66,47.17-.57,93.67-11.22,137.97-26.95,101.2-35.95,192.67-95.25,284.55-149.72,49.03-29.06,98.45-57.59,149.61-82.78,33.51-16.51,64.47-27.49,102.17-27.69,69.66-.37,138.43,23.43,203.21,46.69,59.04,21.2,118.36,48.37,180.48,59.29,36.73,6.46,78.57,3.06,87.87-39.96,2.5-11.57,2.57-23.53,1.83-35.28-.2-3.2-5.2-3.22-5,0,1.3,20.67.63,46.28-16.08,61.21-14.72,13.15-36.75,13.07-55.2,10.98-60.37-6.83-119-34.2-175.52-54.88-63.97-23.4-130.22-47.19-198.68-52.24-29.23-2.15-59.37-.46-87.22,9.28-20.41,7.13-39.82,17.81-59.02,27.63-26.03,13.32-51.65,27.43-77.04,41.94-94.98,54.3-186.65,115.84-286.85,160.43-92.01,40.95-192.53,63.1-290.78,30.89-58.49-19.17-111.67-52.75-160.82-89.2-48.46-35.94-93.6-76.22-138.05-116.93-89.39-81.88-177.02-165.29-275.9-235.92-87.84-62.74-184.23-117.24-289.45-144.25-94.36-24.22-193.01-23.09-286.45,4.81-23.9,7.14-47.24,15.89-70.12,25.79-2.95,1.27-.4,5.58,2.52,4.32h0Z" fill="#ccc"/><path d="m-292.49,578.39c93.23-44.48,195.23-66.47,298.48-55.67,105.54,11.04,205.03,53.62,295.37,107.71,101.95,61.03,192.87,137.25,281.69,215.68,86.97,76.79,174.02,158.39,275.49,215.97,43.94,24.93,91.2,43.92,141.53,50.55,45.9,6.05,92.51,2.13,137.49-8.28,101-23.38,193.57-75.29,283.12-125.75,49.66-27.98,99.02-56.53,149.4-83.21,36.89-19.53,74.05-42.11,116.17-47.35,65.99-8.22,133.82,11.78,196.03,31.65,59.8,19.1,119.1,44.56,181.13,55.59,35.34,6.28,79.77,6.25,92-35.01,3.3-11.14,3.87-22.97,3.55-34.51-.09-3.21-5.09-3.22-5,0,.57,20.68-1.95,45.32-20.32,58.29-16.12,11.39-38.26,10.57-56.91,8.25-60.21-7.48-118.39-32.86-175.61-51.73-62.25-20.54-128.25-41.27-194.56-39.07-30.58,1.01-57.86,8.78-85.22,22.15-51.54,25.18-101.64,53.16-151.54,81.41-92.73,52.49-185.85,108.76-287.79,141.72-45.72,14.78-93.41,24.34-141.62,23.75-52.11-.64-102.24-14.1-149.02-36.76-105.46-51.09-194.67-133.95-281.77-210.83-86.03-75.94-172.38-151.22-268.89-213.81-86.74-56.26-181.66-103.42-283.71-123.65-94.51-18.73-191.6-11.61-282.6,19.9-23.69,8.2-46.81,17.93-69.43,28.72-2.9,1.38-.37,5.7,2.52,4.32h0Z" fill="#ccc"/><path d="m-274.32,599.85c90.2-47.3,189.45-75.34,291.84-71.51,102.19,3.82,200.43,37.97,290.21,85.4,100.42,53.05,190.75,121.89,277.32,194.88,86.92,73.3,171.19,151.65,265.74,215.23,43.51,29.26,90.27,54.7,141.25,68.12,43.7,11.51,89.26,14.07,134.12,9.29,97.96-10.44,190.06-52.34,276.78-96.78,49.37-25.3,97.83-52.31,146.58-78.77,25.26-13.71,50.6-27.3,76.15-40.47,18.74-9.66,37.44-20.5,57.69-26.71,62.01-19.04,130.9-3.37,191.66,13.05,60.59,16.38,119.97,39.89,181.92,50.81,35,6.17,82.23,8.64,97.01-31.68,3.77-10.28,4.86-21.36,5.03-32.24.05-3.22-4.95-3.22-5,0-.3,20.37-4.77,42.88-23.52,54.23-17.8,10.78-41.16,9.27-60.93,6.63-60.67-8.11-119.12-31.66-177.75-48.29-59.32-16.83-123.65-32.86-185.6-22.89-38.57,6.2-72.55,27.13-106.62,45.08-49.08,25.86-97.5,52.94-146.37,79.18-89.95,48.3-183.35,96.65-284.22,117.16-47.04,9.57-95.69,12.26-143.2,4.5-51.83-8.46-99.94-29.49-144.6-56.65-98.7-60.02-184.71-140.67-272.41-215.22-83.55-71.03-169.29-139.2-264.59-194.03-85.03-48.92-177.58-87.52-275.4-100.43-94.13-12.43-189.09,1.08-277.14,36.13-23.39,9.31-46.18,20.01-68.47,31.7-2.85,1.5-.33,5.81,2.52,4.32h0Z" fill="#ccc"/><path d="m-256.15,621.3c88.41-50.82,186.19-85.03,288.81-87.91,99.53-2.79,197.07,23.6,286.87,65.19,99.02,45.87,188.47,108.41,273.03,176.86,85.17,68.95,165.94,143.58,253.26,209.84,40.56,30.78,83.41,59.53,130.58,79.21,42.49,17.73,87.92,27.46,133.94,28.87,94.8,2.89,187.16-27.88,272.84-65.71,100-44.15,194.69-99.27,291.77-149.29,29.88-15.4,59.36-23.67,93.13-24.36,33.22-.67,66.35,4.33,98.79,11.09,61.39,12.79,120.97,34.08,182.82,44.57,35.36,6,85.83,10.53,103.09-29.37,3.98-9.21,5.57-19.17,6.24-29.13.22-3.21-4.79-3.2-5,0-1.39,20.71-8.44,41.25-28.29,50.78-19.33,9.28-43.05,7.37-63.64,4.6-60.88-8.2-119.58-29.59-179.36-43.11-57.28-12.95-121.45-23.79-178.47-3.97-19.61,6.82-37.8,17.63-56.12,27.22-24.12,12.63-48.14,25.47-72.15,38.31-48.06,25.68-96.12,51.4-145.18,75.12-88.75,42.91-183.68,81.79-283.21,87.71-47.41,2.82-95.07-2.54-140.31-17.18-49.15-15.91-93.83-42.55-135.65-72.48-90.6-64.84-172.44-141.77-258.5-212.36-80.71-66.21-164.8-127.82-258.04-175.43-85.23-43.52-177.58-75.09-273.62-81.11-93.38-5.85-185.81,13.95-270.89,52.15-23.69,10.64-46.72,22.65-69.22,35.59-2.79,1.6-.27,5.93,2.52,4.32h0Z" fill="#ccc"/><path d="m-237.99,642.75c85.46-53.72,180.16-93.96,281.2-104.82,95.02-10.21,190.24,6.4,279.12,40.33,201.28,76.83,354.19,229.51,516.42,365.11,74.57,62.33,155.22,118.74,252.87,135.85,91.47,16.02,184.38-1.99,270.87-32.62,97.59-34.56,189.34-83.85,280.47-132.43,36.85-19.64,73.6-44.56,115.17-52.69,30.92-6.04,62.95-4.85,94.09-1.21,63.68,7.44,125.06,26.84,188.27,36.83,35.7,5.64,89.26,12.36,110.24-25.62,4.72-8.54,6.98-18.02,8.25-27.63.42-3.18-4.58-3.15-5,0-2.83,21.42-13.19,39.66-34.2,47.33-21.17,7.73-45.51,5.53-67.38,2.65-61.76-8.14-121.56-27.3-183.22-36.31-30.35-4.44-61.31-6.98-91.91-3.85-32.4,3.31-59.05,14.81-87.54,29.93-94.97,50.42-189.32,103.29-289.3,143.34-87.21,34.93-181.13,60.32-275.83,51.66-103.37-9.46-189.52-62.78-268.19-127.09-159.33-130.25-304.98-279.64-496.52-363.23-84.79-37-176.04-60.05-268.97-58.34-92.1,1.69-181.63,28-263.38,69.65-23.29,11.86-45.91,24.95-68.04,38.85-2.72,1.71-.21,6.04,2.52,4.32h0Z" fill="#ccc"/><path d="m-219.82,664.2c79.83-54.79,167.66-99.5,262.88-119.83,88.73-18.94,180.27-14.78,267.64,9.1,198.16,54.15,353.7,194.3,502.16,329.21,72.74,66.1,147.96,134.37,241.37,169.48,84.42,31.73,175.54,32.66,263.01,13.89,97.2-20.86,188.99-62.56,277.21-107.36,48.59-24.68,96.15-51.23,144.25-76.82,28.3-15.05,60-20.75,91.8-21.58,65.52-1.71,129.62,14.75,194.03,24.05,37.74,5.45,96.07,15.13,122.93-20.52,5.92-7.85,9.35-17.08,11.41-26.62.68-3.14-4.14-4.48-4.82-1.33-11.48,53.12-69.71,50.77-112.88,45.67-63.09-7.46-124.94-23.98-188.67-26.14-29.81-1.01-60.34,1.04-88.85,10.37-17.12,5.61-32.5,14.51-48.27,23.09-23.35,12.71-46.73,25.37-70.22,37.82-90.41,47.92-183.17,94.25-281.86,122.6-90.22,25.91-185.98,34.62-277.17,8.22-99.49-28.8-178.87-96.3-254.31-164.36-145.17-130.99-292.61-269.01-481.55-332.79-82.88-27.98-170.92-39.72-258.01-29.22-89.05,10.74-173.7,43.56-251,88.35-21.75,12.61-42.91,26.19-63.63,40.41-2.64,1.81-.14,6.14,2.52,4.32h0Z" fill="#ccc"/><path d="m-201.65,685.66c76.91-57.53,160.98-107.25,253.19-135.71,83.19-25.67,171.12-32.12,256.96-17.08,194.78,34.11,350.68,164.88,490.03,296.96,70.95,67.24,140.96,139.85,227.28,187.58,77.6,42.91,165.22,61.47,253.58,55.38,91.61-6.31,180.06-35.75,263.69-72.3,46.65-20.39,92.18-43.28,137.07-67.25,22.88-12.22,45.6-24.73,68.23-37.41,16.93-9.48,33.31-18.52,52.04-23.97,65.22-18.99,135.74-6.79,201.81.61,28.26,3.17,57.1,6.5,85.56,4.15,20.35-1.68,42.1-6.67,56.8-21.89,6.77-7.01,11.28-15.6,14.3-24.8,1.01-3.06-3.82-4.38-4.82-1.33-17.6,53.65-88.51,45.24-132.64,40.91-64.57-6.34-130.36-18.87-195.18-8.49-36.86,5.91-66.23,22.7-98.48,40.58-45.3,25.12-91.04,49.49-137.76,71.88-85.81,41.12-176.26,76.69-270.98,90.12-91.62,13-184.85,1.75-268.45-38.96-90.65-44.14-163.13-117.11-235.32-185.82-135.42-128.89-283.67-258.75-470.08-303.45-80.27-19.25-163.83-20.73-244.59-3.42-87.2,18.69-168.82,57.79-243.24,106.24-21,13.67-41.46,28.14-61.52,43.15-2.55,1.9-.06,6.25,2.52,4.32h0Z" fill="#ccc"/><path d="m-182.98,706.72c138.29-112.62,305.27-206.53,489.38-193.67,189.61,13.25,344.24,133.98,476.15,261.01,70.56,67.95,136.62,142.14,216.04,200.14,72.07,52.62,155.82,86.89,245.01,94.64,183.37,15.95,360.74-71.08,515.58-159.24,18.73-10.66,36.92-22.63,57.13-30.37,15.84-6.06,32.48-9.99,49.22-12.52,35.98-5.43,72.6-4.65,108.85-3.13,32.62,1.36,65.43,3.98,98.09,2.07,23.06-1.35,48.29-4.86,67.27-19.16,8.19-6.17,14.44-14.09,18.9-23.29,1.4-2.88-2.91-5.42-4.32-2.52-11.46,23.62-34.9,33.65-59.65,37.65-30.62,4.95-62.26,2.9-93.08,1.49-66.48-3.04-138.83-8.76-200.77,20.62-20.55,9.75-39.87,22.51-59.7,33.63-21.77,12.21-43.72,24.12-65.89,35.59-44.32,22.92-89.55,44.19-136.07,62.29-83.4,32.45-172.06,55.23-262.1,53.64-91.27-1.62-178.91-30.52-254.79-80.95-83.72-55.64-151.9-131.79-223.35-201.64-127.48-124.64-275.36-246.15-457.7-271.31-172.46-23.8-335.09,47.86-471.61,147.97-19.1,14.01-37.77,28.58-56.13,43.53-2.5,2.03,1.06,5.55,3.54,3.54h0Z" fill="#ccc"/><path d="m-164.81,728.17c130.87-115.93,289.47-227.43,470.6-234.14,84.15-3.12,167.08,17.65,241.26,57.03,84.26,44.73,158.52,107.28,226.7,173.44,70.94,68.84,135.23,144.71,210.36,209.19,67.5,57.93,145.79,103.02,233.03,122.89,172.02,39.18,346.5-22.59,497.47-102.27,21.54-11.37,42.83-23.22,63.89-35.45,18.94-11,37.3-23.58,57.24-32.74,35.33-16.23,74.55-22.16,113-25.12,35.74-2.75,71.63-2.58,107.36-5.32,26.48-2.03,54.96-5.13,78.53-18.38,9.54-5.36,17.62-12.51,24.02-21.39,1.88-2.62-2.45-5.11-4.32-2.52-16.4,22.79-45.04,30.48-71.47,34.41-34.69,5.16-70.06,4.83-105.02,6.46-35.77,1.66-71.87,4.57-106.56,13.93-40.52,10.94-74.25,34.47-110.34,55-154.2,87.73-334.22,164.34-515.38,133.92-91.18-15.31-174.45-58.03-245.47-116.49-76.07-62.62-140.32-138.1-210.16-207.26-122.09-120.92-268.77-236.71-447.65-244.24-170.63-7.18-325.66,83.35-453.93,187.32-19.27,15.62-38.13,31.74-56.7,48.19-2.41,2.14,1.13,5.66,3.54,3.54h0Z" fill="#ccc"/><path d="m-146.64,749.63c69.56-66.99,143.07-130.95,224.88-182.67,69.69-44.07,146.52-79.42,228.64-91.59,82.21-12.18,165.21,1.43,239.89,37.54,84.05,40.64,157.24,101.92,223.54,166.86,133.21,130.48,244.32,293.78,426.95,359.13,160.39,57.4,331.21,21.9,481.66-47.67,42.38-19.6,83.55-41.79,123.66-65.67,19.48-11.6,38.27-24.76,58.52-35,18.49-9.35,38.12-16.25,58.1-21.65,36.66-9.9,74.41-14.66,111.96-19.82,32.58-4.48,66.55-8.45,97.09-21.36,10.97-4.64,21.15-10.63,30.01-18.62,2.39-2.16-1.15-5.69-3.54-3.54-22.98,20.74-55.59,27.51-85.18,32.7-36.6,6.41-73.64,9.88-110.2,16.59s-74.77,16.9-108.27,35.33c-40.84,22.46-79.5,48.52-120.88,70.18-152.59,79.88-329.56,132.57-500.49,83.72-89.49-25.57-168.4-76.65-236.31-139.43-72.28-66.83-134.81-143.26-204.08-213.06-65.26-65.77-136.89-128.04-218.85-172.19-69.1-37.22-145.42-57.12-224.15-53-170.98,8.96-319.87,118.9-442.45,229.24-18.31,16.48-36.28,33.34-54.03,50.43-2.32,2.24,1.22,5.77,3.54,3.54h0Z" fill="#ccc"/><path d="m-128.47,771.08c67.61-70.76,138.01-139.73,216.26-198.79,66.88-50.48,140.98-94.96,222.77-116,78.56-20.21,159.77-14.51,234.33,17.64,85.17,36.73,158.49,98,223.87,162.71,134.63,133.23,241.7,301.59,418.88,383.54,72.23,33.41,151.11,50.12,230.68,48.83,81.69-1.33,162.19-20.75,237.99-50.53,40.33-15.85,79.5-34.59,117.5-55.4,20.27-11.1,40.21-22.79,59.85-34.97,19.1-11.86,37.5-24.96,57.26-35.72,71.38-38.85,151.97-48.75,228.1-74.05,13.3-4.42,26.36-9.54,38.73-16.14,2.84-1.51.32-5.83-2.52-4.32-29.82,15.89-63.54,23.78-96.07,32.05-39.65,10.08-79.48,19.82-117.83,34.24-40.58,15.26-75.26,38-111.91,60.67-39.28,24.29-79.8,46.64-121.67,66.14-77.75,36.21-160.91,62.84-246.61,70.71-81.4,7.47-163.69-3.05-239.99-32.66-88.27-34.25-164.19-91.86-230.45-158.64-70.21-70.77-132.11-149.23-201.76-220.53-63.6-65.1-134.18-126.87-215.89-168.22-68.14-34.48-142.83-49.62-218.83-39.08-79.89,11.08-154.17,47.11-220.82,91.26-77.43,51.31-146.81,114.17-212.48,179.57-17.88,17.81-35.49,35.89-52.92,54.14-2.22,2.33,1.31,5.87,3.54,3.54h0Z" fill="#ccc"/><path d="m-110.3,792.53c65.12-74.06,131.76-147.33,205.45-213.05,64.61-57.62,136.25-111.7,218.02-142.28,74.04-27.69,152.69-30.66,227.24-3.14,86.09,31.78,159.58,92.76,224.05,156.56,136.49,135.08,239.55,306.95,409.46,404.92,69.25,39.93,146.16,65.73,225.88,73.12,78,7.23,156.78-3.18,231.53-25.94,82.13-25,159.48-64.26,231.35-110.88,39.23-25.45,77.18-51.57,119.19-72.44,39.63-19.69,80.86-36.22,123.04-49.6,17.25-5.47,34.67-10.37,52.25-14.66,3.12-.76,1.8-5.58-1.33-4.82-81.66,19.91-161.5,52.25-233.28,96.03-39.28,23.95-76.26,51.2-116.28,74.05-39.06,22.3-79.56,42.14-121.48,58.48-75.95,29.6-156.89,47.65-238.65,47.07-83.17-.58-165.02-20.97-239.27-58.31-177.61-89.33-283.88-260.48-418.1-399.5-62.94-65.19-133.57-127.6-216.43-166.12-68.87-32.02-143.46-41.32-217.47-23.04-77.83,19.22-147.66,63.04-210.01,112.16C68.76,591.11,1.1,661.28-63.84,732.9c-16.82,18.56-33.46,37.28-50,56.09-2.12,2.41,1.41,5.96,3.54,3.54h0Z" fill="#ccc"/><path d="m-92.13,813.98c63.68-78.75,127.63-157.63,198.11-230.48,61.63-63.71,129.45-125.5,209.38-165.39,71.11-35.48,149.15-46.73,225.63-22,87.03,28.15,160.77,89.63,224.42,153.39,138.65,138.91,239.97,315.21,406.24,425.31,68.36,45.27,145.17,78.02,226.19,91.79,76.46,12.99,154.89,8.98,230.16-9.19,81.55-19.69,158.73-55.21,229.69-99.59,39.33-24.59,76.13-52.56,113.1-80.49s77.96-58.9,123.09-76.53c20.07-7.84,41.03-12.63,62.62-12.87,3.22-.04,3.22-5.04,0-5-42.32.47-81.52,18.28-116.99,40.08-41.92,25.77-79.93,57.28-119.51,86.37-71.63,52.66-149.93,97.24-234.28,126-76.79,26.19-158.28,38.67-239.36,32.26-84.17-6.66-165.46-33.9-238.36-76.15-174.01-100.84-278.57-275.54-413.13-418.72-62.53-66.54-133.57-130.99-218.01-168.23-69.85-30.81-144.66-35.69-217.05-10.64-78.37,27.11-146.08,79.83-206.15,135.69-73.27,68.14-138.21,144.86-201.57,222.11-16,19.51-31.89,39.11-47.76,58.73-2.01,2.48,1.51,6.04,3.54,3.54h0Z" fill="#ccc"/><path d="m-92.89,770.52c62.26-78.58,125.47-156.78,195.34-228.78,60.59-62.44,127.29-122.55,205.45-162.13,69.13-35,145.79-48.47,221.15-26.47,85.8,25.04,158.93,83.96,221.71,145.55,139.01,136.36,237.83,310.79,396.11,427.75,67.4,49.8,143.65,88.12,225.56,107,74.39,17.15,151.69,17.73,226.7,4.11,90.95-16.51,177.81-52.07,257.01-99.31,42.63-25.43,82.22-54.94,121.88-84.67,36.74-27.55,74.3-55.63,116.52-74.31,20.86-9.23,42.82-15.62,65.64-17.24,3.19-.23,3.22-5.23,0-5-41.48,2.94-79.54,21.15-114.37,42.85-41.57,25.91-79.56,57.04-119.13,85.79-80.28,58.31-169.56,105.3-265.3,132.29-79.22,22.33-162.26,30.58-243.98,18.84-83.56-12.01-162.8-44.59-233.32-90.57-168.69-109.98-270.65-286.92-408.07-429.18-60.39-62.52-129.04-122.32-210.11-156.11-69.59-29-143.75-31.07-214.7-5.53-76.52,27.55-142.9,78.83-202,133.55-72.05,66.71-135.91,141.91-197.65,218.08-16.11,19.88-32.07,39.89-47.96,59.95-1.98,2.5,1.54,6.06,3.54,3.54h0Z" fill="#ccc"/><path d="m-93.64,727.06c61.5-79.17,124.56-157.57,194.67-229.38,60.8-62.27,128.02-121.97,206.71-160.62,69.48-34.13,146.35-46.39,221.35-23.61,85.01,25.81,157.22,84.76,219.34,146.32,139.66,138.41,238.4,314.43,396.94,434.2,67.55,51.03,143.95,90.9,226.51,110.89,73.88,17.89,150.72,19.17,225.58,6.71,89.87-14.96,176.67-47.81,255.86-92.53,44.06-24.88,84.91-54.16,125.41-84.37,37.96-28.32,76.28-57.43,119.18-77.97,20.9-10.01,42.93-17.57,65.96-20.61,3.14-.41,3.19-5.42,0-5-42.54,5.61-81.08,25.72-116.69,48.75-41.56,26.88-79.93,58.28-120.36,86.77-81.2,57.24-171.89,101.44-268.12,126.66-78.93,20.69-161.43,27.97-242.32,15.35-83.36-13-162-46.48-232.03-93.09-169.47-112.78-271.47-291.19-409.45-435.92-60.46-63.41-129.25-124.29-210.83-158.75-68.29-28.85-141.44-31.79-211.63-7.82-76.92,26.27-143.87,76.72-203.29,131-72.81,66.51-137.06,142.05-198.6,218.91-16.06,20.06-31.93,40.27-47.69,60.56-1.95,2.51,1.56,6.07,3.54,3.54h0Z" fill="#ccc"/><path d="m-94,683.1c61.95-81.3,126.15-161.44,198.14-234.17,60.36-60.98,127.44-119,205.68-155.75,70.37-33.05,147.75-43.15,222.45-18.7,84.18,27.55,155.4,87.15,216.78,149.17,140.37,141.84,239.68,320.36,400.58,442.22,67.97,51.48,144.75,91.95,227.96,112.02,72.62,17.51,148.05,18.8,221.68,7.12,91.02-14.43,179.66-45.98,260.33-90.33,44.82-24.64,86.28-54.03,127.32-84.41,37.98-28.11,76.14-57.04,118.58-78.18,19.95-9.94,40.78-17.75,62.69-22.01,3.16-.61,1.82-5.43-1.33-4.82-43.85,8.51-83.34,31.23-120.01,55.88-40.46,27.2-78.44,57.86-118.65,85.41-83.67,57.35-177.33,99.38-276.06,122.83-77.57,18.43-158.14,24.35-237.04,11.08-84.01-14.13-162.75-49.27-232.83-97.21-83.67-57.23-153.44-130.79-217.31-208.91-64.74-79.2-124.84-162.38-195.37-236.68-59.81-63-127.92-123.49-208.76-157.76-68.52-29.04-141.98-31.68-212.42-7.73-76.9,26.15-143.97,76.33-203.42,130.52C71.97,469.24,7.73,545.1-53.38,622.54c-15.16,19.21-30.11,38.58-44.94,58.04-1.95,2.56,2.39,5.05,4.32,2.52h0Z" fill="#ccc"/><path d="m-94.75,639.64c61.37-82.04,125.53-162.6,197.86-235.34,61.01-61.36,129.23-119.5,208.81-155.23,70.2-31.52,147.06-39.85,220.62-14.83,85.97,29.24,158.12,91.6,220.14,156,70.19,72.88,129.68,154.9,192.47,234.01,61.93,78.03,128.23,152.09,207.74,212.71,67.26,51.29,143.09,92.08,225.47,112.72,71.5,17.92,145.84,19.85,218.64,9.34,90.55-13.08,179.55-42.19,260.67-84.38,45.24-23.53,87.21-51.92,128.26-82.04s79.31-59.67,122.95-83.1c20.04-10.75,40.95-19.67,62.99-25.35,3.11-.8,1.79-5.63-1.33-4.82-44.07,11.36-83.57,35.39-120.74,60.96-41.78,28.73-81.37,60.55-123.76,88.42-84.24,55.39-178.47,94.06-276.86,115.68-76.38,16.79-155.41,21.87-232.72,8.3-83.57-14.67-161.66-50.33-231.23-98.37-84.03-58.03-154.52-132.04-218.52-211.08-64.48-79.64-124.08-163.4-193.73-238.74-60.33-65.26-129.23-128.32-211.56-164.34-67.74-29.64-140.68-33.69-211.14-11.17-77.52,24.77-145.35,74.41-205.19,128.34C71.17,423.94,6.47,500.43-54.59,578.78c-15.03,19.29-29.83,38.76-44.48,58.34-1.93,2.58,2.41,5.07,4.32,2.52h0Z" fill="#ccc"/><path d="m-95.51,596.18c60.83-82.78,124.93-163.8,197.6-236.6,60.92-61.03,129.37-118.77,209.07-153.55,70.97-30.98,148.38-38.33,222.06-12.17,86.01,30.54,157.8,94.09,219.55,159.41,70.88,74.97,130.77,159.15,194.41,240.12,62.05,78.95,129.01,153.39,208.98,214.71,66.64,51.09,141.54,92.22,223.15,113.43,71.19,18.5,145.3,20.91,218.02,11.1,89.52-12.07,178.14-38.8,259.18-78.68,46.54-22.9,89.74-50.98,131.65-81.41,40.62-29.49,80.47-60.51,124.1-85.52,20.18-11.57,41.15-21.61,63.31-28.77,3.05-.98,1.75-5.81-1.33-4.82-94.45,30.5-167.9,105.36-250.5,157.27-85.35,53.63-180.67,89.06-279.29,108.93-75.02,15.11-152.43,19.07-227.95,5.06-82.63-15.34-159.58-51.4-228.27-99.27-84.29-58.74-155.44-133.08-219.52-212.88-64.96-80.89-124.58-166.19-194.29-243.19-60.41-66.74-129.42-131.63-212.36-169.16-67.41-30.5-140.48-35.77-211.33-14.15-77.56,23.66-145.64,72.42-205.54,125.84C71.35,377.69,6.95,453.75-53.39,531.91c-15.74,20.38-31.18,40.99-46.43,61.75-1.91,2.6,2.43,5.09,4.32,2.52h0Z" fill="#ccc"/><path d="m-96.26,552.72c60.69-84.04,125.15-166.07,198.71-239.32,61.74-61.49,131.67-119.53,213.07-152.85,71.35-29.2,148.47-34,221.11-6.38,85.82,32.63,156.97,97.72,218.32,164.19,71.12,77.06,131.16,163.21,195.52,245.78,62.07,79.63,129.69,154.13,210,215.86,66.16,50.85,140.33,92.16,221.31,113.71,69.78,18.56,142.51,21.48,214.01,12.68,89.81-11.06,179.33-35.93,261.32-74.26,46.9-21.93,90.57-49.14,132.61-79.26,41.41-29.67,81.65-61.21,125.15-87.85,20.57-12.6,41.88-23.94,64.38-32.7,2.97-1.15,1.68-5.99-1.33-4.82-94,36.59-167.64,110.97-252.97,162.71-86.87,52.67-183.98,85.64-283.58,104.11-73.23,13.58-148.58,16.79-222.01,2.83-81.74-15.54-157.74-51.56-225.71-98.97-84.41-58.88-156.33-133.05-220.4-213.17-66.31-82.92-126.45-170.78-196.88-250.37-60.06-67.87-128.51-134.14-211.2-173.61-67.22-32.09-140.78-39.21-212.53-18.68-78.2,22.37-147.03,70.65-207.35,123.91C71.02,331.85,6.53,408.13-53.51,486.72c-15.99,20.93-31.65,42.12-47.07,63.48-1.89,2.61,2.45,5.11,4.32,2.52h0Z" fill="#ccc"/><path d="m-97.01,509.26c60.83-85.65,125.93-169.07,200.77-243.02,61.61-60.88,131.65-117.99,213.03-150.01,72.54-28.54,150.61-31.44,223.34-1.92,85.62,34.76,156.11,101.42,217.05,169.11,71.31,79.2,131.48,167.35,196.59,251.52,62.24,80.45,130.66,155.16,211.5,217.37,65.99,50.78,139.84,92.32,220.62,114.04,67.92,18.26,138.67,21.51,208.39,13.76,90.08-10.02,180.48-33.16,263.38-69.89,48.13-21.33,92.97-48.26,135.89-78.65s82.88-61.93,126.35-89.96c20.44-13.18,41.51-25.33,63.63-35.45,2.92-1.34.38-5.65-2.52-4.32-94.26,43.1-169.22,118.49-258.59,169.95-88.14,50.75-186.66,80.86-286.62,97.52-71.94,11.99-145.69,14.11-217.44-.44-80.98-16.42-156.03-53.14-223.2-100.66-85.19-60.27-157.99-135.52-222.5-217.15-66.05-83.58-125.77-172.15-195.64-252.71-59.72-68.86-127.62-136.33-210.11-177.37-66.89-33.28-140.7-41.86-213.02-22.34-78.66,21.23-148.06,69.02-208.68,122.1C70.76,285.94,6.37,362.21-53.22,440.97c-16.39,21.66-32.39,43.62-48.11,65.76-1.87,2.63,2.47,5.13,4.32,2.52h0Z" fill="#ccc"/><path d="m-97.77,465.8c60.37-86.4,125.41-170.37,200.56-244.52,62.25-61.43,133.43-118.85,216.15-149.9,73.33-27.52,152.03-28.5,224.37,2.74,85.88,37.09,155.98,105.7,216.78,175.06,71.49,81.55,131.82,171.86,197.84,257.72,62.54,81.33,132.03,156.25,213.64,218.86,65.43,50.2,138.49,91.5,218.44,113.22,67.03,18.21,136.83,21.59,205.73,14.44,89.33-9.27,179.54-30.48,262.39-65.28,49.13-20.63,95-47.03,138.64-77.51,42.96-30,84.07-62.56,127.4-92.02,20.36-13.84,41.23-26.91,63.03-38.39,2.85-1.5.32-5.82-2.52-4.32-93.08,49.02-169.19,124.28-261.21,175.12s-188.55,76.89-288.72,92.34c-70.6,10.88-142.79,12.56-213.02-1.94-80.03-16.52-154.09-53.07-220.55-100.01-85.57-60.44-159.36-135.73-224-217.83-67.16-85.3-127.17-176.11-197.33-259.08-59.79-70.71-127.64-140.42-210.69-183.59-66.93-34.79-141.45-44.85-214.74-26.03-78.74,20.22-148.4,67.34-209.08,120.05C70.03,240.38,5.2,317.47-54.42,397.21c-16.26,21.75-32.11,43.81-47.66,66.07-1.85,2.64,2.49,5.15,4.32,2.52h0Z" fill="#ccc"/><path d="m-98.52,422.34C-38.58,335.19,26.4,250.62,101.86,176.23c62.22-61.34,133.58-118.46,216.46-148.86C392.3.22,471.65.23,544.02,32.59c86.39,38.62,156.31,109.15,217.01,179.98,71.22,83.1,131.38,174.7,197.54,261.71,62.91,82.74,133.31,158.53,215.75,222.22,64.33,49.7,135.91,91.13,214.41,113.62,66.05,18.92,135,23.21,203.25,17.11,90.15-8.06,181.76-27.75,265.97-61.02,49.24-19.45,95.49-44.69,139.17-74.55,44.47-30.4,86.64-63.98,130.41-95.35,20.61-14.77,41.59-28.99,63.36-42.01,2.76-1.65.25-5.97-2.52-4.32-92.79,55.46-171.47,132-267.65,182.17-89.67,46.77-189.73,71.7-289.46,85.55-69.37,9.64-140.05,10.56-208.77-4.28-80.5-17.38-154.67-55.19-221.23-103.03-85.31-61.32-159.22-136.83-223.66-219.51-66.89-85.83-126.38-177.24-195.68-261.21-60.06-72.77-128.16-145.02-212.28-190.05C503.63,4.28,429.55-6.95,356.47,10.56c-79.4,19.02-149.82,65.8-210.92,118.49C69.33,194.75,4.04,272.69-55.61,353.45c-16.14,21.84-31.84,44-47.23,66.37-1.83,2.66,2.5,5.16,4.32,2.52h0Z" fill="#ccc"/><path d="m-99.27,378.88C-39.61,290.8,25.46,205.47,101.4,130.69,163.69,69.35,235.44,12.44,318.67-17.2c74.39-26.49,154.12-25.36,226.18,7.99,86.9,40.22,156.61,112.7,217.19,185.06,70.94,84.73,130.93,177.7,197.29,265.92,63.38,84.26,134.8,161.03,218.25,225.84,63.9,49.62,134.82,91.4,212.78,114.41,65.18,19.24,133.26,24.01,200.82,18.64,90.2-7.17,182.29-25.27,267.13-56.79,50.24-18.66,97.6-43.34,142.05-73.24,45.26-30.44,87.91-64.52,131.47-97.28,20.57-15.47,41.37-30.64,62.75-44.98,2.66-1.78.16-6.12-2.52-4.32-90.43,60.62-170.66,136.92-268.53,186.1-91.84,46.15-194.58,69.19-296.08,81.79-67.96,8.43-136.98,8.6-204.05-6.5-79.2-17.83-152.06-55.62-217.59-102.88-87.77-63.3-163.86-141.16-229.63-226.8-66.66-86.8-125.89-179.11-194.79-264.22-59.66-73.69-127.17-147.18-211.14-193.47-65.83-36.29-140.27-48.46-213.79-31.58C276.75-15.19,205.94,31.34,144.65,84,67.94,149.92,2.51,228.48-56.99,309.96c-15.95,21.84-31.44,44-46.6,66.39-1.81,2.67,2.52,5.18,4.32,2.52h0Z" fill="#ccc"/><path d="m-100.02,335.42C-40.4,246.07,25.02,159.56,101.87,84.2,164.19,23.08,236.14-33.41,319.59-62.15c74.76-25.74,154.52-23.3,226.22,10.9,87.43,41.7,156.94,116.41,217.31,190.31,71.04,86.95,131.18,181.93,198.21,271.87,63.49,85.18,135.62,162.31,219.52,227.81,64.21,50.12,135.41,92.62,213.87,115.99,63.54,18.92,129.9,23.93,195.86,19.32,90.19-6.31,182.62-22.89,268.02-52.62,50.6-17.61,98.52-41.31,143.3-70.72,45.72-30.03,88.53-64.24,131.44-98.08,21.48-16.94,42.99-33.82,64.93-50.16,2.55-1.9.06-6.24-2.52-4.32-87.96,65.5-169.91,141.87-269.43,189.98-92.67,44.8-196.19,65.66-297.88,77.38-67.14,7.74-135.22,7.68-201.37-7.44-78.93-18.05-151.42-56.09-216.69-103.32-88.68-64.17-165.99-142.8-232.2-229.72-66.99-87.94-126.09-181.62-194.6-268.43-59.57-75.47-126.78-151.18-211.15-199.51-65.78-37.68-140.83-51.24-215.19-35.02-79.84,17.41-150.93,63.43-212.31,115.85C67.84,103.73,2.34,182.6-56.91,264.5c-16.26,22.48-32.03,45.32-47.43,68.4-1.79,2.68,2.54,5.19,4.32,2.52h0Z" fill="#ccc"/><path d="m-100.78,291.96C-41.15,201.33,24.64,113.67,102.36,37.66c62.33-60.96,134.56-117.07,218.21-144.94,75.68-25.22,156.04-21.2,227.72,14.44,87.34,43.42,156.11,119.87,215.98,195,70.65,88.66,130.6,185.05,197.82,276.23,64.31,87.24,137.98,165.77,223.5,232.62,63.43,49.58,133.57,91.94,210.93,115.64,63.55,19.47,129.96,24.79,196.09,20.55,36.13-2.32,72.06-7.19,107.83-12.69,53.53-8.22,106.8-18.94,158.37-35.7,52.43-17.03,102.18-40.62,148.44-70.63,45.97-29.82,88.82-64.19,131.07-99,21.41-17.64,42.69-35.46,64.13-53.06,2.49-2.04-1.07-5.56-3.54-3.54-88.02,72.25-174.3,151.22-279.53,197.81-92.72,41.06-195.66,59.16-296.05,69.24-66.06,6.63-132.85,5.59-197.62-10.17-79.12-19.25-151.44-58.72-216.6-106.83-87.75-64.79-164.65-143.07-230.22-230.05-67.65-89.73-126.92-185.44-195.67-274.36-59.14-76.48-125.67-153.61-209.94-203.22-65.4-38.51-140.6-53.09-215.23-37.64-80.56,16.68-152.37,62.77-214.17,115.47C67.02,58.42,1.86,137.16-56.83,219.03c-16.58,23.13-32.62,46.64-48.26,70.41-1.77,2.7,2.55,5.2,4.32,2.52h0Z" fill="#ccc"/><path d="m-101.53,248.5C-42.45,157.42,23.06,69.41,100.71-6.8c62.77-61.6,135.81-118.21,220.46-145.64,75.67-24.52,155.75-19.6,226.94,16.39,89.36,45.18,158.7,125.41,219,203.3,70.82,91.49,131.06,190.45,199.46,283.67,64.1,87.37,138.33,165.48,223.75,232.37,63.35,49.6,133.35,92.22,210.62,116.09,62.79,19.4,128.38,24.79,193.78,20.97,36.25-2.12,72.31-6.74,108.24-11.83,53.15-7.53,106.16-17.21,157.57-32.91,52.23-15.95,102.02-38.3,148.22-67.46,46.84-29.57,90.23-64.4,132.23-100.42,21.99-18.86,43.6-38.16,65.15-57.52,2.4-2.16-1.15-5.68-3.54-3.54-86.63,77.85-176.06,158.28-285.02,203.3-91.97,38-193.13,53.74-291.72,62.99-65.68,6.17-132,5.04-196.32-10.83-77.72-19.17-148.8-58.03-212.98-105.17-89.87-66-168.99-145.92-235.7-235.11-68.47-91.55-127.96-189.44-196.86-280.69-59.19-78.39-125.69-158.05-210.96-209.16-64.97-38.94-140.11-54.16-214.72-39.35-80.93,16.07-153.17,62.05-215.17,114.85C65.78,13.41.44,92.88-58.18,175.54c-16.4,23.13-32.24,46.65-47.67,70.44-1.76,2.71,2.57,5.22,4.32,2.52h0Z" fill="#ccc"/><path d="m-102.28,205.04C-43.17,112.67,22.73,23.46,101.28-53.44c63.15-61.81,136.94-118.45,222.39-144.9,76.76-23.76,157.47-16.81,228.54,21,89.73,47.74,158.49,130.62,218.5,210.6,69.76,92.97,129.53,192.86,197.87,286.84,64.55,88.77,140.02,167.71,226.48,235.47,63.64,49.88,133.87,92.95,211.55,116.94,61.67,19.05,126.05,24.4,190.3,21,36.27-1.92,72.37-6.27,108.37-10.95,53.69-6.98,107.29-15.84,159.37-30.92,53-15.34,103.61-37.31,150.41-66.59,46.86-29.32,90.09-64.21,131.24-101.02,21.67-19.39,42.75-39.4,63.53-59.74,2.3-2.25-1.23-5.79-3.54-3.54-83.58,81.78-174.17,162.19-284.16,206.01-93.17,37.12-195.49,51.03-294.88,59.61-64.5,5.57-129.52,4.33-192.64-11.27-77.98-19.28-149.17-58.56-213.5-105.95-89.61-66.02-169.26-145.55-235.77-234.68-69.9-93.67-129.8-194.3-198.99-288.48-58.71-79.92-124.39-161.59-209.47-214.82-64.88-40.59-140.53-57.71-216.19-43.8-81.64,15.02-154.67,60.88-217.13,113.82C65.27-32.47-.57,48.02-59.3,131.78c-16.29,23.23-32,46.84-47.3,70.74-1.74,2.72,2.59,5.23,4.32,2.52h0Z" fill="#ccc"/><path d="m-103.04,161.58C-43.77,67.74,22.66-22.86,102.31-100.55c63.01-61.45,136.8-117.55,222.13-143.26,77.35-23.31,158.26-15.18,229.23,23.57C645.24-170.25,714.22-83.39,774.5-.47c68.99,94.89,128.49,196.23,197.19,291.3,64.72,89.56,141.11,168.75,228.07,237.01,63.9,50.16,134.39,93.68,212.45,117.79,60.59,18.71,123.78,24.03,186.91,21.02,36.49-1.74,72.85-5.84,109.11-10.14,54-6.4,107.98-14.47,160.51-28.84s106.06-36.7,153.81-66.46c46.76-29.14,89.71-64.19,129.9-101.78,21.03-19.67,41.29-40.12,61.05-61.07,2.21-2.34-1.32-5.88-3.54-3.54-79.64,84.45-169.98,164.33-279.39,207.19-94.77,37.13-198.75,49.38-299.59,57.55-64.1,5.19-128.65,4.04-191.35-11.51-77.67-19.26-148.51-58.54-212.59-105.71-90.61-66.7-171.74-146.96-238.76-237.28-70.25-94.68-129.93-196.64-198.34-292.61-58.57-82.16-123.73-166.46-209.19-222.31-65.3-42.68-142.33-61.52-219.61-47.9-80.93,14.27-153.49,59.1-215.6,111.2C65.57-79.43-1.29,2.77-60.61,88.29c-16.11,23.23-31.65,46.86-46.75,70.77-1.72,2.73,2.6,5.24,4.32,2.52h0Z" fill="#ccc"/><path d="m-103.79,118.12C-44.46,22.97,22.37-68.85,102.94-147.25c63.42-61.72,137.98-117.89,224.14-142.7,78.47-22.59,159.96-12.43,230.81,28.08,92.1,52.65,160.38,142.43,220.41,227.65,68.62,97.42,128.17,200.92,197.83,297.63,65.23,90.57,143.22,170.23,231.2,238.94,63.37,49.49,133.19,92.53,210.45,116.39,60.26,18.61,123.05,23.77,185.84,20.95,36.63-1.64,73.15-5.52,109.59-9.44,55.02-5.93,110.05-13.43,163.64-27.59,108.28-28.61,200.47-88.77,280.16-166.37,20.96-20.42,40.94-41.81,60.19-63.84,2.11-2.41-1.41-5.96-3.54-3.54-75.92,86.88-165.64,166.37-274.56,208.43-96.38,37.22-202.07,47.71-304.39,55.44-63.29,4.78-126.98,3.77-188.9-11.47-76.66-18.86-146.64-57.43-210.05-103.71-92.04-67.18-175.22-148.35-243.03-239.91-70.85-95.67-130.35-199.06-197.93-296.98-98.49-142.7-234.52-315.16-429.77-284.27-82.17,13-156.06,57.98-218.98,110.57C65.66-125.79-1.34-43.2-60.53,42.82c-16.43,23.88-32.24,48.18-47.58,72.78-1.71,2.74,2.62,5.25,4.32,2.52h0Z" fill="#ccc"/><path d="m-104.54,74.66C-45.35-21.47,21.64-114.24,102.76-193.18c63.63-61.93,138.61-118.2,225.26-142.52,79.59-22.34,161.82-10.72,232.85,31.32,92.12,54.52,159.27,146.24,218.71,232.99,68.43,99.86,128.02,205.56,198.46,304.05,66.39,92.83,146.67,174.15,236.79,244.16,62.86,48.83,131.99,91.41,208.47,115.04,59.57,18.4,121.6,23.47,183.66,20.94,37.16-1.52,74.24-5.17,111.24-8.76,56.04-5.43,112.16-12.31,166.79-26.31,107.27-27.5,199.16-86.21,276.52-164.58,20.91-21.18,40.58-43.52,59.35-66.61,2.01-2.48-1.5-6.03-3.54-3.54-72.42,89.12-161.14,168.31-269.69,209.73-98.29,37.51-206.21,46.16-310.36,53.37-62.14,4.3-124.61,3.32-185.41-11.53-77.34-18.88-147.81-58.04-211.66-104.8-91.73-67.19-175.42-148.02-243.14-239.4-72.85-98.29-132.98-205.2-201.2-306.63-97.36-144.77-231.49-321.88-428.86-292.9-83.13,12.2-157.99,57.47-221.5,110.55C65.12-171.41-1.74-88.64-60.64-2.39c-16.69,24.44-32.71,49.33-48.22,74.53-1.69,2.75,2.63,5.26,4.32,2.52h0Z" fill="#ccc"/><path d="m-105.29,31.2C-46.02-66.24,21.41-160.26,103.44-239.95c64.07-62.24,139.85-118.64,227.34-142.1,81.23-21.78,164.57-7.83,235.72,36.56,92.02,57.41,158.03,151.46,216.95,240.28C852.18-1.62,912.38,107.6,984.91,208.68c66.29,92.38,147.47,173.03,237.36,242.54,63.26,48.92,132.85,91.58,209.88,114.77,58.56,17.63,119.39,22.2,180.26,19.83,37.68-1.47,75.3-4.88,112.85-8.13,57.09-4.95,114.29-11.34,169.97-25.33,107.48-27.02,199.71-86.16,274.97-166.8,19.43-20.81,37.55-42.77,54.75-65.45,1.94-2.56-2.4-5.06-4.32-2.52-69.83,92.11-158.6,171.73-268.36,212.06-99.22,36.45-207.71,43.18-312.37,49.76-61.78,3.88-123.82,2.83-184.21-12.14-76.05-18.85-145.34-57.45-208.27-103.34-93.69-68.33-179.63-150.8-248.38-244.25-72.8-98.94-132.49-206.7-199.49-309.49-96.21-147.62-229.3-332.27-429.89-305.16-83.33,11.26-158.51,55.89-222.28,108.75C65.46-218.31-2.34-134.01-61.72-46.15-78.31-21.61-94.22,3.37-109.61,28.68c-1.68,2.76,2.65,5.27,4.32,2.52h0Z" fill="#ccc"/><path d="m-106.05-12.26C-46.87-110.71,20.76-205.64,103.35-285.95c64.6-62.82,141.34-119.65,229.88-142.43,81.42-20.95,164.47-5.78,235.11,39.24,93.38,59.51,159.04,156.84,217.85,248.3,67.89,105.6,127.85,216.39,200.71,318.76,66.82,93.87,149.46,175.45,240.5,245.92,63.05,48.8,132.31,91.56,209.05,114.91,58.55,17.81,119.39,22.34,180.3,20.16,37.22-1.33,74.41-4.38,111.55-7.18,58.11-4.38,116.37-10.09,173.15-23.72,107.98-25.92,200.8-84.53,274.45-167.14,18.88-21.18,36.34-43.55,52.75-66.68,1.87-2.63-2.47-5.13-4.32-2.52-66.64,93.95-153.89,173.63-263.43,213.39-101.18,36.73-211.82,41.62-318.35,47.65-60.67,3.44-121.55,2.41-180.84-12.19-76.15-18.76-145.5-57.51-208.47-103.45-93.89-68.5-180.84-151.01-249.75-244.71-74.76-101.65-135.12-212.93-202.55-319.37-95.46-150.69-228.3-341.2-432.4-313.37-82.49,11.25-156.95,55.14-220.24,107.36C65.18-264.5-3.31-178.85-62.98-89.65c-16.42,24.55-32.17,49.55-47.38,74.86-1.66,2.76,2.66,5.28,4.32,2.52h0Z" fill="#ccc"/><path d="m-106.8-55.72C-47.7-155.18,20.13-251.06,103.29-331.99c65.16-63.4,142.85-120.69,232.45-142.81,82.14-20.28,165.44-3.56,235.82,42.68,94.07,61.8,158.95,161.81,217.39,255.59,67.78,108.78,128.01,222.51,202.36,327.11,67.31,94.7,151.54,176.77,243.44,247.62,62.8,48.42,131.76,90.96,208.14,114.04,57.89,17.49,117.95,21.8,178.12,19.82,38.17-1.26,76.32-4.06,114.42-6.51,59.87-3.84,119.99-9.07,178.45-23.18,105.72-25.51,196.5-82.98,266.97-165.48,18.6-21.77,35.61-44.81,51.47-68.65,1.79-2.69-2.54-5.19-4.32-2.52-62.79,94.39-146.79,173.6-254.37,213.39-103.69,38.35-217.19,41.09-326.43,46.81-59.88,3.14-119.95,2.36-178.54-11.85-75.59-18.33-144.42-56.59-207.01-101.94-45.78-33.16-88.63-70.27-129.7-109.07-45.32-42.81-87.09-87.78-124.07-138.05-75.91-103.19-136.38-216.67-203.25-325.67-94.09-153.37-225.41-351.33-432.51-325.93-84,10.3-159.95,54.64-224.2,107.73C64.78-310.16-3.62-224.35-63.08-134.86c-16.68,25.11-32.64,50.7-48.04,76.61-1.65,2.77,2.67,5.29,4.32,2.52h0Z" fill="#ccc"/><path d="m-107.55-99.18C-42.66-209.62,33.3-316.57,129.27-402.33c72.48-64.77,162.01-121.04,261.55-126.73,214.14-12.25,339.29,210.42,431.97,369.18,57.1,97.81,111.44,197.79,177.71,289.85s154.3,176.43,246.96,246.67c68.18,51.68,143.82,96.07,227.76,115.89,63.61,15.02,128.64,14.12,193.48,10.74,87.5-4.55,176.46-6.17,261.91-27.5,99.43-24.83,185.54-79.53,251.27-158.13,19.86-23.75,37.71-49.06,54.11-75.3,1.71-2.74-2.61-5.25-4.32-2.52-61.31,98.06-145.5,178.55-255.95,217.29-87.74,30.77-181.19,34.63-273.15,39.37-66.21,3.42-132.83,8.11-198.58-3.18-81.09-13.92-155.18-51.18-222.24-97.86-50.24-34.97-96.95-74.88-141.56-116.72-43.25-40.56-83.96-82.68-119.73-130.03-68.04-90.09-122.83-189.43-179.31-286.92-53.05-91.56-106.68-185.37-177.59-264.57-60.87-67.98-140.02-123-233.2-130.75s-180.31,32.07-253.04,85.67C82.6-378.09,6.48-284.48-58.45-187.2c-18.66,27.96-36.4,56.51-53.42,85.49-1.63,2.78,2.69,5.3,4.32,2.52h0Z" fill="#ccc"/><path d="m-105.02-84.95C-48.84-178.39,15.04-268.29,91.91-345.96c61.75-62.39,133.87-119.31,217.55-148.74,73.33-25.79,152.25-25.53,223.78,6.08,96.2,42.51,165.78,128.86,224.51,213.05,68.52,98.23,125.71,203.68,190.14,304.53,30.94,48.42,63.46,96.02,99.96,140.45,36.77,44.77,78.76,85.07,121.62,123.95,64.54,58.55,134.11,113.82,212.28,153.14,75.71,38.08,156.04,54.41,240.75,55.1,60.47.49,121.42-.4,181.81-3.57,55.89-2.93,112-9.57,165.75-25.7,85.44-25.64,158.99-76.65,215.95-145.03,16.95-20.35,32.38-41.88,46.72-64.15,1.75-2.71-2.58-5.22-4.32-2.52-54.14,84.1-126.6,155.38-220.43,193.16-105.52,42.49-220.96,40.28-332.75,42.35-61.55,1.14-123.26.91-183.43-13.79-30.73-7.51-60.65-18.2-89.38-31.43-78.01-35.9-147.43-88.68-211.59-145.16-43.06-37.9-85.58-77.5-123.3-120.78s-73.49-93.99-105.93-143.96c-65.24-100.47-122.32-206.06-189.84-305.07-57.25-83.94-123.57-170.17-215.06-218.7-65.22-34.6-139.37-44.47-211.3-27.69-79.56,18.57-150.44,64.7-211.28,117.86C56.97-325.17-7.61-243.86-64.26-158.83c-15.6,23.42-30.58,47.24-45.08,71.36-1.66,2.76,2.66,5.28,4.32,2.52h0Z" fill="#ccc"/><path d="m-102.48-70.72C-45.81-162.8,18.28-251.29,94.78-328.02c61.96-62.14,133.93-118.75,217.14-149.13,71.94-26.27,149.8-28.65,221.55-.41,96.93,38.14,169.83,121.37,230.78,202.8,70.16,93.73,127.82,195.89,191.74,293.81,31.72,48.6,64.93,96.42,102.07,141.07,36.54,43.92,77.91,83.7,120.08,122.15,64.21,58.55,133.16,113.86,210.4,154.36,27.87,14.61,56.86,27.16,86.8,36.89,48.79,15.85,99.33,22.28,150.43,24.41,59.26,2.47,118.95,3.94,178.26,2.87,54.26-.98,108.86-5.46,161.57-18.92,84.91-21.68,158.79-68.89,216.26-134.86,17.32-19.88,33.01-41.09,47.57-63.05,1.78-2.69-2.55-5.2-4.32-2.52-54.41,82.07-127.4,150.06-221.2,183.55-105.09,37.52-218.88,31.57-328.59,29.31-58.93-1.21-118.04-3.15-175.28-18.63-32.04-8.66-63.13-20.69-92.95-35.24-76.84-37.48-145.42-90.44-209.08-146.99-42.75-37.98-84.99-77.49-122.6-120.63-38.77-44.47-73.05-92.7-105.61-141.84-65.04-98.16-122.74-201.19-192.37-296.28-59.22-80.87-128.65-163.53-220.82-207.58-65.73-31.42-139.19-38.17-209.73-20.31-78.66,19.91-148.75,65.7-209.4,118.38C60.74-308.15-3.9-228.03-60.95-144.21c-15.85,23.29-31.08,46.98-45.85,70.97-1.69,2.75,2.63,5.26,4.32,2.52h0Z" fill="#ccc"/><path d="m-99.95-56.48C-42.97-146.89,21.09-233.74,96.92-309.33c62-61.79,133.48-118.1,215.91-149.71,70.9-27.19,148.19-32.5,220.55-7.54,94.77,32.69,169.21,108.73,231.24,184.65,73.64,90.14,132.66,190.78,197.04,287.46,31.29,46.99,63.78,93.33,99.69,136.93s77.42,84.31,119.43,123.17c64.33,59.5,133.1,115.9,209.9,158.65,27.95,15.56,57.02,29.16,87.09,40.12,47.7,17.38,97.27,25.74,147.73,29.77,58.48,4.67,117.39,8.43,176.05,9.57,53.87,1.04,108.23-1.34,161.06-12.6,83.71-17.86,157.54-61.16,215.12-124.44,17.67-19.42,33.64-40.26,48.44-61.93,1.82-2.66-2.51-5.17-4.32-2.52-54.71,80.12-128.22,144.8-221.94,174-104.83,32.66-216.94,22.67-324.77,16.21-59.3-3.55-118.66-7.75-175.62-25.89-31.07-9.89-61.13-22.76-90.03-37.83-77.07-40.16-145.96-94.83-210.18-152.94-42.09-38.08-83.63-77.47-120.67-120.54s-72.65-92.66-105.45-141.47c-63.56-94.59-121.26-193.37-191.97-282.98-60.69-76.9-132.75-154.49-224.48-193.7-66.32-28.35-139.33-32.04-208.71-13-78.54,21.55-148.49,67.77-209.37,120.76C63.24-289.47-.87-211.27-57.8-129.34c-16.04,23.08-31.48,46.56-46.46,70.33-1.72,2.73,2.6,5.24,4.32,2.52h0Z" fill="#ccc"/><path d="m-97.42-42.25C-39.92-131.29,24.35-216.76,99.85-291.4c62.25-61.54,133.59-117.59,215.57-150.17,70.32-27.94,147.34-35.52,220.32-13.23,94.5,28.86,171.52,100.63,235.37,173.34,75.18,85.62,134.61,183.22,198.59,277.11,30.89,45.34,62.78,90.13,97.69,132.49,36.33,44.08,76.92,84.22,118.63,123.17,63.92,59.71,131.92,116.45,207.54,160.87,27.86,16.37,56.79,30.91,86.76,43.02,46.38,18.74,94.69,29.05,144.25,35.02,57.1,6.89,114.65,12.88,172.06,16.33,54.3,3.27,109.29,3.19,163.05-6,83.17-14.22,157.29-54.21,215.23-115.58,17.51-18.54,33.33-38.55,47.99-59.39,1.86-2.64-2.48-5.14-4.32-2.52-55.06,78.24-129.08,139.63-222.63,164.52-105.86,28.17-217.74,13.41-324.96,2.62-57.58-5.8-115.03-12.49-169.77-32.31-30.64-11.09-60.25-24.9-88.76-40.67-75.96-42.03-144.11-97.19-207.97-155.63-41.26-37.75-81.93-76.67-118.46-119.06-37.84-43.91-71.92-90.97-104.71-138.72-63.12-91.91-121.11-187.88-193.25-273.22-61.91-73.24-135.93-145.87-226.58-181.67-67.91-26.82-142.1-28.17-211.86-7.62-78.16,23.03-147.83,69.41-208.83,122.44C65.82-271.08,1.64-193.91-55.66-113.01c-15.87,22.4-31.18,45.18-46.07,68.24-1.75,2.71,2.58,5.22,4.32,2.52h0Z" fill="#ccc"/><path d="m-94.88-28.02C-36.86-115.68,27.64-199.76,102.81-273.49c62.51-61.31,133.74-117.1,215.27-150.67,69.76-28.73,146.53-38.54,220.09-19,93.66,24.87,172.97,91.55,238.34,160.55,77.37,81.66,137.74,177.15,201.83,269.09,31.52,45.22,63.91,89.92,99.22,132.28,35.63,42.75,75.12,81.9,115.62,120.01,63.38,59.65,130.53,116.44,204.81,162.16,28.76,17.7,58.63,33.62,89.63,47.05,46.33,20.07,94.67,31.7,144.44,39.46,106.54,16.63,217.62,36.71,325.53,22.58,82.3-10.78,156.34-47.36,214.52-106.72,17.33-17.69,32.99-36.88,47.52-56.92,1.89-2.61-2.44-5.11-4.32-2.52-55.44,76.42-129.98,134.53-223.28,155.12-105.41,23.27-215.42,4.31-320.55-10.76-55.78-7.99-111.54-16.58-164.23-37.46-31.14-12.34-61.21-27.36-90.15-44.21-75.29-43.85-143.1-99.73-206.91-158.74-40.6-37.54-80.61-76.12-116.74-118.01s-70.71-88.71-103.29-135.12c-63.58-90.58-122.73-185.19-197.49-267.24-62.98-69.12-138.94-136.23-228.42-167.79-68.56-24.18-142.48-23.13-211.57-1.63-77.77,24.2-147.21,70.54-208.38,123.42C69.18-253.61,4.5-177.02-53.54-96.69c-15.69,21.72-30.87,43.8-45.66,66.15-1.78,2.69,2.55,5.2,4.32,2.52h0Z" fill="#ccc"/><path d="m-92.35-13.79C-33.79-100.06,30.95-182.79,105.81-255.59c62.25-60.54,132.63-115.63,212.82-150.29,69.84-30.19,147.13-42.68,222.04-25.79,93.42,21.07,175.5,83.13,242.64,149.04,79.16,77.71,140.18,171.13,204.33,260.99,31.11,43.58,62.92,86.71,97.31,127.77,35.27,42.11,74.07,80.86,113.86,118.67,63.64,60.45,130.8,118.14,204.81,165.62,28.83,18.5,58.74,35.34,89.77,49.87,44.65,20.91,91.46,34.02,139.71,43.63,54.91,10.94,110.01,20.79,165.64,27.24,50.77,5.88,103.32,12.5,154.5,10.64,82.42-2.99,156.78-40.55,214.72-98.21,17.59-17.51,33.52-36.54,48.38-56.4,1.93-2.58-2.41-5.07-4.32-2.52-55.4,74.1-130.37,134.5-223.94,148.88-47.04,7.23-95.41,1.66-142.47-2.58-58.47-5.26-116.26-13.92-173.93-24.76s-109.7-21.05-161.11-43.58c-30.67-13.44-60.29-29.27-88.84-46.75-74.6-45.67-142.09-102.29-205.87-161.88-39.41-36.82-78.28-74.55-113.66-115.3-37.55-43.26-71.83-89.23-105.18-135.77-62.67-87.47-121.81-178.79-197.23-256.1-64.92-66.54-144.02-129.52-234.12-157.04-68.79-21.01-141.88-17.45-209.87,4.85-77.39,25.39-146.61,71.71-207.96,124.47C73.11-236.6,8.29-161.19-50.18-82.06c-15.95,21.59-31.41,43.54-46.48,65.75-1.81,2.67,2.52,5.17,4.32,2.52h0Z" fill="#ccc"/><path d="m-89.81.44C-30.71-84.44,34.28-165.83,108.84-237.72c62.95-60.69,133.65-115.79,213.98-151.49,69.43-30.86,146.52-45.15,221.84-30.86,92.65,17.58,177.03,74.52,245.61,137.12,80.3,73.3,141.68,164.09,205.43,251.4,31.88,43.66,64.33,86.96,99.31,128.21,35.49,41.87,74.29,80.61,113.99,118.46,63.27,60.33,129.8,118.01,202.74,166.46,28.88,19.18,58.8,36.82,89.81,52.34,44.78,22.4,92.1,36.77,140.66,48.42,53.84,12.92,107.71,24.78,162.48,33.14,48.21,7.35,97.97,16.23,146.82,16.55,80.78.53,154.83-33.9,212.76-89.14,17.76-16.93,33.81-35.47,48.79-54.89,1.96-2.55-2.38-5.04-4.32-2.52-55.74,72.27-131.59,130.22-224.67,139.97-45.71,4.79-91.85-2.98-137.09-8.98-56.87-7.54-113.12-17.67-168.96-30.83-53.13-12.52-106.56-24.61-156.39-47.56-31.68-14.59-62.2-31.86-91.62-50.57-74.17-47.18-141.56-104.43-205.48-164.55-39.71-37.35-78.87-75.55-114.7-116.69-37.13-42.63-71.29-87.73-104.68-133.32-62.64-85.53-122.42-174.97-199.55-248.43-65.96-62.83-146.63-120.14-235.64-143.94-69.77-18.66-143.05-12.89-210.94,10.56-77.01,26.6-146.01,72.96-207.57,125.6C77.08-219.63,12.12-145.36-46.81-67.42-63.03-45.97-78.76-24.15-94.13-2.08c-1.84,2.65,2.49,5.15,4.32,2.52h0Z" fill="#ccc"/><path d="m-87.28,14.67C-27.83-68.51,37.16-148.28,111.1-219.09c63.03-60.37,133.35-115.27,212.89-152.15,68.39-31.71,144.31-48.55,219.65-38.24,92.12,12.62,179,63.55,249.43,122.3,82.24,68.61,144.48,157.03,208.1,242.26,31.82,42.64,64,85.04,98.4,125.64,34.94,41.23,72.81,79.6,111.66,117.12,63.05,60.89,129.03,119.31,200.88,169.69,29.23,20.49,59.48,39.57,90.82,56.68,42.04,22.95,86.38,39.23,132.27,52.66,99.46,29.09,201.96,61.44,306.47,63.07,80.14,1.26,155.82-23.26,216.6-76.34,18.77-16.4,35.61-34.78,51.13-54.26,1.99-2.49-1.53-6.05-3.54-3.54-30.34,38.09-66.31,71.81-109.56,94.78-36.12,19.18-76.01,29.92-116.69,33.19-102.85,8.28-205.73-22.63-303.5-50.44-51.33-14.6-102.89-28.86-150.77-52.96-31.51-15.86-61.84-34.18-91.16-53.77-72.86-48.7-139.49-106.29-202.96-166.54-38.88-36.9-77.25-74.55-112.61-114.87-37.17-42.39-71.56-87.08-105.33-132.19-62.48-83.47-122.81-170.93-201.3-240.48-67.72-60.01-151.05-112.37-240.3-132.04-70.62-15.57-143.74-7.1-211.21,17.73-76.3,28.07-144.83,74.48-206.35,127C79.91-201.45,14.64-127.99-44.87-50.86c-15.98,20.71-31.52,41.74-46.72,63.02-1.87,2.62,2.46,5.12,4.32,2.52h0Z" fill="#ccc"/><path d="m-84.74,28.91C-24.35-53.39,41.35-132.31,115.56-202.57c63.37-60,133.65-114.62,212.77-152.25,67.84-32.27,142.92-50.79,218.3-43.54,90.91,8.75,179.23,53.65,250.98,108.48,84.94,64.91,148.55,152.62,212.88,236.83,31.78,41.6,63.79,83.03,97.83,122.82s72.87,79.37,111.57,116.95c62.81,61.01,128.3,119.7,199.18,171.26,28.97,21.08,58.88,40.89,89.81,58.97,42.48,24.83,87.57,42.89,134.07,58.67,96.65,32.8,195.84,69.03,298.71,74.52,78.6,4.19,153.69-17.45,214.36-68.55,18.36-15.46,34.86-32.91,50.1-51.43,2.03-2.47-1.49-6.02-3.54-3.54-30.21,36.72-65.98,68.93-108.83,90.17-36.45,18.07-76.55,27.15-117.11,28.67-99.96,3.76-199.32-29.78-292.74-61.36-50.52-17.08-101.54-33.16-148.85-58.19-32.89-17.41-64.41-37.71-94.9-59.01-72.05-50.33-138.35-108.56-201.76-169.27-38.22-36.6-75.98-73.83-111.02-113.52-36.72-41.6-70.95-85.3-104.67-129.34-62.52-81.67-123.43-167.48-203.17-233.53-69.09-57.23-154.44-104.33-243.4-120.49-71.58-13.01-144.84-2.31-212.3,23.74-75.91,29.31-144.27,75.82-206.01,128.27C82.54-183.28,15.95-109.37-44.98-31.77c-15.02,19.13-29.69,38.54-44.08,58.15-1.91,2.6,2.43,5.09,4.32,2.52h0Z" fill="#ccc"/><path d="m-82.21,43.14C-21.06-37.96,45.09-115.75,119.25-185.31c63.09-59.17,132.56-113.17,210.33-151.69,68.14-33.75,143.55-54.75,220.06-50.45,90.26,5.08,180.32,44.12,253.65,95.6,84.85,59.56,148.41,143.45,211.63,224.31,32.92,42.11,65.87,84.21,100.76,124.72,34.27,39.78,70.87,77.23,108.34,113.98,63.25,62.04,128.93,121.94,199.58,175.51,29.51,22.38,59.92,43.6,91.33,63.22,41.97,26.22,86.79,45.99,132.78,63.98,92.98,36.38,187.98,75.79,288.17,86.29,78.06,8.19,154.03-9.45,215.97-58.96,18.71-14.95,35.5-32.02,51-50.25,2.07-2.44-1.45-5.99-3.54-3.54-30.31,35.67-66.3,66.77-109.21,86.23-36.81,16.69-76.94,23.97-117.24,23.66-99.71-.75-197.5-38.83-289.02-74.71-48.65-19.07-97.79-37.22-143.32-63.16-33.12-18.87-64.81-40.56-95.55-63.06-71.32-52.18-137.39-111.28-200.87-172.66-38.08-36.82-75.69-74.21-110.77-113.92-35.36-40.01-68.63-81.79-101.53-123.83-62.54-79.91-124.1-164.17-205.04-226.71-71.16-54.97-159.19-96.84-248.81-109-71.26-9.67-143.35,3.22-209.67,29.91-76.34,30.72-145.21,77.91-207.72,130.92C85.95-165.61,19.44-93.05-41.8-16.91c-15.22,18.93-30.1,38.13-44.73,57.53-1.94,2.57,2.4,5.06,4.32,2.52h0Z" fill="#ccc"/><path d="m-80.07,57.88C-18.94-20.97,46.68-96.71,119.6-164.93c64.2-60.05,134.51-115.05,213.01-155.2,67.93-34.74,142.97-57.8,219.83-56.63,89.73,1.37,181.62,34.51,256.59,82.78,85.56,55.08,149.63,136.41,212.51,214.93,32.89,41.07,65.63,82.26,100.08,122.04,34.33,39.64,70.75,77.18,108.03,114.03,64.25,63.53,130.72,125.11,201.83,180.94,29.04,22.8,58.86,44.62,89.58,65.11,41.23,27.5,85.45,48.99,130.61,69.16,150.91,67.4,346.78,164.02,498.41,46.73,18.1-14,34.4-30.03,49.48-47.2,2.12-2.41-1.41-5.96-3.54-3.54-31.41,35.75-68.92,66.36-113.53,83.92-36.04,14.19-74.87,19.16-113.42,17.12-99.29-5.26-195.31-47.78-284.71-87.91-46.32-20.79-93.13-40.74-136.63-67.14-33.53-20.35-65.5-43.57-96.66-67.36-71.07-54.27-137.35-114.63-201.29-177.06-36.9-36.03-73.39-72.53-107.69-111.06-34.93-39.23-68-80.05-100.8-121.06-62.16-77.71-123.93-159.86-205.04-219.03-72.11-52.61-160.95-88.81-249.93-98.34-72.25-7.74-144.87,6.87-211.58,34.57-75.96,31.54-144.75,78.55-207.52,131.25C92.86-151.45,26.1-80.24-35.73-5.52c-16.29,19.69-32.22,39.67-47.87,59.86-1.95,2.51,1.57,6.08,3.54,3.54h0Z" fill="#ccc"/><path d="m-77.53,72.11C-15.62-5.53,50.45-80.17,123.32-147.73c64.31-59.63,134.31-114.39,212.05-155.48,67.94-35.91,142.82-61.1,220.18-63.06,88.6-2.25,181.34,24.54,257.61,69.03,86.94,50.71,151.96,129.97,214.97,206.74,33.2,40.44,66.07,81.15,100.49,120.57,34.91,39.99,71.74,78.06,109.37,115.49,63.71,63.37,129.33,125,198.94,181.88,29.39,24.01,59.49,47.15,90.42,69.13,40.6,28.86,84.34,52.21,128.72,74.64,144.24,72.92,337.42,179.5,489.86,67.45,18.41-13.53,35.02-29.18,50.37-46.07,2.16-2.38-1.37-5.92-3.54-3.54-31.22,34.36-68.43,63.46-112.44,79.38-37.32,13.5-77.27,16.79-116.6,12.77-97.9-10.02-191.11-56.37-277.59-100.37-45.1-22.95-90.74-45.07-133.18-72.78-34.1-22.26-66.6-47.29-98.37-72.73-68.87-55.15-133.73-115.15-196.59-177-37.06-36.46-73.74-73.33-108.42-112.08-34.99-39.09-68.29-79.61-101.49-120.22-62.14-76.02-124.76-156.47-207.15-211.75-73.43-49.27-162.96-79.27-251.2-84.89-72.57-4.62-144.66,12.29-210.99,41.01-76.17,32.99-145.33,80.82-208.73,133.99C96.33-133.84,29.65-63.9-32.47,9.39c-16.51,19.47-32.68,39.23-48.6,59.18-1.99,2.49,1.53,6.05,3.54,3.54h0Z" fill="#ccc"/><path d="m-75,86.34C42.32-56.58,175.72-198.28,339.96-287.41c68.3-37.07,143.42-64.15,221.5-68.79,88.01-5.23,181.65,15.82,259.27,57.51,88.41,47.48,154.53,125.99,218.1,201.71,66.41,79.1,133.29,156.75,206.31,229.89,64.51,64.61,130.7,127.66,200.4,186.68,29.15,24.68,58.91,48.66,89.4,71.66,39.56,29.85,82.28,54.82,125.31,79.27,138.03,78.43,327.65,194.42,481.49,87.8,18.75-13,35.67-28.32,51.28-44.92,2.2-2.34-1.33-5.89-3.54-3.54-31.81,33.83-69.77,61.89-114.43,75.99-38.55,12.17-79.55,13.24-119.27,6.8-94.15-15.24-182.33-63.37-264.17-110.03-43.31-24.69-87.15-48.7-128.26-77.01-35.16-24.21-68.49-51.3-101.25-78.63-67.99-56.7-132.57-117.39-195.43-179.7-74.31-73.67-143.38-151-210.45-231.27-61.32-73.39-123.79-151.18-205.47-202.96-75.5-47.87-167.02-72.85-256.16-74.88-72.32-1.65-143.51,16.92-209.17,46.31-76.97,34.45-146.99,83.21-211.5,137.15C100.55-117.01,33.7-48.05-28.99,24.07c-16.8,19.33-33.29,38.94-49.55,58.74-2.03,2.47,1.49,6.03,3.54,3.54h0Z" fill="#ccc"/><path d="m-72.46,100.57C47.02-40.71,182.66-177.3,346.15-267.17c68.04-37.4,141.78-66.05,218.98-76.83,89.46-12.5,186.21,4.6,266.84,45.35,87.19,44.07,152.99,119.91,215.67,192.84,66.89,77.81,133.86,154.71,206.18,227.58,64.5,64.99,130.41,128.67,199.18,189.16,30.51,26.84,61.46,53.3,93.4,78.43,38.03,29.93,78.77,56.03,119.58,81.93,80.69,51.21,164.02,104.44,256.67,131.21,73.98,21.38,151.57,17.66,216.96-25.93,18.28-12.19,34.82-26.65,50.13-42.37,2.25-2.31-1.29-5.85-3.54-3.54-32.13,33-70.43,59.81-115.21,72.19-38.02,10.51-78.05,9.99-116.54,2.3-93.54-18.7-179.8-70.88-259.36-121.28-41.63-26.38-83.67-52.35-123.41-81.55-35.34-25.96-68.83-54.63-101.92-83.38-68.2-59.25-133.52-121.75-197.38-185.64-72.58-72.62-140.72-148.45-207.37-226.51-61.13-71.59-124.04-147.62-205.97-196.3-37.56-22.31-78.55-38.36-120.98-48.56-44.52-10.71-91.13-17.49-136.94-14.59-73.15,4.63-144.23,26.23-210.38,57.19C228.06-219.35,91.77-91.87-26.89,40.55c-16.65,18.58-33,37.44-49.11,56.49-2.07,2.44,1.45,6,3.54,3.54h0Z" fill="#ccc"/><path d="m-69.93,114.8C52.39-25.55,187.53-164.02,350.49-257.1c67.37-38.48,140.71-68.6,217.89-79.61,89.33-12.75,187.33-2.75,269.71,35.15,87.98,40.47,154.63,114.51,217.51,185.95,66.7,75.76,133,151.27,203.87,223.21,65.1,66.08,131.32,131.11,199.77,193.74,31.92,29.21,64.12,58.3,97.46,85.89,36.75,30.41,75.75,57.9,114.71,85.38,76.54,53.98,156.04,109.38,245.38,140.03,73.09,25.07,151.57,25.66,218.62-16.37,18.62-11.67,35.46-25.79,51.05-41.23,2.29-2.27-1.25-5.8-3.54-3.54-32.39,32.1-70.95,57.61-115.69,68.34-38.99,9.35-79.6,6.82-118.26-2.85-91.51-22.87-174.45-78.2-250.78-131.6-40.94-28.64-82.13-57.17-121.29-88.22-34.28-27.18-66.91-56.55-99.33-85.9-67.89-61.48-133.53-125.4-197.99-190.44-71.64-72.28-139.54-147.34-206.43-223.99-60.74-69.6-123.91-143.53-205.69-189.09s-171.84-58.23-261.19-53.21c-74.14,4.16-145.94,27.2-212.33,59.67C231.92-206.59,96.77-76.58-23.59,55.28c-16.85,18.46-33.46,37.15-49.88,55.99-2.11,2.42,1.42,5.97,3.54,3.54h0Z" fill="#ccc"/><path d="m-67.4,129.04C57.77-10.2,194.04-147.69,356.79-242.87c67.92-39.72,141.53-71.59,219.36-85.25,87.4-15.34,183.6-11.09,266.34,22.75,89.5,36.6,157.58,109.52,221.07,179.93,67.45,74.8,134.1,149.89,204.59,221.89,65.22,66.62,131.25,132.46,198.8,196.73,32.27,30.7,64.6,61.46,98.08,90.84,36.34,31.9,74.53,61.56,112.64,91.28,73.26,57.15,150.27,115.43,237.72,149.08,71.85,27.65,150.22,30.93,217.92-9.73,18.14-10.89,34.6-24.23,49.87-38.82,2.33-2.23-1.21-5.76-3.54-3.54-32.32,30.89-70.74,55.03-114.92,64.28-39.48,8.27-80.27,4.15-118.74-7.08-90.49-26.42-170.98-85.41-244.74-142.15-39.34-30.26-78.65-60.72-116.48-92.87-34.59-29.4-67.62-60.68-100.6-91.86-67.1-63.43-132.67-128.47-197.39-194.32-70.7-71.94-138.37-146.21-205.51-221.47-61.05-68.44-125.26-141.16-208.11-183.58s-171.87-49.75-260.11-41.38c-74.32,7.05-145.88,31.88-212.19,65.49C238.34-190.28,101.86-60.34-21.51,71.54c-16.66,17.81-33.12,35.82-49.43,53.96-2.15,2.39,1.38,5.93,3.54,3.54h0Z" fill="#ccc"/><path d="m-64.86,143.27C62.37,6.16,198.67-129.39,359.64-226.79c68.64-41.53,142.75-75.79,221.49-92.72,43.52-9.35,88.38-12.79,132.85-12.88,45.25-.1,90.36,7.09,132.86,22.77,89.53,33.04,158.22,102.76,221.75,171.34,68.28,73.7,135.16,148.45,205.21,220.51,132.19,135.95,264.64,272,408.65,395.52,70.39,60.37,145.28,122.09,231.37,158.67,69.86,29.69,147.26,36.16,215.29-2.08,18.47-10.38,35.24-23.37,50.79-37.7,2.37-2.18-1.17-5.71-3.54-3.54-33.04,30.43-72.31,53.39-117.04,60.85-39.96,6.67-80.86.4-118.9-12.63-89.1-30.53-166.74-92.94-237.77-152.91-145.07-122.47-277.77-258.3-410.17-394.16-70.26-72.1-138.07-146.2-206.01-220.47-60.93-66.6-125.49-136.43-208.38-175.63-81.31-38.45-172.12-41.34-259.98-29.24-75.23,10.36-147.17,37.77-213.99,73.24C243.28-172.43,107.01-43.92-18.18,86.48c-16.9,17.6-33.62,35.37-50.21,53.26-2.19,2.36,1.34,5.9,3.54,3.54h0Z" fill="#ccc"/><path d="m-62.33,157.5C67.41,22.18,204.18-112.13,364.03-211.82c68.5-42.72,142.11-78.87,220.55-99.08,87.08-22.44,183.84-29.19,270.35-.85,89.99,29.48,159.37,98.06,223.05,165.23,68.5,72.26,135.32,146.01,204.52,217.63,133.79,138.49,265.5,279.61,406.17,411.19,66.45,62.16,137.58,125.58,220.45,165.01,68.79,32.73,146.83,43.12,216.31,6.4,18.59-9.82,35.49-22.33,51.19-36.25,2.41-2.14-1.13-5.66-3.54-3.54-33.33,29.56-72.98,51.31-117.59,57.09-40.13,5.2-80.59-2.53-118.09-16.92-87.1-33.43-161.34-98.18-229.15-160.45-141.87-130.27-273.24-271.93-407.04-410.36-69.37-71.77-137.05-144.97-205.17-217.9-60.89-65.18-126.1-134.05-209.28-170.32-81.77-35.66-173.21-35.65-259.74-20.27-76.92,13.67-149.93,43.39-218.06,81.11C249.13-155.61,112.59-27.87-14.84,101.43c-17.14,17.39-34.12,34.91-51.02,52.54-2.23,2.32,1.3,5.86,3.54,3.54h0Z" fill="#ccc"/><path d="m-59.79,171.73C72.39,38.39,209.47-94.71,368-196.75c69.05-44.44,142.93-82.81,221.85-106.34,87.29-26.02,184.69-37.81,273.32-11.49,90.19,26.78,160.31,93.83,224.25,159.78,69.08,71.25,136.24,144.39,204.95,216.01,67.4,70.24,134.54,140.74,200.83,212.03,66.18,71.16,131.38,143.16,199.53,212.46,63.42,64.5,131.39,130.28,212.14,172.75,67.37,35.44,145.66,49.66,216.35,14.9,18.92-9.3,36.14-21.43,52.15-35.09,2.45-2.09-1.1-5.61-3.54-3.54-34.45,29.39-75.55,50.08-121.16,53.66-41.2,3.23-82.2-6.95-119.63-23.71-83.68-37.47-153.55-103.27-217.68-167.3-69.36-69.26-135.11-141.94-201.73-213.8-66.03-71.23-132.94-141.64-200.15-211.76-68.32-71.28-135.68-143.44-203.83-214.87-60.74-63.67-126.07-130.53-208.77-164.85-83.98-34.86-177.55-30.8-264.77-11.33-77.37,17.27-150.49,49.45-218.95,89.01C254.55-138.55,117.9-11.45-11.73,116.63c-17.3,17.09-34.48,34.29-51.6,51.56-2.27,2.29,1.27,5.83,3.54,3.54h0Z" fill="#ccc"/><path d="m-57.26,185.96C78.43,53.71,216.87-79.54,375.57-184.25c69.98-46.17,144.57-86.66,224.37-113.07,86.64-28.67,183.14-44.32,272.71-19.93,90.48,24.64,161.34,90.69,225.7,155.69,69.34,70.03,136.6,142.28,204.57,213.64,66.89,70.24,133.1,141.16,197.63,213.58,65.5,73.51,128.41,149.29,194.48,222.3,60.78,67.18,125.97,135.69,205.08,181.44,66.31,38.35,145.13,56.44,217.42,23.31,19.04-8.73,36.4-20.38,52.56-33.64,2.49-2.04-1.07-5.56-3.54-3.54-34.95,28.65-76.52,47.94-122.13,49.89-41.84,1.79-82.95-10.27-120.15-28.72-82.41-40.87-149.68-109.62-211.29-176.49-67.21-72.95-130.39-149.49-196.14-223.74-64.31-72.63-130.36-143.71-197.17-214.05-67.42-70.98-134.65-142.24-202.92-212.39-61.08-62.76-127.23-128.94-210.31-161.38-83.84-32.74-176.08-26.21-261.75-4.3-79.07,20.23-153.6,54.99-223.48,96.77C262.31-123.87,124.48,3.86-8.35,131.61c-17.54,16.87-35.01,33.82-52.44,50.81-2.31,2.25,1.23,5.78,3.54,3.54h0Z" fill="#ccc"/><path d="m-54.72,200.19C85.91,67.89,227.01-67.15,387.76-175.17c71.69-48.17,147.9-90.89,229.52-119.78,84.17-29.79,177.73-47.49,265.82-25.19,92.75,23.49,165.6,91.1,231.53,156.92,68.31,68.19,134.82,138.38,201.07,208.57,67.29,71.3,133.39,143.76,196.89,218.47,62.97,74.08,121.82,151.46,184.06,226.13,56.35,67.6,116.52,136.02,190.39,185.05,66.88,44.39,149.48,69.96,226.77,37.08,19.17-8.15,36.66-19.33,52.99-32.18,2.53-1.99-1.03-5.51-3.54-3.54-35.93,28.29-78.64,46.23-124.81,46.15-43.84-.08-86.18-15.18-124-36.53-78.81-44.49-142.03-114.34-199.98-182.59-62.6-73.71-120.84-150.99-183.06-225.03-63.73-75.83-130.19-149.3-198-221.49-66.02-70.29-132.76-140.02-200.44-208.72-62.09-63.02-129.37-129.83-213.56-162.03-83.42-31.91-174.64-23.74-259.01-.02-79.77,22.43-154.93,59.3-225.42,102.45C273.22-112.42,132.35,18.09-5.57,147.18c-17.59,16.47-35.14,32.97-52.69,49.48-2.35,2.21,1.19,5.74,3.54,3.54h0Z" fill="#ccc"/></svg>