<?xml version="1.0" encoding="UTF-8"?><svg id="Layer_1" xmlns="http://www.w3.org/2000/svg" width="1920" height="1080" viewBox="0 0 1920 1080"><rect width="1920" height="1080" fill="#282828"/><path d="m1279.1-462.98c11.04,50.66,29.75,154.94-50.46,154.6-33.48-.14-66.99-13.64-97.27-26.62-42.69-18.29-83.74-40.33-124.43-62.63-98.25-53.85-194.7-111.28-296.35-158.67-86.63-40.39-183.91-80.51-281.4-76.21-124.49,5.49-225.18,108.02-302.01,195.9C21.36-315.58-65.64-177.37-182.06-65.73-243.36-6.96-337.33,72.67-427.97,37.49c-38.02-14.75-68.72-44.83-94.76-75.31-31.57-36.96-58.27-77.93-83.69-119.27-55.15-89.71-105.9-181.92-162.92-270.52-54.48-84.67-112.36-167.22-174.72-246.29-107.32-136.07-228.69-264.93-372.37-363.12-115.66-79.04-249.14-137.69-390.76-143.23-32.71-1.28-65.44.36-97.89,4.64-.79.1-.8,1.36,0,1.25,143.59-18.96,285.4,20.19,410.41,90.18,150.3,84.14,277.35,206.35,388.53,336.54,136.69,160.06,249.81,337.18,355.52,518.69C-604.38-149.59-557.71-63.04-488.78-.67c25.41,22.99,55.64,42.62,90.31,46.97,47.1,5.92,92.54-16.01,130.85-41.16,64.58-42.39,118.37-99.35,168.12-157.89C-46.11-215.55,3.14-281.71,54.27-346.32c49.52-62.57,100.69-124.76,160.09-178.32,48.42-43.66,105.93-85.54,170.51-100.68,96.1-22.53,200.24,15.54,287.47,53.19,104.93,45.3,203.8,103.25,303.52,158.75,42.93,23.9,86.05,47.7,130.57,68.54,32.44,15.18,66.59,30.24,102.21,35.93,21.06,3.36,45.62,3.29,62.11-12.3,19.79-18.71,20.81-50.57,19.45-75.82-1.2-22.33-5.14-44.45-9.9-66.27-.17-.79-1.38-.45-1.21.33h0Z" fill="#ccc"/><path d="m-1797.57-1165.27c143.62-20.38,285.89,17.69,411.38,87.27,148.55,82.37,274.37,202.27,384.68,330.09,135.5,157.02,247.68,330.85,353.53,508.69,46.47,78.07,93.75,162.68,162.35,223.86,25.4,22.65,55.27,41.89,89.48,47.13,46.91,7.19,92.81-12.4,132.06-36.31,64.26-39.15,118.06-93.47,167.7-149.43C-42.39-214.83,7.3-279.36,58.6-342.49c50.2-61.77,101.79-123.19,161.11-176.49,49.23-44.24,107.3-86.98,172.47-103.61,94.69-24.17,198.27,12.82,284.69,49.55,103.36,43.94,200.75,100.51,298.88,154.77,43.12,23.84,86.41,47.62,131.11,68.4,32.08,14.91,65.8,29.66,100.96,35.33,21.01,3.39,45.56,3.44,62.15-11.95,19.82-18.39,21.06-49.91,19.8-74.97-1.1-21.88-4.87-43.56-9.46-64.95-.17-.79-1.37-.45-1.21.33,10.86,50.63,28.3,152.63-51.12,152.13-33.77-.21-67.53-13.86-98.07-26.96-42.56-18.25-83.53-40.15-124.15-62.3-97.14-52.96-192.61-109.31-293.29-155.45-85.61-39.23-182.27-78.15-278.34-71.72-52.63,3.53-101.05,26.2-144.54,55.04-60.94,40.42-112.87,93.36-161.09,147.9C23.98-309.24-64.03-174.57-181.72-68.49-246.33-10.26-342.04,61.02-432.29,19.45c-35.96-16.56-65.28-45.53-90.71-75.24-31.7-37.04-58.75-77.96-84.56-119.23-55.15-88.2-106.17-178.78-163.27-265.79-54.09-82.44-111.44-162.81-173.11-239.76-107.39-133.99-228.82-260.82-372.45-356.32-114.94-76.42-247.12-131.89-386.67-135.28-31.73-.77-63.42,1.24-94.83,5.7-.79.11-.46,1.32.33,1.21h0Z" fill="#ccc"/><path d="m-1790.24-1156.16c142.14-21.59,283.48,14.23,408.55,82.08,148.84,80.75,274.94,199.71,385.5,326.57,134.66,154.5,245.88,325.63,352.3,500.22,46.65,76.54,94.62,159.06,163.06,218.52,26.3,22.85,56.95,41.8,91.99,46.78,45.16,6.42,89.58-10.32,128.3-32.19,65.06-36.73,119.82-89.36,170.16-143.91,54.53-59.09,104.64-122.07,156.16-183.75,50.38-60.31,101.96-120.3,160.71-172.7,49.93-44.54,108.45-87.74,174.02-105.51,91.96-24.93,193.15,9.73,277.68,44.82,103.41,42.92,200.73,99.03,298.71,152.81,42.82,23.51,85.8,46.96,130.16,67.45,31.9,14.74,65.41,29.29,100.34,34.89,20.91,3.35,45.32,3.41,61.91-11.79,19.5-17.88,21.1-48.5,20.06-73.09-.92-21.74-4.58-43.29-9.06-64.55-.17-.79-1.37-.45-1.21.33,10.72,50.84,26.76,150.54-52.12,149.66-33.34-.37-66.6-13.68-96.81-26.54-42.23-17.98-82.89-39.57-123.22-61.4-96.22-52.08-190.85-107.52-290.67-152.61-84.59-38.21-180.43-76.04-275.1-68.22-52.36,4.32-100.67,28.01-143.88,56.8-60.85,40.54-113.11,92.96-161.9,147.02C31.06-308.84-58.09-176.84-177.05-75.12-243.44-18.35-339.18,46.34-428.6,4.78c-35.39-16.45-64.6-44.43-90.09-73.42-32.05-36.45-59.54-76.8-85.71-117.59-55.49-86.49-106.56-175.63-163.55-261.2-54.25-81.46-111.7-160.88-173.44-236.85-106.9-131.55-227.57-256.07-370.11-349.25-114.82-75.06-246.68-128.78-385.4-130.49-31.37-.39-62.67,1.95-93.67,6.65-.79.12-.46,1.33.33,1.21h0Z" fill="#ccc"/><path d="m-1782.91-1147.05c140.87-22.83,281.46,10.87,406.26,77.16,147.17,78.17,272.16,194.25,381.92,318.23,134.29,151.68,245.29,320.05,352.16,491.58,47.05,75.52,95.54,156.23,163.38,215.23,26.79,23.3,57.83,42.72,93.38,48.58,45.52,7.51,90.81-7.53,130.7-28.55,64.4-33.93,119.08-83.9,169.23-136,55.08-57.21,105.62-118.6,157.32-178.82,50.99-59.39,102.99-118.54,161.72-170.48,50.73-44.86,109.67-88.39,175.67-107.35,90.54-26.01,190.86,7.52,274.55,41.72,102.47,41.87,198.87,97.04,295.91,149.89,42.11,22.93,84.37,45.81,127.97,65.81,31.73,14.56,65.03,28.92,99.72,34.44,20.81,3.31,45.08,3.37,61.66-11.65,19.43-17.61,21.21-47.85,20.27-72.23-.82-21.25-4.32-42.34-8.63-63.12-.16-.79-1.37-.45-1.21.33,10.58,51.08,25.22,148.42-53.14,147.21-33.25-.52-66.37-13.73-96.54-26.53-41.54-17.63-81.57-38.73-121.29-60.08-95.31-51.21-189.08-105.7-288.04-149.74-83.57-37.19-178.58-73.9-271.84-64.7-52.1,5.14-100.32,29.79-143.3,58.5-60.78,40.59-113.38,92.51-162.74,146.04C37.98-308.54-52.34-179.22-172.42-81.8-241.69-25.6-338.74,32.78-428.2-11.39c-34.76-17.16-63.71-44.79-89.22-73.52-31.67-35.67-59.09-74.98-85.22-114.81-55.63-84.77-106.77-172.31-163.64-256.3-54.28-80.16-111.68-158.29-173.3-232.99-106.57-129.2-226.73-251.35-368.41-342.1-113.92-72.97-244.45-124.31-381.22-124.74-31.51-.1-62.93,2.55-94.03,7.59-.79.13-.46,1.33.33,1.21h0Z" fill="#ccc"/><path d="m-186.5,921.14c-8.7-29.43-19.16-67.86-5.27-97.49,10.74-22.92,35.45-29.65,58.93-30.06,34.9-.6,70.05,9.14,103.15,19.2,45.5,13.82,89.94,31.06,134.07,48.7,106.99,42.76,212.54,89.14,321.1,127.88,100.74,35.95,207.07,69.28,314.88,72.01,127.11,3.22,239.31-61.19,336.11-138.29,126.03-100.39,231.69-224.43,361.74-319.98,71.57-52.58,162.21-109.21,254.47-101.63,90.04,7.4,160.66,80.75,216.52,144.99,64.06,73.66,121.58,152.77,185.26,226.81,63.33,73.64,129.98,144.49,200.54,211.25,234.63,222.03,531.56,418.47,864.61,429.12,37.55,1.2,75.1-.13,112.49-3.75.79-.08.8-1.33,0-1.25-345.6,33.44-665.07-148.32-915.79-369.73-148.05-130.75-273.98-280.21-397.06-434.01-53.76-67.17-112.02-140.89-189.8-181.49-83.52-43.61-171.46-17.3-249.66,25.6-138.19,75.81-245.76,197.14-361.17,301.96-103.9,94.37-228.5,196.99-374.53,208.14-107.12,8.18-216.02-22.9-316.55-56.52-112.72-37.69-221.84-85.02-331.83-129.8-46.04-18.75-92.27-37.25-139.43-53.01-35.43-11.84-72.09-23.1-109.46-26.59-22.1-2.06-48.51-1.9-66.63,12.93-18.06,14.78-20.61,39.73-18.9,61.51,1.44,18.3,5.84,36.27,11.02,53.83.23.77,1.43.44,1.21-.33h0Z" fill="#ccc"/><path d="m3263.86,1501.12c-341.84,35.56-658.78-141.03-908.72-358.37-72.01-62.62-140.07-129.72-204.8-199.82-68.34-73.99-131.12-152.27-194.92-230.11-53.69-65.5-111.75-136.19-188.02-176.34-81.87-43.1-169.02-22.23-247.82,17.61-139.23,70.41-248.61,188.82-363.81,291.23-106.09,94.31-233.06,199.27-380.52,212.02-105.56,9.12-213.22-21-312.48-53.72-111.52-36.77-219.47-83.22-328.25-127.22-46.06-18.63-92.3-37.03-139.47-52.66-34.8-11.53-70.73-22.44-107.38-25.91-21.84-2.07-47.76-2.03-65.99,12.1-18.41,14.27-21.47,38.84-19.97,60.61,1.25,18.17,5.52,36.04,10.59,53.48.22.77,1.43.44,1.21-.33-8.48-29.18-18.69-67.52-4.2-96.6,11.05-22.19,35.61-28.55,58.62-28.9,35.09-.53,70.39,9.27,103.68,19.39,45.15,13.72,89.28,30.76,133.11,48.19,105.83,42.08,210.31,87.62,317.8,125.43,99.8,35.11,205.43,67.61,312.14,68.82,127.23,1.44,240.56-66.13,337.63-142.62,125.57-98.94,232.67-220.39,364.32-311.77,72.25-50.16,162.48-101.58,253.45-92.22,90.38,9.3,161.51,81.65,218.57,146.09,63.23,71.41,120.27,148.06,183.03,219.92,63.81,73.06,130.9,143.34,201.87,209.5,234.24,218.34,529.68,410.53,859.97,418.04,36.86.84,73.7-.78,110.37-4.6.79-.08.8-1.33,0-1.25h0Z" fill="#ccc"/><path d="m3255.64,1493.6c-339.11,37.78-654.29-134.71-903.88-348.87-71.58-61.42-139.32-127.27-203.83-196.06-67.34-71.81-129.44-147.79-192.59-223.23-54.7-65.34-113.56-135.14-189.99-175.79-80.8-42.97-167.15-26.82-246.97,10.32-140.49,65.37-251.7,180.85-367.13,281.13-60.96,52.96-124,104.45-193.89,145.29-57.47,33.58-121.42,61.9-188.25,68.88-103.94,10.85-210.59-18.17-308.58-49.85-110.68-35.78-217.78-81.46-325.62-124.81-45.4-18.25-90.97-36.29-137.42-51.72-35.14-11.67-71.42-22.74-108.43-26.38-22.01-2.16-48.23-2.29-66.69,11.87-18.6,14.27-21.65,39.05-20.11,60.93,1.23,17.41,5.25,34.54,10.03,51.27.22.77,1.43.44,1.21-.33-8.24-28.84-18.05-66.73-3.34-95.26,11.62-22.53,37.26-28.23,60.66-28.21,34.91.02,69.88,9.76,103,19.86,44.99,13.73,88.97,30.66,132.68,47.96,104.98,41.54,208.7,86.36,315.47,123.23,98.05,33.86,202.04,65.03,306.72,64.75,126.91-.34,241-70.35,338.17-145.94,124.55-96.9,232.56-214.97,364.67-302.16,75.25-49.66,169.07-98.46,261.9-84.24,86.04,13.18,154.53,80.48,210.66,142.06,65.44,71.8,124.19,149.44,188.81,222,63.07,70.81,129.23,138.93,199.1,203.05,233.35,214.13,526.32,401.61,852.97,406.88,36.97.6,73.9-1.29,110.64-5.39.79-.09.8-1.34,0-1.25h0Z" fill="#ccc"/><path d="m3247.42,1486.07c-337.81,40.16-652.38-129.72-902.24-341.98-71.38-60.64-138.99-125.67-203.46-193.59-66.34-69.9-127.62-143.91-190.33-217-55.49-64.68-115.5-133.4-192.44-173.04-80.67-41.57-167.57-27.09-247.77,8.16-140.38,61.7-252.69,174.04-368.19,271.72-60.68,51.31-123.17,101.28-191.89,141.52-57.44,33.64-121.39,62.96-188.07,71.2-103.16,12.74-209.79-15.68-307.28-46.72-108.94-34.68-214.36-79.2-320.44-121.56-45.94-18.35-92.04-36.51-139.05-51.97-34.49-11.34-70.05-22.06-106.33-25.67-22.06-2.19-48.35-2.4-66.91,11.72-18.25,13.88-21.63,37.89-20.34,59.36,1.04,17.28,4.94,34.31,9.6,50.93.22.77,1.42.44,1.21-.33-7.98-28.43-17.41-65.85-2.54-93.78,11.81-22.21,37.41-27.71,60.65-27.66,34.23.08,68.5,9.46,101.02,19.27,44.99,13.57,88.98,30.4,132.7,47.58,103.78,40.78,206.35,84.74,311.95,120.73,97.21,33.14,200.53,63.58,304.21,62.1,128.73-1.84,245.26-75.85,343.96-152.04,122.01-94.18,230.04-207.42,361.12-289.61,76.84-48.19,171.45-93.04,264.33-77.07,84.41,14.52,152.25,78.66,208.62,138.82,64.91,69.26,123.05,144.61,186.63,215.1,63.73,70.66,130.53,138.63,201.04,202.56,232.94,211.22,524.56,395.5,848.92,398.69,37.21.37,74.37-1.8,111.32-6.19.79-.09.8-1.34,0-1.25h0Z" fill="#ccc"/><path d="m3239.2,1478.55c-334.07,42.26-646.16-122.34-895.32-330.5-71.78-59.97-139.8-124.37-204.73-191.68-66.72-69.17-128.37-142.56-191.8-214.69-55.36-62.95-115.1-128.9-190.48-168.15-80.58-41.96-168.07-30.98-249.74,2.29-138.52,56.43-250.89,163.29-364.54,257.29-61.59,50.93-124.6,100.84-193.45,141.72-57.97,34.43-122.47,65.33-189.72,75.53-102.17,15.5-208.98-12.15-305.92-42.35-108.08-33.67-212.64-77.4-317.78-119.09-77.75-30.83-160.28-68.44-244.37-77.12-22.24-2.29-48.83-2.65-67.63,11.49-17.88,13.45-21.62,36.68-20.6,57.73.84,17.19,4.62,34.15,9.17,50.69.21.77,1.42.45,1.21-.33-7.77-28.21-16.92-65.64-1.35-93.02,12.24-21.52,37.78-26.55,60.67-26.4,34.6.23,69.18,9.76,102.05,19.71,44.3,13.41,87.64,29.9,130.73,46.72,104.01,40.61,206.87,84.34,312.87,119.63,95.34,31.75,197.01,60.7,298.49,57.36,127.82-4.21,244.7-80.05,343.32-154.98,122.34-92.95,232.17-204.33,365.3-282.46,77.48-45.47,171.37-84.92,262.74-67.52,84.66,16.13,153.02,79.61,210.51,139.85,64.01,67.07,121.65,139.97,184.3,208.31,64.23,70.07,131.5,137.44,202.44,200.73,232.1,207.06,521.25,386.44,842.02,387.48,37.33.12,74.59-2.33,111.62-7.02.79-.1.8-1.35,0-1.25h0Z" fill="#ccc"/><path d="m3230.98,1471.02c-330.34,44.35-639.96-114.95-888.45-319-72.19-59.28-140.64-123.05-206.02-189.74-65.72-67.03-126.67-138.12-189.33-207.93-55.83-62.19-115.65-126.62-190.18-166.57-81.11-43.48-170.06-36.3-254.08-4.69-138.91,52.25-252.67,156.11-366.58,247.83-61.58,49.58-124.31,98.31-192.37,138.8-59.15,35.19-124.94,67.44-193.48,78.61-100.58,16.39-206.09-10.17-301.79-39.48-106.32-32.56-209.2-75.12-312.57-115.81-77.67-30.58-159.98-67.89-243.89-76.62-22.33-2.32-49.1-2.76-68,11.44-17.42,13.1-21.45,35.5-20.68,56.08.64,17.06,4.29,33.91,8.72,50.33.21.78,1.42.45,1.21-.33-7.48-27.69-16.08-64.16-.87-90.96,12.28-21.63,38-26.62,60.98-26.43,34.79.28,69.55,9.87,102.61,19.87,43.41,13.13,85.92,29.18,128.19,45.55,102.8,39.82,204.51,82.69,309.33,117.09,94.5,31.01,195.5,59.23,295.94,54.66,128.64-5.85,247.22-84.19,347.02-158.96,121.35-90.91,232.07-198.93,365.52-272.64,78.69-43.46,172.71-78.52,263.54-59.58,84.9,17.71,153.8,80.59,212.39,140.89,64.52,66.41,122.89,138.54,186.15,206.14,62.8,67.1,128.39,131.66,197.41,192.36,232.19,204.22,520.78,380.38,839.79,378.19,36.64-.25,73.18-2.97,109.49-7.84.79-.11.8-1.36,0-1.25h0Z" fill="#ccc"/><path d="m3222.59,1463.52c-328.56,46.7-637.3-109.49-885.93-311.13-70.96-57.55-138.36-119.44-202.86-184.12-66.11-66.3-127.46-136.75-190.82-205.6-56.13-61-116.28-123.69-190.28-163-80.58-42.8-169.53-38.47-253.99-9.31-138.42,47.79-252.97,147.77-366.46,236.77-62.48,49-125.86,97.38-194.23,137.98-59.49,35.33-125.23,67.96-193.81,80.66-98.76,18.29-203.38-7.16-297.77-35.37-106.55-31.85-209.57-74.14-313.07-114.53-76.94-30.02-158.59-66.78-241.66-75-21.81-2.16-47.64-2.41-66.26,11.05-17.44,12.61-21.93,34.46-21.43,54.84.42,16.95,3.95,33.74,8.27,50.07.21.78,1.41.45,1.21-.33-7.26-27.48-15.57-63.98.35-90.19,12.71-20.93,38.34-25.46,60.99-25.19,34.72.42,69.38,9.96,102.38,19.91,44.22,13.33,87.51,29.65,130.59,46.25,101.96,39.29,202.96,81.37,307.12,114.66,92.64,29.61,191.99,56.3,290.16,49.85,55.76-3.66,109.04-22.7,159.37-46.17,68.17-31.79,131.06-73.78,191.4-118.42,120.75-89.35,232.88-194.63,367.63-263.23,80.7-41.08,175.69-70.74,266.12-47.81,83.22,21.1,151.18,82.86,209.88,142.46,64.21,65.2,122.75,135.73,185.96,201.88,62.67,65.59,128.04,128.67,196.74,187.93,232.63,200.64,521.07,372.12,838.06,364.86,34.38-.79,68.62-3.75,102.66-8.59.79-.11.46-1.32-.33-1.21h0Z" fill="#ccc"/><path d="m3214.37,1455.99c-328.3,49.29-637.43-105.15-886.93-305.75-69.97-56.25-136.53-116.67-200.33-179.8-66.48-65.77-128.17-135.84-192.47-203.67-55.82-58.89-115.77-118.66-188.51-156.42-79.49-41.27-167.71-39.16-251.61-12.73-139.4,43.91-255.82,141.64-370.19,228.82-62.1,47.34-124.89,94.21-192.16,134.04-59.91,35.47-125.57,68.32-194.2,82.58-96.66,20.1-200-3.94-292.88-30.94-105.45-30.65-207.39-71.98-309.69-111.6-77.15-29.87-158.66-66.31-241.79-74.97-22-2.29-48.14-2.79-67.11,10.54-17.93,12.6-22.52,34.78-21.96,55.5.44,16.17,3.72,32.18,7.75,47.79.2.78,1.41.45,1.21-.33-6.97-26.98-14.73-62.49.82-88.14,12.76-21.04,38.57-25.53,61.32-25.22,34.46.46,68.86,9.84,101.66,19.66,43.78,13.11,86.66,29.14,129.33,45.44,100.75,38.5,200.59,79.69,303.55,112.07,92.22,29,191.48,55.08,289.02,46.98,55.54-4.61,108.81-24.81,158.86-48.4,68.47-32.27,131.89-74.27,193.01-118.67,119.95-87.12,232.88-189.08,367.56-253.56,80.52-38.55,173.73-64.23,262.58-42.35,83.2,20.48,151.77,80.01,211.37,138.69,64.35,63.35,122.82,132.4,185.63,197.24,63.37,65.42,129.42,128.32,198.8,187.35,232.45,197.74,519.52,365.75,834.33,356.47,34.62-1.02,69.1-4.27,103.35-9.41.79-.12.46-1.32-.33-1.21h0Z" fill="#ccc"/><path d="m3206.15,1448.47c-324.62,51.39-631.28-97.64-880.25-294.06-70.4-55.54-137.4-115.33-201.68-177.82-65.47-63.65-126.46-131.41-189.9-197.02-56.74-58.67-117.39-117.92-190.31-156.2-77.55-40.71-164.09-42.88-247.53-20.2-141.36,38.42-260.48,133.93-376.09,219.64-61.64,45.7-123.67,91.18-189.66,130.48-61.71,36.75-128.73,70.67-199.12,86.97-94.8,21.95-197.18-.82-288.8-26.73-104.57-29.57-205.63-70.07-306.97-108.97-77.2-29.63-158.7-65.9-241.79-74.44-21.92-2.26-47.91-2.74-66.87,10.43-17.55,12.2-22.49,33.6-22.19,53.88.24,16.07,3.38,32.01,7.3,47.54.2.78,1.4.45,1.21-.33-6.76-26.78-14.19-62.32,2.07-87.36,13.38-20.6,39.54-24.48,62.24-23.98,34.54.77,68.94,10.19,101.82,20.05,43.6,13.08,86.34,28.97,128.88,45.11,100.42,38.1,200.04,78.74,302.85,110.12,90.75,27.7,188.97,52.39,284.58,41.91,55.97-6.14,109.95-28.11,160.27-52.43,68.61-33.17,132.45-75.37,194.33-119.63,118.85-84.99,232.64-183.44,367.45-242.85,81.02-35.7,173.22-56.63,260.66-33.61,83.41,21.96,152.52,81.04,213.18,139.73,63.34,61.29,121.23,127.94,183.1,190.68,63.89,64.8,130.41,127.08,200.26,185.44,231.64,193.52,516.43,356.61,827.64,345.1,34.74-1.28,69.32-4.82,103.65-10.25.79-.13.46-1.33-.33-1.21h0Z" fill="#ccc"/><path d="m3197.93,1440.94c-318.99,53.14-621.6-88.42-869.17-278.91-72.47-55.76-141.38-116.09-207.5-179.24-65.87-62.91-127.34-129.99-191.43-194.65-56.99-57.49-117.85-115.22-190.22-152.96-75.3-39.27-159.36-44.79-241.39-25.98-141.39,32.42-262.03,123.89-377.49,207.06-120.71,86.96-246.85,181.3-392.85,220.33-93.53,25-196.2,3.25-287.32-21.76-103.68-28.47-203.86-68.12-304.23-106.29-77.01-29.29-158.07-65.03-240.79-73.79-21.77-2.3-47.4-2.95-66.55,9.5-17.94,11.65-23.52,32.66-23.51,53,0,15.96,3.03,31.83,6.83,47.28.19.78,1.4.45,1.21-.33-6.51-26.48-13.48-61.52,2.99-86.01,13.85-20.58,40.65-24.02,63.53-23.29,34.62,1.09,69.02,10.52,102,20.43,43.42,13.04,86.01,28.79,128.43,44.76,98.96,37.25,197.22,76.83,298.66,107.05,89.94,26.79,187.73,50.49,282.13,37.94,58.56-7.78,115.37-32.53,167.78-58.79,67.07-33.61,129.88-75.02,191.18-118.08,118.99-83.58,234.8-179.76,371.37-233.65,80.56-31.79,170.3-47.15,255.09-23.31,81.47,22.91,149.74,79.59,210.16,136.58,65.49,61.76,125.3,129.24,189.17,192.64,63.06,62.59,128.61,122.75,197.33,179.09,230.93,189.34,513.31,347.36,820.98,333.72,34.86-1.55,69.55-5.38,103.97-11.11.79-.13.46-1.34-.33-1.21h0Z" fill="#ccc"/><path d="m3189.71,1433.42c-149.19,26.11-301.28,10.74-444.52-37.22-153.47-51.38-294.2-136.01-422.62-233.47-71.24-54.06-139.11-112.48-204.32-173.65-64.85-60.82-125.6-125.61-188.78-188.1-58.46-57.82-120.71-115.87-194.28-154.02-74.96-38.87-158.79-46.71-241.04-30.17-140.56,28.26-261.85,115.57-377.09,196.11-123.37,86.22-250.15,179.17-396.91,220.9-91.24,25.94-191.49,6.23-280.99-17.52-103.66-27.5-203.76-66.69-304-104.43-76.19-28.68-156.03-63.39-237.68-72.43-22.18-2.46-48.4-3.31-67.97,9.35-17.47,11.31-23.29,31.54-23.55,51.39-.2,15.82,2.68,31.58,6.34,46.9.19.78,1.39.45,1.21-.33-6.25-26.12-12.77-60.63,3.82-84.53,14.05-20.25,40.77-23.52,63.53-22.78,34.82,1.13,69.41,10.61,102.58,20.54,42.52,12.72,84.25,28.01,125.82,43.51,98.86,36.85,197.07,76.01,298.52,105.39,87.29,25.28,182.07,47.22,273.38,34.4,59.92-8.41,118.15-34.43,171.77-61.4,67.39-33.9,130.75-75.19,192.85-117.85,118.95-81.72,236.09-175.09,373.22-224.7,81.43-29.46,170.95-41.04,255.11-15.98,81.66,24.31,150.46,80.65,211.9,137.63,64.44,59.76,123.65,124.87,186.57,186.18,62.89,61.28,128.17,120.17,196.52,175.3,231.19,186.49,513.21,340.95,819.12,324.02,34.16-1.89,68.12-5.96,101.82-11.86.79-.14.46-1.34-.33-1.21h0Z" fill="#ccc"/><path d="m3181.49,1425.89c-148.26,27.22-299.72,13.46-442.71-33.08-152.76-49.71-293.04-132.63-421.27-228.34-71.97-53.72-140.56-111.91-206.51-172.84-65.23-60.26-126.41-124.56-190.45-186.05-58.07-55.75-119.91-111.26-192.17-148.05-74.17-37.78-157.07-47.25-238.69-33.09-137.81,23.91-258.37,105.46-372,182.33-125.61,84.98-251.99,175.96-398.23,221.96-91.97,28.94-191.3,12.08-282.6-11.32-102.75-26.34-201.97-64.66-301.23-101.65-76.24-28.41-156.08-62.92-237.69-71.83-21.94-2.39-47.66-3.22-67.18,8.91-17.46,10.86-23.77,30.49-24.32,50.16-.44,15.7,2.3,31.39,5.85,46.62.18.78,1.39.45,1.21-.33-6.04-25.99-12.13-60.41,5.14-83.71,14.46-19.5,41.05-22.41,63.52-21.59,34.29,1.25,68.32,10.43,101.04,20.12,43.8,12.98,86.78,28.66,129.61,44.5,96.85,35.81,193.2,73.62,292.69,101.64,86.87,24.47,181.85,45.55,272.27,30.12,60.48-10.32,119.44-37.59,173.7-65.27,66.8-34.08,129.94-74.85,192.12-116.63,118.23-79.45,236.07-169.16,372.87-214.27,81.34-26.82,169.78-34.94,252.57-9.53,81.06,24.88,149.85,79.41,211.81,135.5,63.56,57.53,122.13,120.29,183.95,179.64,63.64,61.08,129.65,119.77,198.74,174.63,231.69,183.99,513.63,335.39,818.22,315.26,33.59-2.22,66.96-6.53,100.07-12.61.79-.15.46-1.35-.33-1.21h0Z" fill="#ccc"/><path d="m3173.27,1418.37c-146.74,28.22-296.9,16.3-439.16-28.33-151.38-47.48-290.76-128.01-418.35-221.25-71.62-52.34-139.94-109.12-205.7-168.62-65.02-58.83-126.19-121.58-189.99-181.69-57.75-54.41-118.76-108.08-189.2-145.59-73.68-39.24-156.64-52.69-239.21-41.72-139.18,18.49-262.24,97.14-377.31,172.46-126.29,82.66-252.13,171.98-396.65,220.12-92.83,30.93-189.9,17.72-283.11-5.3-101.84-25.15-200.17-62.59-298.44-98.81-76.06-28.03-155.45-61.98-236.68-71.08-21.99-2.46-47.67-3.42-67.42,8.36-18.04,10.76-24.61,30.71-25.14,50.79-.4,14.97,2.11,29.93,5.39,44.48.18.78,1.38.45,1.21-.33-5.76-25.53-11.31-59.08,5.69-81.83,14.68-19.63,41.64-22.38,64.31-21.48,34.67,1.38,69.06,10.69,102.16,20.49,43.08,12.76,85.38,28.06,127.56,43.5,95.91,35.1,191.39,72.07,290.01,99.03,85.65,23.41,179.62,43.3,268.32,26.2,62.42-12.03,123.35-40.9,179.44-69.94,66.57-34.46,129.81-74.89,192.41-116,117.42-77.1,236.01-163.11,372.42-203.16,82.66-24.27,171.26-28.37,253.71-.94,79.93,26.6,148.28,80.3,210.43,135.62,64.02,56.98,123.28,119.02,185.76,177.64,63.49,59.57,129.27,116.76,198.05,170.15,230.53,178.95,509.39,324.09,809.43,301.91,33.72-2.49,67.2-7.11,100.4-13.5.79-.15.45-1.36-.33-1.21h0Z" fill="#ccc"/><path d="m3165.05,1410.84c-145.19,29.22-294.15,19.19-435.64-23.55-150.94-45.6-290.17-124.29-417.79-215.82-71.25-51.1-139.28-106.59-204.84-164.77-64.72-57.43-125.78-118.68-189.37-177.33-58.57-54.02-120.29-107.2-191.03-144.76-72.66-38.58-154.3-54.15-236.1-45.96-138.27,13.83-262.01,87.98-377.05,160.65-127.68,80.65-253.59,168.91-397.22,219.26-45.58,15.98-90.55,23.75-138.92,22.21-48.83-1.55-97.3-10.1-144.75-21.36-100.91-23.94-198.35-60.48-295.64-95.93-75.86-27.64-154.81-61.05-235.67-70.31-44.72-5.12-91.35,4.34-93.61,57.37-.63,14.86,1.74,29.74,4.89,44.21.17.79,1.38.45,1.21-.33-5.61-25.73-10.77-59.86,7.8-81.91,15.25-18.1,41.51-20.34,63.55-19.41,35.07,1.49,69.83,10.95,103.31,20.85,42.35,12.53,83.97,27.44,125.48,42.47,96.08,34.78,191.81,71.38,290.78,97.29,84.22,22.05,177.1,40.3,263.62,20.71,63.2-14.31,124.68-43.72,181.83-73.54,66.77-34.85,130.5-75.16,193.88-115.76,117.89-75.5,238.64-158.74,376.35-192.98,81.58-20.28,167.61-20.04,247.41,7.88s147,80.14,209.36,134.55c63.73,55.61,122.98,116.09,185.19,173.35,61.18,56.31,124.43,110.43,190.37,161.09,231.88,178.15,511.66,322.05,812.22,297.41,33.85-2.77,67.45-7.71,100.74-14.41.79-.16.45-1.36-.33-1.21h0Z" fill="#ccc"/><path d="m3156.83,1403.32c-144.52,30.39-293.1,21.94-434.58-19.48-149.58-43.79-287.87-120.29-414.85-209.6-70.03-49.26-137.02-102.78-201.65-158.9-65.26-56.66-126.92-117.16-191.06-175.04-58.77-53.04-120.43-105.11-190.48-142.75-72.13-38.76-153.18-56.76-234.94-51.32-136.53,9.09-260.34,78.04-374.85,147.6-128.36,77.97-253.54,164.65-395.13,217.49-47.65,17.78-93.9,28.77-144.94,28.17-48.04-.56-95.81-8.3-142.59-18.84-100.58-22.66-197.69-58.52-294.53-93.37-75.65-27.22-154.19-60.11-234.66-69.49-43.94-5.12-91.54,3.07-94.66,55.6-.87,14.74,1.35,29.54,4.37,43.93.17.79,1.37.45,1.21-.33-5.32-25.28-9.93-58.52,8.36-80.03,15.49-18.22,42.11-20.31,64.36-19.29,34.53,1.58,68.74,10.74,101.75,20.4,42.56,12.45,84.39,27.3,126.12,42.23,95.12,34.04,189.99,69.77,288.07,94.56,83.02,20.98,174.88,37.95,259.59,16.64,65.05-16.36,128-46.55,187.14-77.6,65.44-34.36,128.24-73.43,190.94-112.49,117.47-73.2,238.69-152.82,375.69-183.23,82.86-18.39,169.41-15.24,249.44,14.01,78.19,28.57,146.08,80.06,208.75,133.68,63.43,54.28,122.64,113.21,184.59,169.13,61.7,55.69,125.45,109.17,191.88,159.14,231.17,173.87,508.92,312.69,805.88,285.74,33.98-3.08,67.7-8.33,101.09-15.35.79-.17.45-1.37-.33-1.21h0Z" fill="#ccc"/><path d="m3148.61,1395.79c-144.5,31.72-293.37,24.64-435.4-15.84-147.99-42.18-285.11-116.57-411.25-203.64-70.82-48.88-138.57-102.13-203.99-158-64.16-54.8-125.03-113.21-188.28-169.01-58.89-51.96-120.55-102.78-190.02-140.09-71.26-38.28-151.12-58.01-232.08-55.16-136.17,4.8-261.1,69.85-376.23,137.21-128.85,75.38-253.64,160.19-393.55,214.37-47.96,18.57-94.56,31.88-146.22,32.41-47.21.48-94.31-6.45-140.39-16.26-100.24-21.33-197.01-56.49-293.39-90.72-75.46-26.8-153.55-59.11-233.65-68.65-43.17-5.14-91.73,1.86-95.71,53.84-1.12,14.62.95,29.34,3.84,43.64.16.79,1.36.45,1.21-.33-5.1-25.23-9.19-58.3,9.81-79.17,16.12-17.69,42.98-19.32,65.3-18.11,34.6,1.87,68.82,11.01,101.93,20.68,42.37,12.37,84.05,27.04,125.65,41.75,94.73,33.51,189.33,68.55,287.18,92.03,81.68,19.6,172.28,34.71,254.74,10.92,137.31-39.6,261.24-119.27,382.39-192.61,116.89-70.76,238.7-146.29,374.99-171.74,82.91-15.48,168.5-8.96,247.43,21.19,76.29,29.14,143.15,78.76,205.32,130.75,64.02,53.54,123.9,111.74,186.39,167.02,61.02,53.97,123.98,105.81,189.5,154.23,231.94,171.4,509.68,306.74,805.46,276.59,33.42-3.41,66.55-8.9,99.35-16.1.79-.17.45-1.38-.33-1.21h0Z" fill="#ccc"/><path d="m3140.39,1388.27c-142.97,32.73-290.67,27.61-431.98-10.93-146.66-40-282.88-111.84-408.45-196.46-71.33-48.06-139.6-100.59-205.54-155.78-63.85-53.44-124.59-110.37-187.58-164.79-59.03-51.01-120.57-100.81-189.34-138.2s-150.06-60.38-230.88-60.15c-134.25.38-259,60.12-373.72,124.33-130.91,73.27-256.57,157.55-396.45,213.45-48.68,19.45-96.48,35.12-149.18,36.66-46.43,1.35-92.9-4.85-138.33-14-99.27-20-195.15-54.21-290.52-87.62-75.26-26.36-152.92-58.11-232.63-67.76-42.97-5.2-92.39,1.01-96.86,53.01-1.22,14.19.67,28.51,3.36,42.43.15.79,1.36.45,1.21-.33-4.85-25.02-8.37-57.51,10.83-77.79,16.44-17.36,43.36-18.77,65.7-17.5,35,1.99,69.6,11.25,103.12,21,42.18,12.27,83.7,26.75,125.16,41.23,93.21,32.56,186.42,66.44,282.8,88.6,80.83,18.58,169.71,31.83,250.62,6.7,138.43-43.01,263.22-121.24,387.34-194.11,117.01-68.69,240.17-141,376.45-161.52,82.65-12.45,167.15-3.06,244.85,27.92,76.43,30.47,143.79,79.84,206.88,131.83,62.8,51.76,121.96,107.71,183.43,161.01,61.54,53.36,125.03,104.54,191.06,152.25,232.04,167.66,508.68,297.89,801.8,264.51,32.7-3.72,65.11-9.44,97.18-16.78.78-.18.45-1.38-.33-1.21h0Z" fill="#ccc"/><path d="m3132.17,1380.74c-141.5,33.74-287.95,30.52-428.6-5.99-147.19-38.21-284.2-108.87-410.51-192.44-70.1-46.38-137.3-97.05-202.29-150.32-63.55-52.08-124.16-107.55-186.84-160.63-120.06-101.67-253.03-195.88-416.19-201.24-133.91-4.4-259.73,50.8-375.4,112.72-130.55,69.89-255.07,151.69-392.18,208.77-50.29,20.94-100.91,39.98-155.72,42.9-46.14,2.46-92.49-3.05-137.77-11.63-97.13-18.41-191.04-51.13-284.28-83.3-76.13-26.27-154.49-58.09-234.95-67.99-42.71-5.25-93.13.17-98.04,52.17-1.3,13.78.4,27.69,2.9,41.23.15.79,1.35.46,1.21-.33-4.58-24.79-7.54-56.74,11.87-76.42,17.02-17.27,44.49-18.28,67.13-16.83,77.22,4.93,153.95,36.43,226.34,61.36,93.34,32.15,186.8,65.56,283.47,86.43,83.97,18.12,170.41,26.52,253.01-1.65,137.29-46.82,261.52-123.4,387.05-194.57,117.21-66.46,241.56-134.35,377.74-149.09,81.09-8.78,162.92,4.01,238.21,35.08,75.47,31.15,142.52,79.77,205.62,130.84,62.43,50.53,121.5,105,182.71,156.98,62.09,52.72,126.09,103.26,192.64,150.24,231.41,163.38,506.09,288.35,795.65,252.66,32.84-4.05,65.37-10.08,97.55-17.76.78-.19.45-1.39-.33-1.21h0Z" fill="#ccc"/><path d="m3123.94,1373.22c-140.05,34.76-285.25,33.43-425.24-1.02-145.86-35.9-282.06-104.06-407.78-185.15-70.62-45.55-138.35-95.49-203.88-148.07-64.02-51.36-125.18-106.1-188.39-158.44-119.2-98.71-250.52-190.99-409.97-201.95-132.46-9.11-258.58,40.88-374.48,99.89-130.17,66.27-253.56,145.61-387.86,203.73-52.13,22.56-106.14,45.34-163.3,50.09-45.14,3.76-90.76-.73-135.26-8.43-97.33-16.83-191.46-48.99-284.75-80.67-75.94-25.78-153.87-57-233.94-67.01-41.99-5.25-93.31-.93-99.15,50.44-1.55,13.65-.02,27.47,2.34,40.93.14.79,1.34.46,1.21-.33-4.36-24.79-6.69-56.51,13.41-75.52,17.42-16.47,44.58-17.24,67.07-15.75,78.01,5.18,155.43,36.76,228.72,61.64,91.25,30.98,182.77,62.93,277.36,82.28,43.5,8.9,87.9,15.19,132.39,14.96,44.46-.23,84.9-9.41,126.59-24.49,135.36-48.96,258.75-124.29,384.54-193.04,117.52-64.23,243.15-128.16,379.1-137.48,82.19-5.64,164.06,10.83,239.25,43.96,72.25,31.83,137.12,78.48,198.65,127.39,62.87,49.98,122.58,103.75,184.37,155.04,61.88,51.35,125.61,100.54,191.83,146.18,230.92,159.17,503.44,278.59,789.56,240.77,32.99-4.36,65.65-10.74,97.94-18.76.78-.19.45-1.4-.33-1.21h0Z" fill="#ccc"/><path d="m3115.72,1365.69c-138.56,35.77-282.62,36.42-421.91,3.98-144.55-33.66-279.91-99.21-405.08-177.85-139.58-87.69-263.31-194.52-390.79-298.25-119.34-97.11-249.91-189.44-407.3-206.13-132.15-14.02-259.5,31.42-376.69,88.11-130.39,63.08-253.45,140.43-386.05,199.08-54.19,23.97-111.19,49.53-170.78,55.6-43.82,4.47-88.25.78-131.62-6.14-96.31-15.37-189.53-46.54-281.77-77.33-75.73-25.28-153.25-55.9-232.93-65.98-41.3-5.23-93.47-1.99-100.28,48.72-1.81,13.51-.46,27.25,1.76,40.63.13.79,1.34.46,1.21-.33-4.06-24.43-5.78-55.12,13.98-73.66,17.67-16.58,45.29-17.19,68.01-15.63,77.67,5.34,154.67,36.31,227.8,60.75,91.35,30.52,183.12,61.96,277.96,79.87,42.27,7.98,85.4,13.31,128.49,12.1,46.12-1.29,87.6-13.24,130.6-29.48,132.77-50.15,254.81-123.4,379.96-189.38,118.04-62.23,244.63-122.6,380.34-127.99,167.31-6.65,311.66,78.29,438.88,178.06,125.08,98.09,242.46,204.5,374.67,293.41,228.93,153.95,497.56,267.64,778.55,229.54,34.83-4.72,69.28-11.7,103.3-20.48.78-.2.45-1.41-.33-1.21h0Z" fill="#ccc"/><path d="m3107.5,1358.17c-137.96,37.01-281.73,39.37-421.11,8.46-144.2-31.99-279.54-95.89-404.83-172.99-138.67-85.33-262.05-189.61-389.03-290.78-118.41-94.35-247.45-185.05-401.14-206.38-130.54-18.12-257.63,21.64-375.21,75.34-131.37,59.99-254.81,135.85-386.57,195.09-54.2,24.37-111.83,51.56-171.21,60.18-44.76,6.5-90.59,3.59-135.17-2.9-95.26-13.86-187.57-44.02-278.77-73.91-75.53-24.75-152.64-54.76-231.91-64.91-41.49-5.31-94.68-2.57-101.65,48.62-1.75,12.86-.59,25.94,1.4,38.7.12.79,1.33.46,1.21-.33-3.81-24.45-4.87-54.92,15.59-72.74,18.09-15.75,45.33-16.19,67.93-14.58,77.35,5.51,153.88,35.83,226.89,59.81,90.35,29.67,181.23,60.14,275.09,76.69,42.15,7.43,85.17,12.07,128,9.83,47.57-2.48,90.65-17.23,134.78-34.51,132.69-51.96,255.47-124.88,382.39-188.91,117.81-59.43,244.86-114.86,379.22-114.94,162.19-.1,303.23,83.53,428.04,179.25,126.1,96.71,244.56,201.95,377.66,289.46,229.73,151.05,498.14,260.31,777.58,218.86,34.12-5.06,67.84-12.28,101.15-21.21.78-.21.45-1.41-.33-1.21h0Z" fill="#ccc"/><path d="m3099.28,1350.64c-137.37,38.27-280.87,42.38-420.37,13.03-141.98-29.88-275.65-90.91-399.69-165.08-138.18-82.63-261.63-184.13-388.03-283.12-119.78-93.8-249.81-185.51-403.39-210.43-127.43-20.68-252.63,13.4-369.21,63.39-132.29,56.73-256.16,131-387.1,190.62-55.83,25.42-115.28,54.26-176.16,65.06-42.11,7.47-85.5,5.96-127.79.84-96.49-11.66-190.13-41.61-282.32-71.23-75.32-24.2-152.02-53.6-230.89-63.79-41.32-5.34-95.44-3.31-102.97,47.81-1.83,12.45-.85,25.11.94,37.5.12.79,1.32.46,1.21-.33-3.53-24.31-3.92-54.1,16.7-71.34,18.7-15.63,46.49-15.71,69.47-13.93,77.81,6.04,154.59,36.08,228.25,59.82,89.31,28.79,179.35,58.15,272.26,72.9,40.9,6.49,82.65,10.15,124.04,6.9,49.81-3.91,95.74-21.92,141.71-40.57,130.84-53.09,252.97-124.45,379.98-185.65,118.42-57.06,246.55-108.04,380.35-102.96,160.15,6.08,299.77,91.39,424.02,185.42,124.37,94.12,242.08,195.74,373.61,280.23,230.56,148.11,498.86,252.87,776.73,208.03,33.4-5.39,66.41-12.84,98.99-21.92.77-.22.45-1.42-.33-1.21h0Z" fill="#ccc"/><path d="m3091.06,1343.12c-136.6,39.49-279.63,45.44-419.11,17.81-141.43-28.02-274.91-87.14-398.93-159.54-136.03-79.41-258.25-177.1-382.74-272.94-120.36-92.67-249.85-184.31-401.86-214.03-128.11-25.05-255.43,5.46-374.25,53.84-129.62,52.78-251.13,123.21-378.13,181.68-34.54,15.91-69.46,31.01-104.93,44.74-25.31,9.8-50.91,20.09-77.51,25.87-40.95,8.9-83.52,8.57-125.03,4.44-95.35-9.48-188.13-38.21-279.16-66.8-76.19-23.93-153.55-53.27-233.13-63.67-40.26-5.26-95.16-4.58-104.2,45.21-2.27,12.51-1.49,25.38.19,37.91.11.79,1.36.8,1.25,0-3.18-23.71-3.13-52.32,16.7-69.2,18.72-15.94,46.79-16.1,69.94-14.36,76.66,5.75,152.35,34.81,225.06,57.8,89.4,28.26,179.64,57.15,272.7,70.61,40.27,5.82,81.36,8.72,121.95,4.6,50.82-5.16,98.4-25.31,145.22-44.67,129.33-53.5,250.99-123.16,377.94-181.76,118.38-54.64,246.46-101.66,378.96-93.53,157.67,9.67,296.29,94.58,419.96,186.3,124.81,92.57,243.2,192.61,375.06,275.47,230.86,145.07,498.57,245.82,774.48,198.56,33.73-5.78,67.03-13.62,99.9-23.13.77-.22.44-1.43-.33-1.21h0Z" fill="#ccc"/><path d="m3082.84,1335.59c-135.18,40.53-277.1,48.53-415.94,23.04-141.1-25.91-274.68-82.92-398.9-153.56-135.21-76.88-257.16-171.8-380.9-265.36-120.59-91.17-249.48-182.46-399.55-216.01-126.72-28.32-253.66-2.82-373.08,42.67-130.31,49.64-252.32,118.38-378.75,176.71-59.91,27.64-122.51,58.17-186.78,74.2-39.97,9.96-81.84,10.55-122.7,7.19-94.19-7.74-186.07-35.37-276.01-62.97-75.99-23.32-152.95-52.01-232.11-62.42-39.7-5.22-95.3-5.44-105.41,43.54-2.55,12.36-1.96,25.15-.44,37.59.1.79,1.35.8,1.25,0-2.91-23.8-2.1-51.98,18.33-68.21,19.11-15.17,46.83-15.18,69.93-13.4,76.91,5.91,152.72,34.62,225.85,57.24,86.79,26.85,174.49,54.05,264.79,66.19,40.68,5.47,82.24,7.85,123.08,2.69,51.91-6.55,101.14-28.65,148.95-48.76,128.62-54.09,250.52-122.51,378.2-178.64,119.12-52.37,248.04-95.18,379.92-82.73,155.46,14.67,292.58,100.31,415.75,190.35,124.69,91.16,243.69,189.06,375.78,269.78,230.51,140.87,496.12,235.72,768.71,186.36,33.9-6.14,67.36-14.4,100.36-24.29.77-.23.44-1.44-.33-1.21h0Z" fill="#ccc"/><path d="m3074.62,1328.07c-133.81,41.58-274.57,51.56-412.8,28.31-140.78-23.68-274.49-78.67-398.93-147.48-133.7-73.93-254.85-165.56-377.15-256.48-119.6-88.91-246.02-178.82-392.11-217.48-264.84-70.09-517.08,89.32-747.86,196.54-63.7,29.59-128.77,59.88-196,80.67-39.63,12.26-81.87,14.22-123.04,11.8-92.66-5.44-183.4-31.67-271.89-58.09-76.8-22.93-154.31-51.43-234.08-62.13-39.25-5.27-96.03-6.68-107.37,41.68-2.87,12.22-2.48,24.97-1.12,37.36.09.79,1.34.8,1.25,0-2.63-23.97-.98-51.83,20.17-67.35,19.63-14.4,47.25-14.14,70.39-12.27,77.57,6.26,153.93,34.8,227.91,57.14,86.51,26.13,174.24,52.42,264.38,62.32,39.03,4.29,78.84,5.37,117.72-.93,54.62-8.85,107.22-33.91,157.65-55.62,129.11-55.57,252.54-123.65,382.72-176.81,119.87-48.95,249.54-84.97,379.88-65.38,150.96,22.69,283.96,108.36,405.27,196.19,122.73,88.86,240.95,183.06,371.52,260.59,230.01,136.57,493.84,225.8,763,174.12,34.08-6.54,67.69-15.2,100.83-25.5.77-.24.44-1.45-.33-1.21h0Z" fill="#ccc"/><path d="m3066.4,1320.54c-132.43,42.63-272.07,54.64-409.69,33.63-139.51-21.3-272.51-73.6-396.45-139.93-133.85-71.64-255.47-161.14-377.75-250.47-118.83-86.82-243.23-175.3-385.87-217.93-262.42-78.43-514.86,69.4-745.7,176.36-66.99,31.04-134.76,61.41-204.6,85.53-38.1,13.16-78.53,16.72-118.63,15.41-91.92-2.98-182.38-28.15-270.19-53.62-77.18-22.39-154.87-50.49-234.82-61.25-38.8-5.22-96.15-7.44-108.63,40.05-3.17,12.04-2.99,24.71-1.8,37.01.08.79,1.33.8,1.25,0-2.33-24.14.21-51.55,22-66.37,19.96-13.57,47.21-13.2,70.27-11.31,77.23,6.33,153.18,34.18,227.02,55.93,85.45,25.17,172.29,50.38,261.33,58.66,39.37,3.66,79.58,3.86,118.48-3.99,55.62-11.21,109.58-37.48,161.34-60,128.38-55.85,252.13-122.45,382.98-172.58,121.2-46.43,251.62-77.24,381.36-52.81,147.36,27.75,277.64,113.04,397.67,198.76,121.76,86.96,239.73,178.47,369.54,253.54,119.16,68.91,246.45,126.3,381.11,156.93,125.32,28.5,255.4,31.83,381.46,5.85,33.36-6.88,66.25-15.76,98.67-26.19.76-.25.44-1.45-.33-1.21h0Z" fill="#ccc"/><path d="m3058.18,1313.02c-129.44,43.14-266.16,57.44-401.57,39.67-141.03-18.51-275.93-69.09-401.64-134.38-133.02-69.09-254.31-155.91-375.75-243.15-119.77-86.05-244.28-174.72-386.15-220.18-259.45-83.14-511.52,54.55-741.91,160.35-66.76,30.66-134.02,60.39-202.98,85.78-39.95,14.71-80.23,21.31-122.84,20.84-90.62-1-180.19-24.97-266.85-49.37-76.97-21.67-154.28-49.06-233.81-59.77-38.8-5.22-96.91-8.01-110.13,39.28-3.25,11.62-3.27,23.88-2.28,35.81.07.8,1.32.8,1.25,0-1.96-23.76,1.2-50.18,22.59-64.53,20.66-13.86,48.86-13.17,72.58-11.11,77.07,6.69,152.76,33.88,226.69,55.05,84.88,24.31,171.42,48.52,259.89,54.64,38.11,2.64,76.99,1.71,114.29-7.2,25.33-6.05,49.69-16.26,73.88-25.72,32.12-12.56,63.91-25.96,95.48-39.82,126.77-55.65,250.07-120.1,380.63-166.75,120.77-43.15,250.12-68.82,377.48-41.27,145.83,31.55,275.05,117.31,395.23,202.03,121.59,85.72,240.06,175.17,370.09,248.08,118.63,66.52,245.2,121.35,378.67,149.65,125.56,26.62,255.48,27.81,380.97.14,32.64-7.2,64.79-16.3,96.5-26.86.76-.25.43-1.46-.33-1.21h0Z" fill="#ccc"/><path d="m3049.96,1305.49c-128.97,44.48-265.47,60.66-401.11,44.68-139.82-16.47-274.01-64.61-399.26-127.66-132.2-66.55-253.13-150.74-373.7-235.95-118.23-83.56-239.82-170.13-377.23-219.26-120.81-43.2-246.05-41.1-369.21-8.94-129.57,33.83-251.26,92.56-372.71,147.74-66.4,30.17-133.05,59.91-201.17,86.03-42.87,16.44-83.55,27.49-129.73,28.33-89.47,1.64-178.51-21.08-264.22-44.36-77.26-20.99-154.6-47.83-234.18-58.69-38.82-5.3-98.35-8.95-112.4,38.31-3.34,11.23-3.56,23.13-2.78,34.73.05.8,1.3.8,1.25,0-1.64-24.08,2.54-50.03,24.7-63.65,21.18-13.02,49.16-12.14,72.98-10,77.76,7,154.02,33.93,228.85,54.68,83.46,23.14,168.87,45.93,255.82,49.81,37.98,1.7,76.74-.48,113.39-11.19,59.8-17.49,117.93-44.94,174.86-70.03,126.02-55.55,249.67-118.2,380.77-161.28,122.36-40.21,252.08-59.79,378.63-27.2,142.16,36.61,268.53,122.02,387.48,204.96,120.51,84.03,238.77,170.72,368.16,240.99,118.88,64.56,245.63,117.09,378.87,142.87,124.1,24.01,252.01,23.01,375.26-5.58,32.82-7.61,65.14-17.14,96.99-28.12.76-.26.43-1.47-.33-1.21h0Z" fill="#ccc"/><path d="m3041.74,1297.97c-127.85,45.61-263.44,63.81-398.67,50.04-138.79-14.13-272.5-59.66-397.48-120.41-131.19-63.77-251.61-145.08-371.07-228.19-117.32-81.63-236.7-166.78-370.55-219.37-118.91-46.72-242.9-51.31-366.88-23.32-129.03,29.13-250.57,84.77-370.76,138.56-66.53,29.77-133.04,59.65-200.8,86.56-45.29,17.99-88.2,33.94-137.2,36.66-88.36,4.9-177.17-16.49-262.05-38.61-78.23-20.39-156.32-47.04-236.65-57.97-38.51-5.24-98.56-9.61-113.86,36.72-3.65,11.04-4.11,22.85-3.5,34.37.04.8,1.29.81,1.25,0-1.26-24.05,3.77-49.16,26.01-62.23,21.87-12.85,50.43-11.7,74.75-9.4,78.2,7.38,154.77,33.88,230.29,54.06,82.78,22.13,167.92,43.71,254.09,44.89,37.22.51,74.89-3.26,110.21-15.55,62.83-21.86,124.09-48.96,184.91-75.8,233.61-103.11,493.74-244.68,755.91-166.45,139.62,41.66,263.92,127.18,382.63,209.12,118.28,81.63,235.22,164.68,362.68,231.73,117.78,61.96,243.17,111.8,374.55,135.49,124.52,22.45,252.5,19.65,375.51-10.4,32.84-8.02,65.16-17.94,97-29.3.75-.27.43-1.48-.33-1.21h0Z" fill="#ccc"/><path d="m3033.52,1290.44c-126.57,46.69-261.04,66.93-395.67,55.52-137.55-11.66-270.6-54.35-395.17-112.61-130.45-61.01-250.56-139.58-369.09-220.77-117.45-80.46-235.81-165.11-367.63-220.72-117.39-49.52-240.45-59.58-365.13-35.25-128.23,25.02-249.47,77.53-368.54,129.75-65.3,28.64-130.38,57.82-196.41,84.74-48.45,19.76-96.07,40.65-148.69,45.19-87.09,7.52-175.4-12.59-259.35-33.58-77.89-19.47-155.44-45.24-235.18-56.18-38.35-5.26-99.37-10.57-116.09,34.94-4,10.88-4.71,22.63-4.3,34.11.03.8,1.28.81,1.25,0-.86-24.09,5.08-48.46,27.56-60.92,22.44-12.44,51.22-11.11,75.89-8.73,78.29,7.57,154.9,33.48,230.76,52.97,81.86,21.04,166.49,41.37,251.57,40.04,39.86-.63,77.15-7.9,114.39-21.99,63.58-24.07,126.03-50.96,188.27-78.27,232.51-102.07,491.24-231.12,749.34-146.07,137.87,45.43,260.9,131.26,379.77,212.39,118.03,80.56,235.48,161.52,363.26,226.2,117.28,59.36,241.99,106.28,372.16,127.24,123.07,19.82,249.03,14.84,369.85-16.13,33.04-8.47,65.53-18.84,97.52-30.64.75-.28.42-1.48-.33-1.21h0Z" fill="#ccc"/><path d="m3025.3,1282.92c-125.31,47.77-258.66,70.07-392.7,61.05-137.3-9.25-270.6-49.58-395.56-105.98-129.76-58.57-249.54-134.73-367.28-214.18s-235.94-164.26-366.64-222.02c-114.53-50.62-234.95-65.04-358.39-44.83-127.32,20.84-248.27,70.18-366.25,120.65-65.85,28.17-131.28,57.32-197.46,84.7-49.44,20.45-99.49,44.41-153.08,51.18-85.77,10.84-173.97-7.96-257.07-27.74-78.29-18.64-156.05-43.87-235.97-54.74-38.16-5.19-99.52-11.04-117.52,33.41-4.32,10.68-5.31,22.31-5.1,33.72.01.8,1.26.81,1.25,0-.44-24.36,6.64-48.16,29.67-59.87,22.77-11.58,51.08-10.27,75.76-7.89,78.54,7.59,155.36,32.98,231.68,51.75,81.17,19.96,165.55,39.08,249.69,34.98,43.05-2.1,81.05-13.78,121-29.4,63.65-24.89,126.35-52.1,189.04-79.32,233.43-101.34,491.49-217.71,746.78-123.92,133.5,49.05,253.18,133.21,370.29,212.25,116.1,78.37,232.21,156.34,358.15,218.35,117.56,57.88,242.46,103.04,372.5,122.15,124.24,18.25,250.98,11.16,372.2-21.8,32.31-8.79,64.07-19.36,95.35-31.28.74-.28.42-1.49-.33-1.21h0Z" fill="#ccc"/><path d="m3017.08,1275.39c-124.93,49.2-258.1,73.53-392.44,66.49-136.13-7.14-268.78-44.92-393.34-99.1-128.91-56.07-248.18-129.75-364.97-207.42-117.1-77.87-233.23-161.35-360.93-221.27-58.07-27.25-119.02-48.02-182.7-56.92-57.61-8.05-116.13-7.05-173.73.57-127.25,16.84-248.73,63.32-366.56,112.35-63.74,26.52-126.93,54.32-190.61,80.98-51.69,21.64-104.89,48.6-160.44,58.58-84.88,15.26-174-2.29-256.9-20.94-78.57-17.68-156.39-42.24-236.33-53.14-38.69-5.28-101.88-11.85-120.52,33.22-4.18,10.09-5.32,21.07-5.33,31.9,0,.8,1.25.81,1.25,0,.02-24.09,7.85-46.92,30.58-58.17,23.82-11.79,53.36-10.1,79.03-7.49,78.81,8.01,155.82,32.76,232.71,50.71,80.11,18.69,164.07,36.31,246.77,28.98,45.96-4.08,86.77-20.6,129.3-37.69,61.91-24.87,123.1-51.46,184.45-77.67,121.15-51.75,244.16-103.88,373.77-130.38,125.85-25.73,252.74-20.55,372.59,27.82,130.14,52.52,247.33,135.74,363.42,213.28,115.02,76.82,230.7,152.28,355.93,211.69,116.32,55.19,239.67,97.49,367.68,114.43,124.45,16.47,251,7.45,371.76-26.92,32.51-9.25,64.45-20.29,95.9-32.68.74-.29.42-1.5-.33-1.21h0Z" fill="#ccc"/><path d="m3008.86,1267.87c-123.72,50.32-255.79,76.75-389.55,72.18-133.01-4.55-263.19-38.5-385.86-88.96-130.14-53.54-250.7-125.54-368.12-202.49s-233.84-160.97-360.64-223.37c-57.61-28.35-118.09-50.73-181.56-61.46-57.82-9.78-116.85-10.39-175.09-4.16-125.25,13.4-245.51,56.45-361.66,103.24-64.29,25.9-127.88,53.48-191.79,80.3-32.06,13.45-64.2,26.73-96.52,39.54-22.25,8.82-44.31,18.06-67.74,23.28-83.34,18.57-172.42,2.48-254.52-14.94-78.34-16.62-155.8-40.31-235.3-51.01-38.88-5.23-102.8-12.2-122.41,32.47-4.26,9.7-5.61,20.28-5.83,30.78-.02.8,1.23.8,1.25,0,.51-24.43,9.58-46.53,32.83-57.09,24.11-10.96,53.25-9.29,78.92-6.71,78.43,7.89,155.1,31.8,231.84,48.79,78.94,17.48,162.07,33.68,243.18,24.04,48.27-5.74,92.26-25.78,136.89-44,63.81-26.03,127.03-53.47,190.62-80.02,117.52-49.07,237.58-96.81,363.49-119.26,128.2-22.85,255.73-12.28,375.59,40.01,127.32,55.55,242.54,138.1,357.96,214.41,113.93,75.32,229.15,148.31,353.65,205.14,115.83,52.88,238.51,92.54,365.36,107.09,124.84,14.33,251.28,2.89,371.61-33.28,31.78-9.55,62.99-20.81,93.72-33.31.74-.3.41-1.51-.33-1.21h0Z" fill="#ccc"/><path d="m3000.64,1260.34c-122.71,51.53-253.89,80.07-387.26,77.92-131.99-2.13-261.76-33.32-384.21-81.51-129.09-50.8-248.97-120.09-365.23-195.18-116.1-74.99-229.31-156.68-351.91-220.95-56.36-29.54-115.42-54.27-177.78-67.82-57.52-12.5-116.68-15.92-175.35-12.02-125.08,8.31-246.02,47.78-362.22,92.64-62.6,24.17-124.4,50.36-186.27,76.32-32.03,13.44-64.08,26.84-96.26,39.91-26.48,10.76-52.98,22.86-80.47,30.84-80.68,23.42-169.58,9.57-250.34-6.14-79.89-15.55-158.62-39.01-239.38-49.82-39.2-5.25-104.65-12.97-125.36,31.57-4.33,9.31-5.9,19.52-6.34,29.7-.03.8,1.22.8,1.25,0,2.72-63.6,66.19-66.96,116.21-61.73,79.31,8.28,156.79,31.75,234.72,47.77,77.35,15.9,159.42,30.06,238.25,16.91,52.35-8.73,101.8-33.62,150.45-53.76,61.7-25.54,123.06-51.89,184.94-76.99,117.31-47.59,237.99-92.35,363.96-110.05,129.01-18.12,254.81-.38,372.71,55.43,123.08,58.26,235.27,139.13,348.9,213.48,113.39,74.2,228.65,145.06,353.09,199.45,114.71,50.14,236.08,86.83,361.02,98.91,124.51,12.03,250.14-1.53,369.43-39.08,31.8-10.01,63.03-21.69,93.76-34.6.73-.31.41-1.52-.33-1.21h0Z" fill="#ccc"/><path d="m2992.27,1252.88c-122.49,53.09-253.72,83.79-387.54,83.68-130.07-.11-258.46-28.38-379.88-73.98-128.84-48.38-248.64-115.55-364.41-189.35-115.96-73.92-228.22-155.2-349.09-221.1-55.14-30.07-112.81-55.9-173.88-71.26-56.8-14.28-115.55-19.74-174.04-17.73-123.77,4.26-244.27,39.99-359.7,82.59-63.12,23.3-125.32,49.01-187.42,74.87-60.87,25.35-121.5,53.42-183.85,74.94-78.66,27.14-167.62,15.06-247.58.71-78.75-14.14-156.23-36.19-235.56-46.97-39.79-5.41-107.22-14.36-129.84,29.78-4.66,9.09-6.52,19.2-7.19,29.31-.05.8,1.2.8,1.25,0,4.19-63.55,70.49-64.99,119.94-59.77,79.06,8.35,156.33,30.89,234.29,45.74,77.06,14.68,159.64,27.36,237.35,10.15,22.39-4.96,43.35-13.63,64.59-22.13,31.63-12.66,63.13-25.66,94.6-38.74,61.82-25.7,123.5-51.78,185.87-76.17,117.75-46.04,239.74-87.68,366.28-99.95,60.58-5.88,121.94-4.66,181.91,6.19,64.5,11.67,125.71,34.89,184,64.53,120.7,61.38,231.54,141.84,345.03,215.24,111.33,71.99,225.17,139.55,347.78,190.73,116.08,48.46,238.82,82.47,364.64,91.3,123.43,8.67,247.42-8.04,364.66-47.4,29.99-10.07,59.45-21.58,88.46-34.15.74-.32.1-1.4-.63-1.08h0Z" fill="#ccc"/><path d="m2984.05,1245.36c-121.36,54.27-251.51,87.15-384.77,89.64-128.86,2.41-256.61-22.9-377.69-66.04-128.06-45.62-247.37-110.28-362.19-182.45-115.82-72.8-227.12-153.61-346.09-221.27-54.7-31.11-111.84-58.59-172.52-75.86-56.11-15.97-114.37-23.45-172.67-23.34-122.37.23-242.38,32.17-357.11,72.38-127.32,44.62-250.42,100.15-375.73,149.93-78.24,31.08-165,23.16-246.28,10.04-78.99-12.75-156.56-33.98-235.89-44.6-40.13-5.37-108.29-14.94-132.68,28.15-5.03,8.89-7.23,18.93-8.14,29.01-.07.8,1.18.8,1.25,0,5.75-63.2,74.48-63.01,123.34-57.87,79.15,8.32,156.54,30.06,234.85,43.67,76.03,13.21,158.24,24.01,233.92,3.16,24.79-6.83,48.48-17.71,72.24-27.39,31.72-12.92,63.36-26.06,95-39.18,61.11-25.35,122.25-50.67,184.19-73.96,116.88-43.95,238.37-82.14,363.69-90.44,61.32-4.06,123.13-.58,183.25,12.5,63.28,13.77,123.11,38.7,180.1,69.12,119.75,63.94,230.27,144.89,344.52,217.92,109.45,69.97,221.93,134.58,342.81,182.87,115.59,46.18,237.76,77.52,362.39,83.85,123.9,6.29,247.72-12.89,364.62-54.12,29.24-10.31,57.95-21.98,86.25-34.63.73-.33.1-1.41-.63-1.08h0Z" fill="#ccc"/><path d="m2975.83,1237.83c-120.45,55.56-249.66,90.58-382.56,95.68-127.87,4.9-255.16-17.63-376.11-58.44-126.05-42.54-243.81-104.11-356.67-173.95-114.79-71.04-224.37-150.49-340.31-219.64-105.75-63.07-217.78-106.98-341.94-111.86-120.68-4.74-240.25,22.74-354.27,60.04-127.58,41.74-250.6,96.02-374.8,146.58-41.8,17.01-80.99,29.37-126.38,31.74-43.26,2.26-86.69-1.74-129.5-7.78-79.22-11.19-156.9-31.56-236.21-41.99-40.81-5.37-110.35-15.51-136.11,27.36-5.11,8.51-7.54,18.14-8.7,27.92-.09.8,1.16.79,1.25,0,7.48-63.35,79.77-61.04,128.37-55.85,79.37,8.47,157.03,29.36,235.86,41.51,75.38,11.62,157.98,20.21,231.46-5.67,60.3-21.24,118.93-48.5,178.06-72.79,60.36-24.8,120.94-49.16,182.41-71.11,117.66-42,240.47-76.38,366.16-79.08,60.32-1.29,120.83,5.11,179.19,20.6,63.06,16.73,122.31,44.35,178.88,76.51,115.65,65.73,223.54,144.82,335.95,215.82,108.17,68.33,219.85,130.4,339.72,175.89,115.42,43.79,237.1,72.12,360.78,75.73,122.64,3.58,244.75-17.94,359.79-60.24,29.26-10.76,57.99-22.85,86.3-35.91.73-.34.1-1.41-.63-1.08h0Z" fill="#ccc"/><path d="m2967.6,1230.31c-119.54,56.87-247.86,94.08-380.37,101.83-125.87,7.36-251.83-11.94-371.76-49.91-125.85-39.84-243.6-99.22-356.03-167.82-114.67-69.97-223.44-149.01-337.7-219.55-103.29-63.77-212.54-111.32-334.76-120.82-119.25-9.27-238.4,13.81-352.1,48.27-126.07,38.21-247.45,90.29-369.07,140.46-45.49,18.77-88.5,37.76-137.88,42.63-40.42,3.99-81.3,1.77-121.58-2.7-81.74-9.09-161.68-29.16-243.15-39.82-41.46-5.42-111.42-16.43-140.22,24.19-6.07,8.56-9.16,18.55-10.68,28.84-.12.79,1.09,1.13,1.21.33,9.04-61.38,80.28-59.25,128.06-54.61,79.99,7.77,158.34,28.13,237.93,38.98,74.64,10.18,155.56,16.11,227.12-12.24,123.69-49,245.05-103.7,371.19-146.4,116.29-39.37,237.88-69.79,361.42-68.73,60.69.52,121.24,8.96,179.44,26.33,61.61,18.38,119.36,47.03,174.63,79.57,113.95,67.09,220.74,145.95,332.81,216.11,107.66,67.4,219.17,127.83,338.85,171.14,115.18,41.69,236.48,67.39,359.24,68.53,122.33,1.13,243.6-22.59,357.7-66.31,29.29-11.22,58.04-23.75,86.36-37.22.73-.35.09-1.42-.63-1.08h0Z" fill="#ccc"/><path d="m2959.38,1222.78c-117.11,57.44-242.89,96.75-373.23,107.67-123.97,10.38-248.69-4.97-367.92-39.7-125.36-36.52-243-93.09-354.77-160-113.85-68.15-221.25-145.9-332.77-217.62-101.88-65.52-209.02-118.36-330.55-133.37-118.25-14.61-237.7,3.67-351.79,35.14-126.21,34.82-247.55,85.19-368.3,135.21-46.94,19.44-93.56,43.22-144.15,51.35-41.21,6.63-83.41,5.71-124.87,2.14-81.9-7.07-162.01-26.09-243.45-36.4-42.34-5.36-113.65-16.81-143.99,23.5-6.15,8.17-9.51,17.76-11.3,27.75-.14.79,1.06,1.12,1.21.33,11-61.36,85.71-57.32,133.43-52.67,79.62,7.77,157.72,26.91,237.2,36.02,40.43,4.63,81.39,7.23,122.04,4.07,41.88-3.26,78.71-15.36,117.33-31.32,121.26-50.1,242.15-102.12,367.4-141.65,116.46-36.74,238.42-62.8,361.16-56.43,60.55,3.14,120.58,14.4,177.9,34.23,60.95,21.09,117.9,51.94,172.6,85.8,111.85,69.22,217.81,147.51,329.86,216.51,106.27,65.44,216.91,122.89,335.41,162.86,114.39,38.58,234.51,60.64,355.46,58.64,121.39-2.01,241.1-28.47,353.57-73.73,28.19-11.34,55.87-23.88,83.15-37.26.72-.35.09-1.43-.63-1.08h0Z" fill="#ccc"/><path d="m2951.16,1215.26c-114.93,58.12-238.31,99.36-366.68,113.43-121.33,13.3-244.04,1.9-361.9-29.14-122.7-32.32-238.54-84.72-347.99-148.39-113.57-66.07-220.22-142.48-329.29-215.5-103-68.95-210.49-128.84-334.25-149.38-115.38-19.15-233.22-6.31-346.13,21.32-126.25,30.9-247.59,79.09-367.51,128.55-30.53,12.59-61.01,25.33-91.5,38.03-20.93,8.71-41.47,17.29-63.63,22.33-40.04,9.11-81.64,9.97-122.5,7.78-82.76-4.44-163.81-22.51-245.89-32.61-43.84-5.39-118.18-17.78-150.15,23.29-5.96,7.66-9.43,16.62-11.45,26.05-.17.78,1.04,1.12,1.21.33,13.11-61.23,91.3-55.4,139.08-50.78,80.46,7.78,159.53,26.08,240.12,33.05,39.92,3.45,80.38,4.58,120.2-.65,46.5-6.11,87.65-25.22,130.6-43.11,119.35-49.71,239.2-99.62,363.59-135.51,116.73-33.68,239.09-54.76,360.78-42.54,61.36,6.16,121.72,20.83,178.9,43.96,60.03,24.28,116.02,57.45,170.19,92.67,108.68,70.68,213.14,147.39,324.25,214.4,105.6,63.68,216.09,118.11,334.17,154.51,112.1,34.56,229.42,52.38,346.82,47.34,119.65-5.14,237.11-33.87,347.37-80.17,27.88-11.7,55.24-24.53,82.22-38.18.72-.36.09-1.44-.63-1.08h0Z" fill="#ccc"/><path d="m2942.94,1207.73c-111.24,57.97-230.47,100.77-354.99,118.38-120.35,17.02-242.94,9.82-361.13-18.04-122.89-28.97-239.25-78.83-348.75-141.14-112.49-64.01-217.78-138.93-324.23-212.26-101.41-69.85-206.56-134.03-328.39-160.16-113.46-24.34-230.77-17.05-343.65,6.8-125.45,26.51-246.18,71.85-364.68,120.02-31.48,12.8-62.86,25.87-94.2,39-24.49,10.26-48.77,22.04-74.2,29.82-39.64,12.13-81.69,14.85-122.93,13.99-82.99-1.74-164.48-18.64-246.69-28.24-32.15-3.75-65.28-7.05-97.57-3.02-20.6,2.57-42.66,8.75-56.65,25.13-6.32,7.4-10.21,16.21-12.58,25.58-.2.78,1.01,1.11,1.21.33,15.27-60.57,95.98-53.52,143.8-49.08,80.75,7.5,160.3,24.73,241.38,29.45,39.29,2.29,79.12,1.97,117.95-5.13,50.33-9.2,96.92-33.66,143.81-53.16,118.74-49.38,238.79-97.49,363.5-129.77,118.26-30.61,242.02-46.29,363.55-27.46,125.3,19.42,234.43,78.22,338.33,148.29,106.76,72,210.58,147.93,321.57,213.51,104.07,61.49,213.4,112.87,329.93,145.92,111.56,31.64,227.9,45.93,343.74,37.91,115.98-8.04,229.41-38.18,335.98-84.21,29.37-12.69,58.17-26.59,86.54-41.38.71-.37.08-1.45-.63-1.08h0Z" fill="#ccc"/><path d="m2934.72,1200.21c-109.98,59.06-227.79,103.84-351.26,124.26-118.73,19.63-240.29,15.77-357.91-9.26-248.33-52.85-457.01-195.58-660.96-339.6-100.48-70.95-203.79-139.62-324.08-171.42-111.77-29.54-228.67-27.94-341.93-8.01-123.82,21.79-243.33,63.68-359.91,109.86-61.17,24.23-121.28,50.99-182.28,75.6-37.88,15.28-78.96,20.59-119.56,21.57-83.62,2.02-166.25-13.62-249.04-22.86-33.5-3.74-67.87-7.17-101.54-3.55-21.42,2.3-44.75,7.87-60.07,24.14-6.74,7.16-11.13,15.83-13.89,25.21-.23.77.98,1.1,1.21.33,17.86-60.74,103.23-51.6,151.74-47.19,81.6,7.42,162.31,23.57,244.43,25.2,38.64.77,77.86-1.46,115.39-11.24,21.08-5.49,40.71-14.24,60.71-22.72,33.08-14.02,66.19-27.96,99.43-41.59,116.62-47.82,235.33-92.72,358.54-120.47,117.56-26.48,240.19-36.1,359-11.84,123.25,25.17,229.57,88.33,331.64,159.3,202.92,141.1,404.26,287.93,647.5,350.3,110.18,28.25,224.62,38.69,337.96,27.79,114.22-10.98,225.5-43.32,329.95-90.38,29.03-13.08,57.51-27.31,85.55-42.37.71-.38.08-1.46-.63-1.08h0Z" fill="#ccc"/><path d="m2926.5,1192.68c-107.95,59.72-223.46,106.32-344.91,129.66-116.17,22.32-235.65,22.41-351.96,1.03-249.43-45.85-459.74-186.48-661.91-331.94-98.12-70.6-198.34-140.93-315-177.1-109.25-33.87-224.78-37.84-337.56-22.07-123.12,17.21-242.35,55.81-358.1,100.15-58.93,22.57-117.18,46.87-175.22,71.64-44.33,18.92-85.36,33.28-133.74,37-84.58,6.51-169.04-7.95-252.91-16.61-34.77-3.59-70.33-7.03-105.25-3.59-21.93,2.16-45.89,7.25-62.34,23.03-7.19,6.9-12.1,15.43-15.3,24.82-.26.76.95,1.09,1.21.33,20.51-60.25,109.25-49.77,158.4-45.56,82.97,7.11,165.49,22.24,249.05,20.18,37.96-.94,76.45-5.38,112.42-18.07,57.84-20.4,113.58-48.1,170.54-70.97,115.63-46.41,234.01-88.53,356.66-112.03,117-22.41,238.31-26.4,354.58,2.56,121.97,30.37,226.41,97.7,327.54,169.88,198.37,141.59,399.54,284.25,640.97,340.08,109.64,25.35,223.14,32.31,334.9,18.45,112.48-13.95,221.56-48.36,323.98-96.43,28.69-13.47,56.84-28.02,84.57-43.36.7-.39.07-1.47-.63-1.08h0Z" fill="#ccc"/><path d="m2918.28,1185.16c-106.74,60.83-220.86,109.42-341.22,135.53-113.68,24.66-231.18,28.29-346.11,10.18-118.97-18.75-233.02-59.48-339.42-115.45-111.29-58.55-214.65-130.43-315.97-204.56-97.33-71.21-195.7-144.33-310.36-185.21-107.85-38.45-223.18-47.74-336.62-35.79-119.77,12.62-236.34,46.78-349.13,87.97-58.38,21.32-115.98,44.71-173.19,68.95-47.67,20.19-93.28,42.96-144.98,50.41-85.64,12.34-172.85-.9-258.26-8.84-35.66-3.31-71.93-6.59-107.72-3.57-22.96,1.94-48.2,6.51-66.17,22.08-7.68,6.66-13.13,14.98-16.83,24.4-.29.75.91,1.07,1.21.33,23.58-60.14,116.97-47.95,167.31-43.93,83.67,6.68,167.57,20.35,251.71,13.9,38.05-2.92,74.75-10.81,109.83-25.99,61.14-26.45,122.44-52.54,184.56-76.62,113.29-43.92,229.84-82.21,350.18-101.08,116.76-18.31,237.03-16.61,350.97,16.99,120.18,35.44,222.62,106.37,322.73,179.41,194.15,141.66,395.09,280.32,634.63,329.59,106.6,21.92,216.43,25.73,324.19,10.26,113.41-16.29,222.97-53.33,325.73-103.52,28.35-13.85,56.17-28.73,83.58-44.36.7-.4.07-1.48-.63-1.08h0Z" fill="#ccc"/><path d="m2910.06,1177.63c-203.75,119.59-435.05,191.14-672.75,161.27-118.85-14.93-233.4-52.57-339.96-106.86-111.13-56.63-214.17-127.53-314.17-201.7-96.68-71.7-193.28-147.12-305.86-192.45-105.67-42.55-219.86-57.29-333.18-49.6-117.29,7.95-232.13,37.79-342.95,75.93-59.68,20.54-118.47,43.63-176.7,67.96-48.99,20.47-97.44,47.23-149.46,59.02-84.88,19.24-174.08,8.08-259.76,1.12-37.16-3.02-74.74-6.23-112.03-3.79-24.8,1.63-52.32,5.55-72.48,21.34-8.12,6.36-14.18,14.41-18.4,23.79-.33.73.75,1.36,1.08.63,11.65-25.9,37.68-36.93,64.21-41.58,35.19-6.17,71.81-3.87,107.24-1.45,84.37,5.75,169.66,18.02,254.16,7.42,42.86-5.38,80.01-19.89,119.34-36.96,60.28-26.17,120.98-51.46,182.54-74.5,113.7-42.56,231.19-78.21,352.05-92.83,114.82-13.89,232.15-7.13,342.38,29.44,118.48,39.3,219.3,112.59,318.48,186.27,191.15,142,391.98,278.36,630.6,321.93,221.91,40.52,444.35-6.68,643.64-107.96,28.01-14.24,55.5-29.45,82.6-45.35.69-.41.07-1.49-.63-1.08h0Z" fill="#ccc"/><path d="m2901.84,1170.11c-199.93,120.85-427.31,198.93-663.35,175.93-116.88-11.39-230.17-45.78-335.37-97.55-110.98-54.61-213.72-124.58-312.51-198.6-96.95-72.65-192.63-150.54-304.17-200.02-102.66-45.55-214.44-65.15-326.47-61.96-115.41,3.28-229.18,28.97-338.76,64.15-59.47,19.09-117.98,41.08-175.81,64.63-27.78,11.31-55.4,23-82.91,34.94-25.72,11.16-51.07,24.08-77.89,32.43-83.49,26.01-174.6,17.16-260.42,11.55-38.6-2.52-77.54-5.47-116.22-3.09-25.61,1.58-53.89,5.19-75.4,20.38-8.63,6.09-15.36,13.96-20.18,23.33-.37.71.71,1.35,1.08.63,13.44-26.12,41.7-36.13,69.11-40.44,36.29-5.71,73.76-3.58,110.27-1.51,84.35,4.78,170.6,15.06,254.43-.45,47.91-8.87,90.74-31.04,135.19-50.09,58.91-25.25,118.4-49.25,178.8-70.7,113.15-40.18,230.43-72.11,350.48-81.86,115.42-9.37,232.19,3.57,340.62,45.27,114.49,44.03,212.16,119.23,309.19,192.47,187.47,141.5,387.97,274.11,624.58,311.09,220.52,34.47,439.54-19.93,634.75-123.1,27.67-14.62,54.83-30.17,81.61-46.35.69-.42.06-1.5-.63-1.08h0Z" fill="#ccc"/><path d="m2893.62,1162.58c-196.1,122.05-419.79,206.82-654,190.49-115.83-8.08-228.61-39.57-333.26-89.49-109.88-52.42-211.56-120.91-308.52-194.13-97.25-73.44-192.03-153.44-302.39-206.9-99.15-48.03-207.93-72.36-317.96-73.83-237.77-3.19-462.54,89.38-676.43,183.08-83.29,36.49-178.7,30.81-267.43,26.7-39.57-1.83-79.38-4.37-118.99-2.15-27.04,1.52-56.78,4.75-80.16,19.61-9.17,5.83-16.64,13.48-22.14,22.84-.41.69.67,1.32,1.08.63,15.43-26.24,46-35.31,74.42-39.32,37.43-5.28,75.8-3.45,113.42-1.85,85.45,3.64,174.36,11.89,258.06-10.47,20.48-5.47,39.47-13.66,58.77-22.28,30.76-13.75,61.66-27.18,92.76-40.14,56.47-23.54,113.62-45.54,171.68-64.86,111.33-37.04,226.92-64.62,344.5-69.76,117.19-5.13,234.51,13.9,342.21,61.09,110.29,48.32,204.81,124.65,299.75,197.24,182.7,139.69,381.21,267.92,613.7,299.42,221.73,30.04,440.03-32.14,633.44-138.86,26.46-14.6,52.45-30,78.11-45.97.68-.42.05-1.51-.63-1.08h0Z" fill="#ccc"/><path d="m2885.4,1155.06c-193.21,123.8-413.97,215.12-647.25,204.84-114.79-5.06-226.98-34.09-331.02-82.44-109.66-50.96-210.9-118.9-306.9-191.99-95.23-72.51-187.17-152.01-293.49-208.25-98.13-51.91-206.55-81.07-317.37-86.6-233.13-11.63-460.78,72.28-670.21,166.02-23.24,10.4-46.03,21.34-70.63,28.24-22.46,6.3-45.56,10.21-68.73,12.69-45.24,4.84-90.85,4.38-136.27,3.3-40.86-.97-81.87-3-122.72-.73-28.36,1.58-59.28,4.61-84.4,19.03-9.68,5.56-17.83,12.92-24.06,22.2-.45.67.63,1.3,1.08.63,17.48-26.02,49.96-34.24,79.32-38.09,38.88-5.1,78.53-3.65,117.62-2.65,85.3,2.17,175.72,7.68,257.57-21.19,24.23-8.55,47.31-20.41,70.79-30.77,30.41-13.42,61.01-26.43,91.83-38.88,54.99-22.22,110.72-42.71,167.37-60.32,110.52-34.37,225.35-58.22,341.45-59.24,116.08-1.02,231.32,22.39,336.38,72.22,110.19,52.26,204.53,131.44,300.41,205.49,179.66,138.76,377.7,263.47,608.16,288.49,220.28,23.9,435.09-45.38,624.56-153.97,26.12-14.97,51.8-30.69,77.15-46.93.68-.43.05-1.52-.63-1.08h0Z" fill="#ccc"/><path d="m2877.18,1147.53c-190.37,125.57-408.21,223.47-640.5,219.22-113.73-2.08-225.31-28.62-328.81-75.44-109.45-49.51-210.27-116.92-305.36-189.85-94.74-72.65-185.36-152.74-289.76-211.65-96.13-54.24-202.81-87.17-312.78-96.52-228.68-19.44-454.52,56.58-660.96,147.39-47.37,20.84-92.16,43.25-143.55,52.27-46.68,8.19-94.29,9.48-141.57,9.62-42.15.12-84.4-1.24-126.51,1.2-29.79,1.73-61.95,4.65-88.88,18.61-10.25,5.31-19.11,12.36-26.15,21.52-.49.64.6,1.26,1.08.63,20.04-26.08,55.28-33.45,86.19-37.14,39.84-4.76,80.27-3.84,120.32-3.65,84.75.4,175.63,2.32,254.77-32.65,214.08-94.6,437.41-185.38,675.95-179.27,115.29,2.95,228.73,30.57,331.58,83.01,108.27,55.2,201.15,135.39,296.42,209.71,177.47,138.45,375.3,261.41,604.7,280.71,219.66,18.49,431.85-57.84,618.26-168.76,25.79-15.34,51.15-31.38,76.19-47.9.67-.44.04-1.52-.63-1.08h0Z" fill="#ccc"/><path d="m2868.96,1140c-186.95,126.94-400.87,231.05-631.22,233.61-112.61,1.25-223.58-22.44-326.69-67.39-108.4-47.25-208.12-113.36-301.66-185.17-94.63-72.65-184-153.35-286.27-215.48-94.4-57.36-199.73-94.72-309.4-108.37-224.25-27.92-448.51,39.51-652.67,126.79-50.04,21.39-98.76,49.1-151.75,62.49-45.75,11.56-93.17,15.15-140.19,16.88-44.26,1.62-88.61,1.08-132.83,3.77-31.55,1.92-65.13,4.76-94.28,17.97-11.26,5.1-21.36,11.95-29.56,21.25-.53.6.35,1.49.88.88,21.86-24.81,57.28-31.87,88.62-35.79,40.99-5.12,82.55-4.89,123.78-5.69,44.49-.86,89.11-2.17,133.24-8.34,45.86-6.42,86.93-20.2,128.8-39.48,209.13-96.28,438.21-177.89,671.91-164.38,115.05,6.65,227.33,38.26,328.58,93.39,106.44,57.96,198.03,139.03,292.79,213.63,175.4,138.09,373.04,259.39,601.34,272.96,219.04,13.02,428.53-70.31,611.96-183.58,25.45-15.72,50.49-32.07,75.24-48.87.66-.45.04-1.53-.63-1.08h0Z" fill="#ccc"/><path d="m2860.74,1132.48c-184.33,128.82-395.19,239.33-624.46,248-109.7,4.15-218.57-16.22-319.79-58.46-111.75-46.64-214.04-114.42-309.41-188.39-92.7-71.9-179.95-151.59-279.01-214.95-93.97-60.1-199.08-101.05-309.46-117.9-220.12-33.61-442.33,26.41-644.39,110.6-26.27,10.95-52.35,22.38-78.24,34.19-24.74,11.29-48.98,24-74.8,32.71-45.26,15.28-93.15,21.37-140.59,24.89-45.5,3.38-91.16,3.95-136.67,7.17-33.61,2.38-69.19,5.35-100.57,18.58-11.46,4.83-22,11.24-30.87,19.99-.57.57.31,1.45.88.88,24.54-24.2,61.81-30.75,94.68-34.83,42.51-5.27,85.5-5.85,128.24-7.91,45.17-2.18,90.53-5.32,134.94-14.28,48.63-9.81,90.89-30.58,135.79-50.84,206.5-93.19,433.79-166.94,663.18-145.82,114.21,10.52,224.78,45.95,324.04,103.4,104.57,60.53,194.91,142.29,289.16,217.09,173.47,137.66,370.92,257.42,598.08,265.23,218.39,7.51,425.13-82.79,605.65-198.43,25.11-16.09,49.83-32.77,74.28-49.85.65-.46.03-1.54-.63-1.08h0Z" fill="#ccc"/><path d="m2852.52,1124.95c-182.44,131.23-391.08,248.46-620.15,262.59-107.72,6.64-215.21-11.25-315.18-51.78-112.44-45.58-215-113.44-310.27-187.86-93.03-72.66-180.05-153.5-278.64-218.83-91.76-60.8-194.33-103.95-302.74-123.89-215.85-39.69-436.14,12.49-636.42,93.11-53.57,21.56-105.05,47.43-158.04,70.2-44.79,19.25-93.41,28.1-141.61,33.65-45.53,5.24-91.34,7.21-136.99,11.05-35.68,3-73,6.26-106.71,19.16-12.08,4.62-23.44,10.71-33.31,19.12-.61.52.27,1.4.88.88,27.65-23.57,67.06-29.73,101.94-34.12,42.96-5.41,86.31-7.06,129.45-10.55,46.18-3.74,92.57-8.98,137.41-21.06,49.3-13.28,94.14-38.49,140.65-58.99,204.25-90.05,429.72-156.25,654.93-128.51,114.26,14.07,224.03,53.2,322.14,113.31,102.74,62.94,191.94,145.23,285.73,220.21,170.91,136.61,367.46,254.78,592.44,257.51,218.63,2.65,423.41-94.77,601.8-213.28,24.77-16.46,49.18-33.46,73.32-50.82.65-.47.02-1.55-.63-1.08h0Z" fill="#ccc"/><path d="m2844.3,1117.43c-179.99,133.24-385.41,256.78-613.34,277.11-106.63,9.51-213.44-5.99-313.08-45.05-112.24-44-214.39-111.44-308.88-185.53-92.8-72.77-179.03-154.08-276.13-221.32-90.2-62.46-190.88-108.6-298.26-132.01-211.48-46.1-429.84-2.32-628.73,74.2-53.32,20.51-105.68,43.46-157.2,68.14-45.65,21.87-91.37,36.92-141.31,45.54-47.6,8.22-95.77,11.98-143.78,16.87-37.58,3.83-76.24,7.56-112.3,19.45-13.76,4.54-26.98,10.52-38.72,19.1-.64.47-.02,1.56.63,1.08,28.62-20.93,65.99-27.43,100.3-32.42,45.68-6.65,91.84-9.52,137.68-14.88,45.72-5.35,91.62-12.59,135.46-27.02,50.44-16.6,97.42-43.66,146.12-64.67,204.48-88.18,430.82-148.07,654.46-112.99,111.57,17.5,218.1,58.95,313.28,119.57,101.34,64.54,189.58,147.19,282.77,222.46,169.73,137.08,366.48,255.7,591.4,253.51,217.85-2.12,419.91-106.01,595.55-226.66,25.23-17.33,50.09-35.2,74.7-53.41.64-.47.02-1.56-.63-1.08h0Z" fill="#ccc"/><path d="m2836.08,1109.9c-177.33,135.09-378.99,264.59-605.24,291.52-105.47,12.55-211.66-.28-311.05-37.73-110.82-41.77-211.58-107.66-304.46-180.29-92.81-72.57-178.25-154.33-273.59-223.7-90.03-65.51-190.19-115.7-298.4-142.98-208.02-52.43-425.42-16.49-623.88,56.34-52.72,19.35-104.47,41.29-155.31,65.13-47.85,22.44-93.46,43.97-145.26,55.88-48.7,11.2-98.39,17.06-147.9,23.35-39.09,4.97-78.91,9.49-116.75,20.95-14.56,4.41-28.7,10.06-41.66,18.11-.68.42-.05,1.51.63,1.08,31.5-19.58,70.07-26.15,106.14-31.79,46.09-7.2,92.58-11.62,138.66-18.88,47.41-7.47,94.92-17.52,139.45-35.86,52.3-21.53,102.26-48.69,154.61-70.34,202.35-83.68,425.98-134.65,644.46-93.04,110.62,21.07,215.5,65.66,308.98,128.22,101.25,67.76,189.75,152.38,284.28,228.79,88.79,71.78,184.27,137.54,289.12,183.64,93.76,41.22,193.93,62.62,296.51,58.72,216.75-8.25,415.4-118.94,588.01-241.94,24.73-17.62,49.12-35.72,73.27-54.12.63-.48,0-1.57-.63-1.08h0Z" fill="#ccc"/><path d="m2827.73,1102.48c-174.96,137.17-373.46,273.08-598.43,306-106.07,15.52-213.07,4.54-313.57-32.82-110.53-41.09-210.8-107.02-302.93-179.74-92.28-72.83-177.03-154.87-271.21-225.34-88.86-66.49-187.52-118.65-294.68-148.53-204.16-56.93-419.54-28.26-616.95,40.76-52.14,18.23-103.3,39.2-153.5,62.21s-96.03,48.35-148.17,63.48c-88.72,25.74-182.13,28.58-270.85,53.45-15.45,4.33-30.59,9.68-44.85,17.11-.71.37-.08,1.45.63,1.08,34.54-18,74.34-24.9,112.35-31.43,47.19-8.11,94.69-14.39,141.62-24.04,47-9.66,93.75-22.49,137.06-43.49,53.28-25.84,106.51-51.22,161.58-73.09,201.87-80.17,424.54-123.28,639.65-75.15,109.62,24.53,212.75,72.09,304.66,136.39,99.72,69.76,187.38,154.87,281.71,231.42,88.79,72.05,184.63,137.93,290.24,182.83,93.51,39.76,193.29,58.72,294.88,51.8,217.03-14.79,413.23-133.63,583.76-260.14,22.87-16.97,45.47-34.31,67.88-51.88.63-.5-.26-1.37-.88-.88h0Z" fill="#ccc"/><path d="m2819.51,1094.95c-172.94,139.52-367.79,281.09-591.56,320.58-104.82,18.5-211.32,9.87-311.54-26.11-111.23-39.93-211.85-106.14-303.94-179.23-91.92-72.96-176.01-155.28-268.95-227-87.69-67.67-184.78-122.08-290.9-154.8-201.12-62.01-415.29-40.67-612.69,24.68-50.73,16.8-100.53,36.38-149.35,58.09-51.12,22.73-100.01,51.22-152.78,69.99-89.89,31.97-185.08,40.27-276.91,64.35-16.45,4.31-32.68,9.38-48.31,16.1-.74.32-.1,1.39.63,1.08,37.7-16.19,78.87-23.7,118.95-31.42,48.3-9.31,96.79-17.83,144.42-30.22,48.95-12.73,94.2-30.87,139.39-53.34,52.37-26.05,105.88-49.86,160.54-70.7,201.52-76.83,423.22-112.54,635.16-58.81,108.65,27.55,210.13,77.57,300.72,143.24,98.37,71.3,185.27,156.82,279.24,233.57,87.49,71.46,182.13,136.77,286.6,180.84,94.56,39.89,195.45,57.72,297.87,47.99,216.3-20.55,409.3-146.11,577.32-275.19,22.54-17.32,44.83-34.97,66.95-52.82.63-.51-.26-1.38-.88-.88h0Z" fill="#ccc"/><path d="m2811.29,1087.43c-91.31,75.81-185.46,148.95-287.06,210.58-91.77,55.67-190.78,102.42-296.38,124.37-102.71,21.35-207.78,15.85-307.18-18.01-109.89-37.43-209.24-101.89-299.99-173.22-93.48-73.46-178-157.51-270.87-231.7-85.32-68.15-178.95-124.8-282.29-161.05-196.44-68.91-408.67-57.73-605.92,1.78-51.05,15.4-101.17,33.83-150.27,54.61-51.42,21.76-100.25,48.47-151,71.51-92.49,42-193.18,57.69-291.1,81.65-19.03,4.66-37.96,9.76-56.48,16.15-.76.26-.43,1.47.33,1.21,89.21-30.78,184.41-40.98,274.34-69.89,50.15-16.12,95.68-39.53,142.91-62.45,51.76-25.12,104.71-47.83,158.82-67.42,201.57-72.96,422.16-100.64,630.85-40.97,108.57,31.04,209.03,84.42,298.91,152.38,96.79,73.19,182.8,159.25,276.81,235.8,86.22,70.21,179.54,134.38,282.72,177.01,94.99,39.24,196.17,55.09,298.4,42.37,213.27-26.54,401.29-156.78,565.46-287,23.53-18.66,46.79-37.65,69.89-56.83.62-.51-.27-1.39-.88-.88h0Z" fill="#ccc"/><path d="m2803.07,1079.9c-90.37,77.21-183.12,152.37-283.3,216.62-90.47,58.02-188.13,107.92-293.21,132.95-102.35,24.38-207.56,21.01-307.55-12.12-109.68-36.34-208.67-100.7-298.76-171.9-93.09-73.57-177.14-157.7-268.8-232.98-84.35-69.27-176.61-127.66-278.98-166.46-193.51-73.35-404.51-69.57-602.02-14.11-103.55,29.08-202.53,71.4-297.78,121.04-93.7,48.84-196.91,73.92-299,98.5-20.36,4.9-40.71,9.83-60.94,15.24-.78.21-.45,1.41.33,1.21,95.26-25.47,192.2-44.04,284.48-79.74,49.75-19.25,95.96-45.53,144.1-68.3,51.93-24.57,105.13-46.5,159.51-65.06,200.14-68.3,417.89-88.11,621.96-24.49,110.2,34.35,211.4,91.25,301.89,162.49,94.51,74.41,179.48,159.96,272.58,236.04,84.97,69.43,177.21,132.86,279.32,174.31,93.25,37.85,192.42,52.53,292.34,38.48,215.21-30.25,402.37-168.7,565.81-302.98,23.17-19.04,46.11-38.36,68.91-57.84.61-.52-.28-1.4-.88-.88h0Z" fill="#ccc"/><path d="m2794.85,1072.38c-89.6,78.78-181.13,156.05-280.04,223.02-88.64,60.03-184.45,112.76-288.33,140.86-101.46,27.44-206.44,26.83-306.78-5.15-109.51-34.9-208.18-98.78-297.7-169.64-92.51-73.22-175.73-157.2-265.77-233.29-83.11-70.24-173.35-130.85-274.22-172.61-191.11-79.1-401.78-83.37-600.66-32.15-103.18,26.58-202.59,66.75-297.17,115.61-50.97,26.33-101.83,51.06-155.84,70.74-49,17.85-99.1,32.73-149.77,45.05-21.83,5.31-43.78,10.11-65.84,14.42-.79.15-.45,1.36.33,1.21,100.24-19.61,199.52-48.72,292.75-90.72,50.52-22.76,98.54-50.63,148.95-73.69,50.64-23.17,102.55-43.64,155.57-60.71,201.97-65.05,420.5-77.15,622.87-6.96,108.94,37.78,208,97.36,297.17,169.98,91.91,74.86,175.31,159.5,266.87,234.76,85.02,69.88,177.61,133.71,280.45,174.33,93.58,36.97,192.91,49.57,292.35,32.6,101.47-17.32,196.69-61.21,284.18-114.23,97.51-59.09,187.29-130.24,273.98-204.02,22.68-19.3,45.16-38.85,67.52-58.52.61-.53-.28-1.41-.88-.88h0Z" fill="#ccc"/><path d="m2786.63,1064.85c-88.68,80.25-178.8,159.51-276.22,229.11-87.97,62.85-183.21,119.04-287.4,150.08-99.09,29.52-202.32,31.27-301.49,1.19-109.97-33.36-208.92-97.18-298.28-168.09-92.12-73.1-174.75-157.09-263.53-234.05-83.88-72.71-174.56-136.35-276.63-180.97-184.83-80.79-390.02-92.51-585.66-47.85-102.55,23.41-201.57,60.96-295.61,107.85-51.39,25.63-101.13,54.09-153.65,77.48-51.61,22.98-104.82,43.01-159.54,57.24-24.93,6.48-50.16,11.64-75.71,14.94-.79.1-.8,1.35,0,1.25,104.56-13.51,205.68-55.04,299.09-102.45,50.07-25.41,98.87-52.73,150.23-75.59,50.67-22.55,102.65-42.22,155.73-58.3,201.39-61.01,417.98-66.43,616.86,7.29,108.42,40.19,206.53,101.63,295.14,175.44,91.56,76.27,174.9,161.85,266.74,237.8,84.31,69.73,176.33,133.38,278.77,173.34,92.78,36.2,191.26,47.69,289.37,29.01,101.94-19.41,196.76-66.46,283.56-122.03,97.1-62.17,186.21-136.17,272.58-212.28,22.33-19.67,44.47-39.56,66.54-59.52.6-.54-.29-1.42-.88-.88h0Z" fill="#ccc"/><path d="m2778.4,1057.33c-87.92,81.88-176.78,163.3-272.88,235.59-85.59,64.38-178.22,122.96-280.33,157.2s-202.53,37.98-303,8.86c-108.93-31.57-206.96-94.31-295.19-164.15-92.77-73.44-175.57-158.23-263.95-236.69-83.07-73.74-172.34-139.38-273.29-186.64-182.86-85.61-387.78-104.38-584.81-63.84-101.51,20.89-199.75,56.26-292.91,101.43-105.29,51.06-203.58,118.26-317.22,150.51-26.79,7.61-54.13,12.85-81.94,14.73-.8.05-.8,1.3,0,1.25,111.47-7.53,215.03-65.69,310.78-118.61,97.09-53.66,197.8-99.43,304.85-129.44,202.05-56.63,417.56-54.09,613.49,24.55,107.39,43.1,203.9,106.93,291.55,181.96,90.39,77.38,173.2,163.24,264.85,239.2,84.42,69.97,176.88,133.77,280.12,172.49,92.51,34.7,190.47,43.76,287.17,22.28,101.79-22.61,195.5-73.12,281.06-131.42,95.17-64.84,182.41-140.71,267.36-218.22,21.84-19.93,43.53-40.03,65.17-60.18.59-.55-.3-1.43-.88-.88h0Z" fill="#ccc"/><path d="m2770.18,1049.8c-85.45,81.91-171.31,163.81-263.93,237.68-86.3,68.82-179.93,132.6-284.31,170.52-97.72,35.5-200.83,42.39-301.32,14.09-110.5-31.12-209.59-95.19-298.4-166.35-93.58-74.98-176.91-161.5-266.01-241.53-83.41-74.93-173.27-141.64-274.77-190.13-182.19-87.05-387.14-108.8-584.65-69.61-100.89,20.02-198.58,54.73-291,99.65-51.48,25.02-100.59,54.03-149.96,82.9-51.2,29.93-103.65,59.82-160.76,76.96-26.74,8.03-54.22,12.66-82.16,12.92-.8,0-.81,1.26,0,1.25,112.52-1.07,210.58-71.84,304.37-125.65,95.06-54.54,196.04-99.12,301.81-128.3,203.08-56.03,419.4-50.46,615.17,30.26,107.82,44.46,204.73,109.41,292.65,185.55,91.15,78.94,174.49,166.47,266.88,244.02,84.42,70.85,177.15,135.61,281.03,174.37,93.25,34.79,191.99,42.81,288.86,18.78s193.17-78.21,277.1-138.45c94.32-67.69,180.56-146.06,264.86-225.66,21.91-20.69,43.69-41.52,65.44-62.37.58-.56-.3-1.44-.88-.88h0Z" fill="#ccc"/><path d="m2770.52,1065.05c-83.69,80.79-168,161.35-258.86,234.13-85.48,68.48-178.04,131.9-281.18,170.6-94.73,35.54-195.73,45.11-294.35,20.27-106.9-26.93-203.41-86.1-289.94-152.85-93.48-72.11-176.16-156.55-262.69-236.55-83.63-77.33-172.16-148.5-273.48-201.49-180.82-94.57-386.38-124.4-587.19-90.44-110.83,18.74-218.29,55.05-319.45,103.76-53,25.52-103.47,55.36-154.28,84.89-49.73,28.9-100.68,57.65-155.91,74.67-26.66,8.22-54.04,13.23-81.96,13.96-.8.02-.81,1.27,0,1.25,110.47-2.89,206.94-71.25,299.34-124.27,103.32-59.29,213.64-106.62,329.35-135.58,209.97-52.55,430.95-38.89,628.31,52.55,105.94,49.08,199.68,117.99,286.17,195.83,87.68,78.91,169.6,164.24,261.19,238.77,83.23,67.73,174.83,129.04,277.04,163.92,91.52,31.23,188.04,35.45,281.6,10.68,98.95-26.2,189.22-78.79,271.68-138.25,93.24-67.24,178.58-144.88,261.85-223.91,21.32-20.24,42.51-40.62,63.66-61.04.58-.56-.3-1.44-.88-.88h0Z" fill="#ccc"/><path d="m2770.87,1080.29c-83.78,81.45-168.49,162.4-259.94,235.29-85.86,68.43-178.99,131.56-282.66,169.61-95.22,34.95-196.27,43.57-294.88,17.79-107.36-28.07-204.12-88.27-290.85-155.97-92.36-72.09-174.19-156.14-259.97-235.65-83.83-77.7-172.77-149.07-274.38-202.33-180.73-94.73-385.82-124.59-586.65-91-110.91,18.55-218.58,54.23-320,102.56-53.08,25.3-103.62,54.94-154.44,84.41s-100.66,57.63-155.76,75.11c-26.58,8.44-53.87,13.79-81.76,14.99-.8.03-.81,1.28,0,1.25,110.27-4.72,206.35-72.75,298.97-125.59,103.51-59.04,214.16-105.73,330-134.28,210.1-51.77,430.4-38.41,627.72,53.23,106.27,49.36,200.49,118.54,287.23,196.74,87.62,78.99,169.31,164.54,260.62,239.41,82.91,67.97,174.1,129.56,275.92,165.18,91.43,31.99,187.75,37.22,281.7,13.13,99.38-25.49,190.21-77.66,273.08-136.95,93.85-67.14,179.63-144.99,263.07-224.47,21.41-20.39,42.66-40.95,63.86-61.56.58-.56-.31-1.45-.88-.88h0Z" fill="#ccc"/><path d="m2771.21,1095.54c-84.06,82.3-169.33,163.84-261.59,237.01-85.18,67.56-177.63,129.63-280.34,167.1-95.77,34.93-197.38,43.3-296.39,17-107.06-28.44-203.38-88.81-289.83-156.54-92.22-72.25-173.83-156.51-259.44-236.17-83.37-77.58-171.81-148.92-272.7-202.6-181.72-96.67-388.07-127.53-590.71-93.99-111,18.38-218.85,53.41-320.55,101.35-53.16,25.06-103.77,54.52-154.6,83.92-49.83,28.82-100.65,57.6-155.6,75.55-26.5,8.65-53.71,14.36-81.56,16.02-.8.05-.8,1.3,0,1.25,110.04-6.55,205.75-74.25,298.61-126.9,104.47-59.23,216.32-105.53,333.22-133.6,209.43-50.3,428.16-36.95,624.55,54.54,107.44,50.05,202.73,120.19,290.31,199.48,88.13,79.79,170.27,166.19,262.25,241.7,82,67.32,172.22,128.33,272.85,163.91,91.84,32.48,188.62,38,283.15,13.92,99.22-25.27,190.01-77.08,272.81-136.12,93.84-66.92,179.57-144.63,262.75-224.18,21.37-20.44,42.57-41.06,63.7-61.75.58-.56-.31-1.45-.88-.88h0Z" fill="#ccc"/><path d="m2771.55,1110.78c-83.09,81.91-167.61,162.85-259.08,235.45-85.07,67.52-177.44,129.56-280,167.12-94.58,34.64-195.2,43.88-293.3,18.76-106.77-27.34-203.03-86.82-289.24-153.95-92.4-71.94-174.03-156.04-259.24-236.04-83.68-78.56-172.14-151.31-273.29-206.44-180.62-98.44-385.95-131.95-588.9-100.57-112.17,17.34-221.48,51.35-324.51,98.8-54.18,24.95-105.76,54.41-157.35,84.22-50.68,29.28-102.15,58.77-157.79,77.65-26.81,9.1-54.35,15.31-82.61,17.47-.8.06-.8,1.31,0,1.25,111.56-8.54,208.09-77.74,302.78-130.76,104.6-58.57,216.87-103.62,333.73-130.78,104.05-24.18,211.47-34.44,318.07-25.16,108.25,9.42,214.02,39.21,311.87,86.33,107.03,51.55,201.71,122.86,289.04,202.81,87.02,79.65,168.52,165.4,259.91,240.2,81.76,66.92,171.78,127.56,272.18,162.54,91.72,31.95,188.16,36.78,282.31,12.58,99.06-25.45,189.74-77.26,272.45-136.26,93.01-66.35,178.03-143.38,260.32-222.41,21.33-20.49,42.48-41.17,63.54-61.93.57-.57-.31-1.45-.88-.88h0Z" fill="#ccc"/><path d="m2771.89,1126.02c-82.75,82.14-167.17,163.09-258.65,235.56-85.58,67.8-178.63,129.87-281.93,167.09-94.54,34.06-194.94,42.6-292.68,17.17-106.46-27.69-202.34-87.38-288.23-154.57-92.21-72.14-173.66-156.38-258.68-236.55-84.47-79.64-173.89-153.26-276.13-209.12-180.57-98.66-385.42-132.11-588.43-101.15-112.24,17.12-221.75,50.57-325.03,97.6-54.26,24.71-105.91,53.98-157.52,83.72s-102.15,58.74-157.64,78.08c-26.73,9.32-54.19,15.87-82.41,18.51-.79.07-.8,1.32,0,1.25,111.3-10.41,207.47-79.21,302.42-132.06,105.58-58.76,219.09-103.38,337.01-130.06,103.11-23.34,209.42-33.4,314.93-24.14,109.16,9.58,215.63,39.86,314.14,87.71,107.27,52.11,202.23,123.99,289.74,204.43,86.85,79.83,168.16,165.76,259.4,240.75,82.1,67.48,172.47,128.6,273.45,163.83,90.65,31.62,186.19,36.57,279.36,13.16,98.92-24.85,189.59-75.98,272.28-134.54,93.83-66.46,179.44-143.96,262.09-223.66,21.3-20.54,42.39-41.28,63.39-62.12.57-.57-.31-1.45-.88-.88h0Z" fill="#ccc"/><path d="m2772.23,1141.27c-82.42,82.36-166.74,163.32-258.21,235.67-85.49,67.61-178.5,129.36-281.69,166.31-94.59,33.88-195.05,42.31-292.76,16.76-107.24-28.04-203.68-88.6-289.97-156.61-92.22-72.69-173.66-157.43-258.83-237.95-84.64-80.02-174.44-153.8-276.97-209.93-180.51-98.82-384.89-132.34-587.96-101.73-112.31,16.93-222.02,49.77-325.55,96.4-54.34,24.48-106.07,53.55-157.7,83.22-50.79,29.18-102.14,58.71-157.48,78.5-26.66,9.53-54.04,16.44-82.2,19.55-.79.09-.8,1.34,0,1.25,111.02-12.27,206.84-80.7,302.06-133.36,105.78-58.51,219.63-102.46,337.67-128.74,103.01-22.94,209.08-33,314.4-23.72,109.18,9.62,215.6,40.02,314.09,87.97,107.59,52.38,203.01,124.51,290.75,205.32,86.96,80.09,168.2,166.43,259.36,241.9,82.5,68.3,173.37,130.3,275.08,166,90.73,31.85,186.43,36.9,279.79,13.6,98.78-24.65,189.4-75.45,272.02-133.79,93.82-66.25,179.37-143.65,261.76-223.43,21.26-20.58,42.3-41.39,63.23-62.3.57-.57-.31-1.45-.88-.88h0Z" fill="#ccc"/><path d="m2772.57,1156.51c-82.71,83.2-167.59,164.78-259.85,237.43-85.39,67.24-178.45,128.41-281.55,164.7-94.53,33.28-194.82,41.08-292.15,15.19-106.92-28.43-202.99-89.18-288.95-157.28-92.76-73.48-174.54-159.13-260.27-240.39-84.56-80.17-174.46-153.88-276.9-210.24-91.42-50.3-190.72-86.06-293.82-102.77-96.76-15.68-195.55-14.61-292.41-.36-113.14,16.65-223.79,49-328.24,95.52-54.42,24.24-106.23,53.12-157.87,82.71-50.84,29.13-102.14,58.68-157.32,78.93-26.58,9.75-53.9,17-82,20.59-.79.1-.8,1.35,0,1.25,110.74-14.14,206.18-82.2,301.7-134.66,106.81-58.67,221.84-102.16,340.96-128,103.1-22.37,209.08-32.08,314.34-22.44,107.66,9.86,212.63,40.12,309.78,87.39,108.37,52.74,204.63,125.29,292.92,206.78,87.55,80.8,169.17,168.05,260.86,244.33,81.58,67.88,171.37,129.62,271.86,165.75,91.03,32.73,187.26,38.71,281.34,15.77,99.47-24.26,190.8-75.03,273.95-133.6,93.8-66.07,179.28-143.36,261.43-223.22,21.22-20.63,42.21-41.5,63.08-62.49.57-.57-.32-1.46-.88-.88h0Z" fill="#ccc"/><path d="m2772.91,1171.76c-82.39,83.42-167.16,165.02-259.42,237.56-85.28,67.06-178.33,127.97-281.31,163.98-95.12,33.26-195.96,40.83-293.73,14.38-107.47-29.07-203.85-90.72-290.03-159.64-92.42-73.9-173.96-159.77-259.58-241.16-84.72-80.53-175.01-154.47-277.74-211.04-92.22-50.78-192.29-86.87-296.36-103.52-96.56-15.44-195.13-14.12-291.75.15-113.33,16.74-224.25,48.68-328.99,95.11-55.26,24.5-107.79,53.84-160.23,83.78-50.8,29.01-102.1,58.3-157.21,78.42-25.05,9.15-50.76,16.05-77.17,19.88-.79.11-.46,1.32.33,1.21,112.18-16.26,208.45-85.81,305.93-138.53,107.22-57.99,222.82-100.28,342.14-125.2,102.86-21.49,208.39-30.66,313.19-20.47,107.8,10.48,212.72,41.54,309.75,89.5,108.52,53.64,204.86,126.95,293.27,209.09,87.29,81.09,168.78,168.47,260.42,244.81,81.31,67.74,170.82,129.35,271.04,165.37,90.78,32.63,186.76,38.53,280.59,15.8,99.33-24.07,190.61-74.53,273.71-132.9,93.78-65.88,179.2-143.09,261.09-223.03,21.18-20.68,42.12-41.61,62.93-62.67.57-.57-.32-1.46-.88-.88h0Z" fill="#ccc"/><path d="m2773.25,1187c-82.68,84.26-168,166.49-261.06,239.33-85.21,66.7-178.28,127.01-281.17,162.4-95.04,32.69-195.79,39.66-293.15,12.83-108.04-29.77-204.65-92.32-291.1-162.04-92.11-74.28-173.38-160.42-258.89-241.92-84.39-80.43-174.48-154.14-276.76-210.84-91.88-50.93-191.55-87.36-295.33-104.4-95.1-15.62-192.23-14.81-287.55-1.49-112.87,15.78-223.65,46.41-328.34,91.47-55.96,24.09-109.2,53.07-162.08,83.2-52.48,29.91-105.22,60.48-161.89,81.89-25.37,9.58-51.4,16.97-78.18,21.33-.79.13-.46,1.33.33,1.21,113.69-18.47,210.72-89.44,310.32-142.36,107.71-57.23,223.79-98.38,343.35-122.4,102.3-20.55,207.02-29.24,311.06-18.63,107.4,10.95,211.77,42.4,308.31,90.53,107.92,53.81,203.98,126.91,291.99,208.84,87.21,81.2,168.47,168.79,259.8,245.52,81.58,68.54,171.4,131.03,272.15,167.7,91.22,33.2,187.65,39.31,282.1,16.64,99.21-23.81,190.44-74.08,273.46-132.21,93.78-65.66,179.12-142.84,260.76-222.86,21.15-20.73,42.03-41.72,62.77-62.85.56-.57-.32-1.46-.88-.88h0Z" fill="#ccc"/><path d="m2773.59,1202.25c-82.35,84.46-167.55,166.8-260.62,239.48-85.76,66.98-179.43,127.39-283.1,162.47-95.8,32.41-197.12,38.42-294.83,10.64-106.81-30.36-202.34-92.8-287.83-162.14-92.61-75.1-174.23-162.14-260.29-244.39-84.95-81.18-175.87-155.33-279.01-212.38-90.73-50.18-189.08-86.26-291.46-103.38-95.04-15.9-192.11-15.39-287.47-2.56-113.57,15.28-225.45,45.71-330.92,90.53-56.05,23.82-109.38,52.58-162.27,82.64-52.55,29.86-105.24,60.43-161.73,82.34-25.3,9.81-51.27,17.53-77.98,22.34-.79.14-.46,1.35.33,1.21,114.28-20.56,211.63-92.04,312.5-144.95,108.83-57.09,226.22-97.24,346.79-120.72,100.65-19.6,203.69-27.49,305.89-16.98,106.71,10.97,210.46,42.22,306.42,89.98,108.72,54.11,205.61,127.63,294.15,210.25,87.8,81.92,169.42,170.42,261.25,247.98,81.25,68.62,170.75,131.33,271.18,168.31,90.13,33.19,185.58,40.09,279.28,18.52,99.9-23,191.89-72.96,275.48-131.12,94.58-65.81,180.52-143.46,262.51-224.16,21.11-20.78,41.95-41.83,62.62-63.03.56-.58-.32-1.46-.88-.88h0Z" fill="#ccc"/><path d="m2773.93,1217.49c-82.04,84.68-167.13,167.05-260.19,239.65-85.66,66.82-179.3,127.01-282.87,161.82-96.38,32.4-198.31,38.21-296.44,9.81-107.37-31.07-203.15-94.4-288.89-164.57-92.27-75.52-173.64-162.8-259.59-245.16-84.87-81.33-175.88-155.43-278.95-212.68-90.94-50.51-189.53-86.92-292.24-104.18-95-15.97-192.01-15.47-287.37-2.8-113.55,15.09-225.56,44.93-331.19,89.3-56.13,23.58-109.54,52.14-162.46,82.12-52.62,29.81-105.26,60.37-161.57,82.8-25.23,10.05-51.14,18.08-77.79,23.35-.79.16-.45,1.36.33,1.21,113.88-22.5,210.96-93.52,312.15-146.21,109.07-56.8,226.78-96.28,347.47-119.38,100.73-19.28,203.76-27.17,305.98-16.52,106.95,11.14,210.78,42.68,306.87,90.73,108.59,54.3,205.58,127.87,294.01,210.56,87.72,82.02,169.11,170.75,260.62,248.7,81.52,69.44,171.31,133,272.27,170.69,90.53,33.8,186.52,40.91,280.81,19.38,98.94-22.6,190.22-71.71,273.16-129.04,95.39-65.94,181.92-144.1,264.26-225.47,21.07-20.82,41.86-41.93,62.47-63.21.56-.58-.32-1.46-.88-.88h0Z" fill="#ccc"/><path d="m2774.27,1232.73c-82.92,86.13-169.2,169.67-263.82,242.97-85.6,66.31-179.37,125.66-282.89,159.48-95.68,31.26-196.77,36.12-293.74,7.56-107.92-31.78-203.96-96.03-289.93-167.04-92.64-76.52-174.29-164.81-260.87-247.84-85.22-81.72-176.96-155.87-280.61-213.13-90.69-50.1-188.9-86.19-291.23-103.26-94.35-15.74-190.69-15.14-285.39-2.7-114.4,15.02-227.37,44.6-333.87,89.09-111.37,46.52-209.99,118.28-321.6,163.82-25.17,10.27-51.01,18.63-77.59,24.36-.79.17-.45,1.37.33,1.21,114.43-24.63,211.85-96.15,314.35-148.79,109.43-56.2,227.44-94.69,348.26-117.22,100.15-18.67,202.51-26.28,304.04-15.51,105.64,11.2,208.22,42.37,303.22,89.69,108.99,54.29,206.62,127.81,295.35,210.74,88.41,82.63,170.1,172.36,261.98,251.28,81.21,69.75,170.54,133.77,271.15,172.27,90.06,34.46,185.91,42.72,280.22,22.06,100.48-22.01,193.15-71.4,277.26-129.39,95.37-65.76,181.83-143.89,263.92-225.35,21.04-20.87,41.77-42.04,62.33-63.39.56-.58-.32-1.46-.88-.88h0Z" fill="#ccc"/><path d="m2774.61,1247.98c-82.61,86.34-168.78,169.93-263.39,243.15-85.48,66.16-179.24,125.34-282.66,158.88-96.34,31.25-197.92,35.86-295.38,6.72-107.6-32.17-203.27-96.69-288.89-167.82-92.42-76.77-173.87-165.21-260.26-248.44-85.1-81.99-176.77-156.31-280.24-214.07-90.2-50.35-187.93-86.95-289.85-104.57-94.25-16.29-190.52-16.18-285.28-4.26-113.11,14.22-225.07,42.44-330.78,85.23-55.97,22.66-109.36,50.19-161.95,79.75-52.96,29.76-105.56,60.71-161.49,84.68-27.01,11.58-54.74,21.22-83.38,27.89-.78.18-.45,1.39.33,1.21,115.9-27.02,214.27-99.95,319.12-152.63,110.75-55.64,229.9-93.06,351.81-114.73,99.12-17.62,200.27-24.38,300.54-13.15,105.17,11.78,207.12,43.55,301.55,91.1,108.81,54.79,206.36,128.6,294.94,211.78,87.56,82.23,168.48,171.43,259.36,250.13,81.46,70.55,171.08,135.56,272.22,174.7,90.5,35.03,186.82,43.57,281.78,22.94,100.36-21.81,192.99-70.98,277.03-128.8,95.35-65.61,181.73-143.69,263.58-225.25,21-20.92,41.69-42.15,62.18-63.57.56-.58-.33-1.47-.88-.88h0Z" fill="#ccc"/><path d="m2774.95,1263.22c-83.47,87.77-170.82,172.62-267.02,246.48-84.28,64.71-176.69,122.37-278.37,155.18-97.16,31.35-199.54,35.6-297.62,5.71-108.4-33.04-204.54-98.94-290.51-171.17-92.29-77.54-173.69-166.58-260.33-250.13-85.05-82.01-177.01-156.1-280.5-213.74-89.78-50-186.97-86.52-288.37-104.11-93.47-16.21-188.94-16.26-282.96-4.75-113.83,13.94-226.69,41.66-333.21,84.28-112.9,45.17-212.44,115.64-323.49,164.28-26.96,11.81-54.61,21.79-83.17,28.96-.78.2-.45,1.4.33,1.21,115.42-28.97,213.6-101.44,318.78-153.86,111-55.32,230.47-92.09,352.5-113.39,98.43-17.18,198.8-24.02,298.33-12.98,105.35,11.69,207.37,43.39,301.98,90.95,108.75,54.68,206.57,128.28,295.11,211.38,88.47,83.04,169.88,173.41,261.35,253.27,81.85,71.47,171.97,137.34,273.85,177.09,90.53,35.32,187.05,43.86,282.13,23.36,100.23-21.61,192.85-70.58,276.8-128.23,95.32-65.46,181.63-143.51,263.24-225.16,20.96-20.97,41.6-42.26,62.04-63.75.55-.58-.33-1.47-.88-.88h0Z" fill="#ccc"/><path d="m2775.29,1278.47c-83.17,87.98-170.4,172.88-266.58,246.68-84.79,65.06-177.87,122.81-280.3,155.32-97.09,30.82-199.4,34.47-297.1,4.18-108.08-33.51-203.82-99.58-289.46-171.97-92.76-78.4-174.51-168.37-261.7-252.67-85.59-82.76-178.41-157.31-282.73-215.31-89.37-49.69-186.03-86.04-286.9-103.64-92.69-16.17-187.38-16.35-280.66-5.23-114.56,13.66-228.25,40.93-335.62,83.32-113.15,44.68-212.86,114.62-323.53,164.14-26.9,12.04-54.49,22.36-82.96,30.02-.78.21-.45,1.41.33,1.21,114.91-30.91,212.93-102.94,318.44-155.1,112.09-55.42,232.76-91.58,355.85-112.49,97.61-16.59,197.05-23.13,295.67-12.11,105.58,11.8,207.76,43.84,302.47,91.7,108.63,54.89,206.55,128.5,295,211.7,88.39,83.14,169.56,173.76,260.71,253.99,81.53,71.76,171.18,138.22,272.71,178.72,90.86,36.25,187.86,45.75,283.73,25.58,100.11-21.06,192.73-69.42,276.66-126.72,95.36-65.11,181.63-142.93,263.03-224.55,21.6-21.66,42.84-43.66,63.85-65.88.55-.58-.33-1.47-.88-.88h0Z" fill="#ccc"/><path d="m2775.63,1293.71c-82.87,88.19-169.99,173.16-266.15,246.89-85.27,65.37-179.05,123.34-282.23,155.48-97.05,30.24-199.24,33.37-296.6,2.67-109.5-34.53-206.12-102.34-292.54-176.31-92.28-78.98-173.71-169.28-260.9-253.62-85.32-82.53-178.11-156.63-282.08-214.47-89.12-49.58-185.45-85.96-286.04-103.62-92.12-16.17-186.2-16.47-278.96-5.71-114.24,13.25-227.81,39.73-335.11,81.3-113.57,44-213.57,113.16-323.76,163.89-27.64,12.72-55.94,23.81-85.2,32.21-.77.22-.44,1.43.33,1.21,115.29-33.11,213.88-105.52,320.68-157.59,112.42-54.81,233.44-89.98,356.64-110.33,96.98-16.02,195.68-22.3,293.57-11.19,104.33,11.84,205.29,43.53,298.98,90.67,109.02,54.85,207.6,128.45,296.31,211.87,89.08,83.77,170.59,175.33,262.06,256.59,81.18,72.11,170.43,139,271.57,180.35,91.15,37.26,188.71,47.58,285.32,27.82,99.97-20.45,192.65-68.31,276.51-125.23,96.15-65.27,183.02-143.6,264.78-225.91,21.56-21.71,42.75-43.77,63.7-66.06.55-.59-.33-1.47-.88-.88h0Z" fill="#ccc"/><path d="m2775.97,1308.96c-83.16,89.03-170.82,174.64-267.78,248.68-85.22,65.07-179,122.48-282.1,154.07-97.84,29.98-200.63,32.15-298.32.46-108.28-35.12-203.8-102.85-289.27-176.45-92.74-79.86-174.5-171.09-262.25-256.18-85.24-82.67-178.15-156.75-282.04-214.78-89.35-49.9-185.92-86.61-286.86-104.43-91.35-16.13-184.69-16.55-276.72-6.16-114.93,12.97-229.34,38.97-337.44,80.33-113.78,43.54-214,112.16-323.81,163.71-27.59,12.95-55.82,24.38-84.98,33.29-.77.23-.44,1.44.33,1.21,115.64-35.31,214.83-108.12,322.93-160.07,112.77-54.2,234.13-88.34,357.43-108.16,96.11-15.45,193.91-21.49,290.86-10.36,104.57,12,205.67,43.97,299.49,91.42,108.9,55.07,207.58,128.67,296.21,212.2,89.01,83.88,170.29,175.65,261.43,257.31,81.43,72.96,170.94,140.82,272.61,182.89,90.07,37.27,186.74,48.35,282.57,29.61,101.51-19.85,195.56-67.99,280.61-125.59,96.14-65.11,182.92-143.47,264.44-225.87,21.52-21.76,42.67-43.88,63.55-66.24.55-.59-.33-1.47-.88-.88h0Z" fill="#ccc"/><path d="m2776.32,1324.2c-82.87,89.23-170.41,174.92-267.35,248.9-85.69,65.4-180.18,123.03-284.02,154.26-97.8,29.41-200.48,31.06-297.84-1.05-108.85-35.89-204.54-104.6-290.27-179.08-92.4-80.27-173.89-171.77-261.53-256.99-85.78-83.41-179.54-157.93-284.25-216.34-88.27-49.24-183.66-85.7-283.3-103.59-92.02-16.52-186-17.05-278.75-6.74-113.95,12.66-227.57,37.8-334.99,78.12-115.02,43.17-216.2,111.74-326.5,164.53-27.55,13.18-55.71,24.96-84.77,34.37-.76.25-.44,1.45.33,1.21,115.04-37.24,214.17-109.64,322.6-161.29,113.89-54.25,236.43-87.77,360.8-107.24,95.26-14.91,192.12-20.64,288.13-9.54,103.96,12.02,204.49,43.89,297.78,91.04,108.82,55,207.77,128.33,296.37,211.77,89.71,84.49,171.29,177.26,262.77,259.91,81.69,73.8,171.44,142.67,273.64,185.47,90.52,37.91,187.66,49.21,284.15,30.52,100.56-19.48,193.93-66.89,278.31-123.71,96.94-65.28,184.3-144.14,266.18-227.24,21.48-21.8,42.58-43.98,63.41-66.41.55-.59-.34-1.47-.88-.88h0Z" fill="#ccc"/><path d="m2776.66,1339.44c-83.17,90.07-171.26,176.38-268.98,250.7-85.6,65.11-180.16,122.2-283.9,152.87-98.55,29.14-201.91,29.89-299.57-3.27-108.48-36.84-203.71-106.11-289.05-181-92.7-81.34-174.49-173.81-262.78-259.71-85.49-83.17-179.25-157.26-283.61-215.49-88.06-49.13-183.12-85.64-282.51-103.6-90.74-16.4-183.45-17.19-274.99-7.41-115.26,12.31-230.29,37.07-339.09,77.33-115.25,42.65-216.66,110.73-326.55,164.35-27.5,13.42-55.6,25.54-84.56,35.46-.76.26-.43,1.47.33,1.21,114.42-39.15,213.52-111.17,322.27-162.51,115-54.29,238.74-87.21,364.18-106.29,94.59-14.39,190.69-19.86,285.94-8.69,102.75,12.05,202.1,43.58,294.41,90.03,110.03,55.38,210.18,129.41,299.62,213.79,89.66,84.58,171.02,177.56,262.13,260.64,82.42,75.15,173.13,145.48,276.67,188.93,88.87,37.29,184.46,48.96,279.41,31.41,101.25-18.71,195.37-65.77,280.33-122.67,97.73-65.44,185.69-144.83,267.92-228.62,21.45-21.85,42.5-44.09,63.27-66.59.55-.59-.34-1.48-.88-.88h0Z" fill="#ccc"/><path d="m2777,1354.69c-82.86,90.26-170.83,176.73-268.55,250.95-86.14,65.42-181.31,122.76-285.82,153.08-98.58,28.6-201.73,28.77-299.11-4.76-109.04-37.54-204.48-107.95-290.02-183.68-92.34-81.75-173.87-174.49-262.07-260.51-86.03-83.91-180.64-158.43-285.81-217.04-87.65-48.85-182.23-85.18-281.12-103.15-90.02-16.36-181.98-17.23-272.82-7.82-114.98,11.91-229.91,35.92-338.67,75.37-116.48,42.25-218.89,110.26-329.26,165.12-27.47,13.65-55.49,26.13-84.35,36.54-.75.27-.43,1.48.33,1.21,114.66-41.36,214.49-113.76,324.54-164.94s239.42-85.53,364.97-104.12c93.7-13.87,188.89-19.09,283.17-7.91,103,12.21,202.5,44.02,294.95,90.78,109.92,55.6,210.17,129.64,299.53,214.12,89.59,84.69,170.71,177.91,261.49,261.37,82.68,76.01,173.58,147.36,277.66,191.57,89.31,37.94,185.43,49.84,281.02,32.34,101.13-18.51,195.25-65.47,280.12-122.23,97.7-65.34,185.57-144.72,267.58-228.62,21.41-21.9,42.41-44.2,63.13-66.77.54-.59-.34-1.48-.88-.88h0Z" fill="#ccc"/><path d="m2777.34,1369.93c-82.58,90.47-170.43,177.01-268.13,251.2-86.64,65.79-182.48,123.26-287.75,153.28-98.51,28.1-201.65,27.7-298.66-6.23-108.73-38.03-203.75-108.66-288.96-184.59-92.77-82.66-174.62-176.34-263.37-263.12-85.95-84.05-180.69-158.56-285.78-217.35-87.87-49.17-182.73-85.87-281.96-103.95-89.3-16.28-180.52-17.3-270.68-8.21-114.68,11.55-229.57,34.65-338.26,73.31-117.69,41.87-221.15,109.77-331.93,165.95-27.43,13.91-55.36,26.74-84.13,37.66-.74.28-.42,1.49.33,1.21,114.83-43.57,215.55-116.25,326.8-167.39s238.35-83.42,363.08-101.52c94.41-13.7,190.2-18.84,285.13-7.29,101.67,12.37,199.94,44.01,291.24,90.16,110.66,55.94,211.76,130.42,301.65,215.56,89.53,84.8,170.42,178.23,260.85,262.1,82.9,76.88,174.04,149.28,278.63,194.25,88.27,37.96,183.51,50.55,278.34,34.03,102.67-17.89,198.15-65.14,284.21-122.58,96.91-64.7,184.09-143.39,265.31-226.65,22.04-22.59,43.64-45.61,64.92-68.92.54-.59-.34-1.48-.88-.88h0Z" fill="#ccc"/><path d="m2777.68,1385.18c-82.88,91.3-171.27,178.5-269.75,253.01-85.99,65.06-181.13,121.7-285.48,151.34-99.32,28.22-203.23,27.45-300.84-7.25-109.55-38.94-205.04-111.07-290.58-188.19-91.92-82.86-173.19-176.38-261.5-262.92-86.5-84.76-182.05-159.75-287.97-218.9-88.13-49.21-183.15-85.9-282.64-103.89-88.61-16.03-179.1-16.89-268.54-8.02-114.63,11.36-229.59,33.93-338.39,72.11-117.89,41.38-221.64,108.75-332,165.75-27.4,14.15-55.26,27.33-83.91,38.74-.74.29-.42,1.5.33,1.21,114.12-45.45,214.94-117.74,326.48-168.6,115.93-52.86,240.7-82.78,366.47-100.55,92.81-13.11,186.98-18.02,280.27-6.79,101.84,12.26,200.2,43.88,291.66,90.05,109.74,55.4,210.53,128.99,299.8,213.25,91.23,86.11,173.16,181.47,264.79,267.16,82.71,77.34,173.66,150.35,278.14,196,88.91,38.85,185.03,51.92,280.81,35.32,102.56-17.77,198.02-64.83,284-122.19,96.88-64.63,183.97-143.31,264.98-226.67,22.01-22.64,43.55-45.72,64.78-69.1.54-.59-.34-1.48-.88-.88h0Z" fill="#ccc"/><path d="m2778.02,1400.42c-82.78,91.7-171.25,179.14-269.95,253.75-86.07,65.06-181.44,121.55-285.94,150.88-98.72,27.7-202.14,26.83-299.06-7.68-110.16-39.23-205.91-112.1-291.71-189.91-92.36-83.77-173.94-178.26-262.8-265.57-86.78-85.26-182.9-160.5-289.26-219.96-87.27-48.79-181.36-85.37-279.85-103.53-88.07-16.24-178.04-17.46-267.03-8.99-115.85,11.02-232.17,33.18-342.25,71.27-117.22,40.57-220.6,106.72-329.67,164.28-28.15,14.85-56.73,28.83-86.11,41.09-.73.31-.41,1.52.33,1.21,113.4-47.31,214.31-119.3,326.16-169.8,117.08-52.86,243.01-82.14,369.87-99.56,92.08-12.64,185.5-17.3,277.98-6,101.49,12.4,199.47,44.06,290.59,90.17,110.06,55.69,211.32,129.5,300.82,214.14,91.16,86.22,172.86,181.82,264.15,267.9,82.94,78.21,174.09,152.34,279.1,198.74,88.99,39.32,185.33,52.8,281.43,36.42,101.88-17.36,196.87-63.68,282.41-120.4,97.92-64.94,185.81-144.35,267.36-228.63,21.85-22.58,43.24-45.61,64.3-68.93.54-.6-.34-1.48-.88-.88h0Z" fill="#ccc"/><path d="m2778.36,1415.67c-82.5,91.89-170.85,179.48-269.54,254.04-86.57,65.4-182.6,122.16-287.87,151.13-99.5,27.38-203.58,25.71-300.81-9.92-110.66-40.55-206.51-114.78-292.48-193.76-92.5-84.99-174.32-180.53-263.97-268.39-86.76-85.03-183.35-159.86-289.73-218.88-87.48-48.54-181.7-84.88-280.34-102.62-88.09-15.84-177.98-16.66-266.91-8.05-114.98,11.13-230.47,32.66-339.86,70.2-118.57,40.69-223.08,107.5-333.04,166.11-26.61,14.18-53.6,27.63-81.24,39.69-.74.32-.1,1.4.63,1.08,115.09-50.21,218.15-123.88,333.18-174.25,117.47-51.45,243.61-79.25,370.34-95.85,90.36-11.83,181.97-15.79,272.59-4.43,101.05,12.66,198.49,44.6,289.15,90.66,109.96,55.86,211.33,129.75,300.75,214.48,91.77,86.96,173.8,183.52,265.5,270.54,82.62,78.39,173.37,152.75,278.05,199.6,89.4,40.01,186.31,53.7,283.05,37.36,101.8-17.19,196.74-63.45,282.21-120.04,97.91-64.83,185.71-144.31,267.04-228.69,21.82-22.64,43.16-45.72,64.17-69.11.54-.6-.35-1.48-.88-.88h0Z" fill="#ccc"/><path d="m2778.7,1430.91c-82.23,92.09-170.47,179.78-269.13,254.33-87.08,65.79-183.77,122.7-289.79,151.38-99.49,26.92-203.46,24.63-300.39-11.35-110.37-40.97-205.78-115.58-291.4-194.73-92.92-85.91-175.05-182.43-265.25-271.07-86.69-85.19-183.41-159.94-289.7-219.19-87.1-48.55-180.91-85.01-279.17-103.05-87.37-16.04-176.58-17.12-264.86-8.97-114.43,10.57-229.53,31.25-338.68,67.6-120.34,40.06-226.33,106.79-337.07,166.99-27.01,14.68-54.36,28.72-82.35,41.47-.73.33-.1,1.41.63,1.08,116.84-53.22,222.23-128.56,340.59-178.73,117.4-49.76,243.17-76.17,369.28-91.95,89.03-11.14,179.27-14.58,268.45-3.09,101.41,13.07,199.08,45.61,289.91,92.26,109.85,56.42,211.17,130.51,300.5,215.58,91.58,87.21,173.41,183.98,264.86,271.31,82.26,78.55,172.64,153.26,277,200.49,89.1,40.32,185.86,54.52,282.54,38.65,102.52-16.83,198.13-63.14,284.15-120.06,97.88-64.76,185.59-144.27,266.72-228.76,21.78-22.69,43.08-45.83,64.03-69.29.53-.6-.35-1.49-.88-.88h0Z" fill="#ccc"/><path d="m2779.04,1446.16c-82.15,92.49-170.47,180.44-269.35,255.1-86.6,65.39-182.77,121.79-288.14,150.39-99.53,27.02-203.76,24.84-300.75-11.18-110.98-41.22-206.67-116.68-292.49-196.53-92-85.6-173.37-181.57-262.61-269.91-87.15-86.28-184.37-161.95-291.4-222.13-87.38-49.13-181.49-86.26-280.21-104.71-86.66-16.2-175.19-17.59-262.85-9.87-115.7,10.19-232.23,30.52-342.71,66.76-120.53,39.54-226.85,105.76-337.14,166.78-26.99,14.93-54.27,29.31-82.14,42.54-.73.34-.09,1.42.63,1.08,117.68-55.87,224.75-132.19,345.43-182.04,116.8-48.25,241.7-73.49,366.74-88.68,90.29-10.97,181.77-14.14,272.1-1.77,99.64,13.65,195.51,46.19,284.75,92.24,110.57,57.06,212.63,131.83,302.42,217.79,92.04,88.11,174.2,185.86,266.2,274,81.96,78.52,171.99,153.27,276.11,200.46,89.27,40.46,186.29,54.44,283.13,38.44,101.88-16.83,197-62.81,282.54-119.36,98.1-64.85,185.94-144.56,267.05-229.4,21.63-22.63,42.78-45.72,63.57-69.12.53-.6-.35-1.49-.88-.88h0Z" fill="#ccc"/><path d="m2779.38,1461.4c-82.45,93.32-171.31,181.94-270.98,256.94-86.53,65.11-182.76,121.11-288.05,149.15-99.51,26.5-203.67,23.85-300.35-12.59-111.54-42.04-207.39-118.61-293.39-199.41-92.26-86.68-173.92-183.66-263.82-272.68s-184.09-161.25-290.74-221.25c-87.17-49.04-181.03-86.24-279.52-104.73-86.18-16.18-174.19-17.68-261.39-10.22-114.36,9.78-229.62,29.2-339.12,64.01-122.78,39.03-230.98,105.48-342.52,168.27-26.97,15.18-54.18,29.9-81.93,43.62-.72.36-.09,1.43.63,1.08,116.82-57.73,224.18-133.74,345.15-183.18,117.65-48.08,243.45-72.69,369.24-87.56,89.78-10.62,180.71-13.61,270.48-1.18,99.34,13.76,194.88,46.37,283.84,92.36,110.09,56.9,212.01,131.26,301.51,216.81,92.12,88.07,174.03,186.05,265.52,274.74,82.17,79.66,172.31,155.72,276.88,204.21,88.8,41.18,185.78,56.24,282.67,41.05,102.56-16.08,198.43-61.74,284.55-118.39,98.89-65.05,187.31-145.31,268.78-230.85,21.6-22.68,42.7-45.83,63.44-69.3.53-.6-.35-1.49-.88-.88h0Z" fill="#ccc"/><path d="m2779.72,1476.64c-82.18,93.52-170.93,182.29-270.58,257.26-87.05,65.49-183.91,121.68-289.97,149.45-100.32,26.27-205.1,22.63-302.12-14.83-111.17-42.93-206.54-120.27-292.13-201.49-91.85-87.16-173.26-184.37-263.08-273.53-87.37-86.73-185.47-162.42-292.9-222.79-86.21-48.43-178.94-85.35-276.25-103.95-86.13-16.46-174.13-18.16-261.35-10.92-114.94,9.54-230.93,28.46-341.1,62.99-122.96,38.54-231.5,104.42-342.6,168.04-26.95,15.43-54.1,30.5-81.72,44.69-.72.37-.08,1.45.63,1.08,115.94-59.56,223.61-135.27,344.87-184.32,117.91-47.7,243.93-71.6,369.82-86.21,89.74-10.41,180.62-13.4,270.31-.88,98.82,13.8,193.82,46.28,282.34,92,110.82,57.23,213.6,132.04,303.6,218.25,92.05,88.18,173.75,186.39,264.84,275.51,82.91,81.11,173.93,158.84,279.92,208.06,88.65,41.17,185.46,56.04,282.19,41.01,102.48-15.93,198.31-61.57,284.37-118.11,98.88-64.96,187.2-145.32,268.47-230.96,21.57-22.73,42.63-45.94,63.31-69.47.53-.6-.35-1.49-.88-.88h0Z" fill="#ccc"/><path d="m2780.06,1491.89c-81.93,93.72-170.56,182.6-270.19,257.59-86.96,65.45-183.79,121.57-289.78,149.21-100.95,26.33-206.42,22.47-303.85-15.69-110.88-43.43-205.79-121.07-291.04-202.52-92.22-88.12-173.93-186.32-264.3-276.25-87.3-86.88-185.52-162.55-292.9-223.11-87.03-49.08-180.69-86.49-279.06-105.12-85.49-16.19-172.79-17.79-259.34-10.71-114.9,9.39-230.87,27.81-341.16,61.82-123.14,37.97-232.05,103.38-342.69,167.8-26.93,15.68-54.01,31.1-81.51,45.77-.71.38-.08,1.46.63,1.08,115.89-61.81,224.65-137.81,347.22-186.5,118.57-47.1,245.29-70.15,371.63-84.26,88.45-9.87,177.95-12.55,266.3-.15,98.29,13.8,192.8,46.19,280.86,91.64,111.55,57.58,215.19,132.83,305.69,219.69,92.65,88.93,174.66,188.12,266.13,278.21,82.01,80.77,171.96,158.32,276.73,208.01,88.28,41.87,184.89,57.77,281.74,43.6,103.15-15.1,199.77-60.53,286.39-117.16,99.68-65.17,188.57-146.07,270.21-232.43,21.54-22.78,42.55-46.05,63.18-69.65.53-.6-.35-1.49-.88-.88h0Z" fill="#ccc"/><path d="m2780.4,1507.13c-82.4,94.74-171.77,184.49-272.45,259.91-86.51,64.81-182.93,120.25-288.28,147.36-100.4,25.83-205.28,21.89-302.11-16.04-111.5-43.68-206.7-122.22-292.1-204.42-92.58-89.1-174.59-188.29-265.51-279-87.58-87.37-186.36-163.31-294.18-224.15-86.26-48.68-179.03-85.98-276.48-104.78-85-16.4-171.83-18.28-257.96-11.56-115.07,8.98-231.36,26.79-341.99,60.11-124.36,37.46-234.4,102.65-345.44,168.38-26.92,15.93-53.93,31.7-81.31,46.84-.7.39-.07,1.47.63,1.08,115.81-64.06,225.68-140.34,349.57-188.66,118.6-46.26,245.28-68.39,371.37-82.07,87.97-9.54,176.93-12.06,264.76.39,98.82,14.02,193.7,46.93,282.12,92.86,111.07,57.7,214.47,132.8,304.62,219.49,92.59,89.05,174.36,188.48,265.45,278.99,82.79,82.26,173.54,161.41,279.74,211.93,88.36,42.04,185.41,57.75,282.35,43.38,102.55-15.2,198.64-60.23,284.81-116.53,99.9-65.27,188.92-146.41,270.54-233.12,21.39-22.73,42.26-45.94,62.74-69.49.53-.6-.35-1.49-.88-.88h0Z" fill="#ccc"/></svg>