<?xml version="1.0" encoding="UTF-8"?><svg id="Layer_1" xmlns="http://www.w3.org/2000/svg" width="1920" height="261.43" viewBox="0 0 1920 261.43"><rect width="1920" height="261.43" fill="#282828" stroke="#ccc" stroke-miterlimit="10" stroke-width=".25"/><path d="m1936.68,41.68c11.04,50.66,29.75,154.94-50.46,154.6-33.48-.14-66.99-13.64-97.27-26.62-42.69-18.29-83.74-40.33-124.43-62.63-98.25-53.85-194.7-111.28-296.35-158.67-86.63-40.39-183.91-80.51-281.4-76.21-124.49,5.49-225.18,108.02-302.01,195.9-105.82,121.03-192.82,259.25-309.24,370.88-61.3,58.77-155.27,138.4-245.9,103.22-38.02-14.75-68.72-44.83-94.76-75.31-31.57-36.96-58.27-77.93-83.69-119.27C-3.98,257.86-54.73,165.65-111.74,77.05-166.23-7.62-224.11-90.17-286.46-169.24c-107.32-136.07-228.69-264.93-372.37-363.12-115.66-79.04-249.14-137.69-390.76-143.23-32.71-1.28-65.44.36-97.89,4.64-.79.1-.8,1.36,0,1.25,143.59-18.96,285.4,20.19,410.41,90.18,150.3,84.14,277.35,206.35,388.53,336.54C-211.85-82.92-98.73,94.2,6.98,275.71c46.22,79.36,92.89,165.91,161.83,228.28,25.41,22.99,55.64,42.62,90.31,46.97,47.1,5.92,92.54-16.01,130.85-41.16,64.58-42.39,118.37-99.35,168.12-157.89,53.38-62.81,102.63-128.97,153.77-193.58,49.52-62.57,100.69-124.76,160.09-178.32,48.42-43.66,105.93-85.54,170.51-100.68,96.1-22.53,200.24,15.54,287.47,53.19,104.93,45.3,203.8,103.25,303.52,158.75,42.93,23.9,86.05,47.7,130.57,68.54,32.44,15.18,66.59,30.24,102.21,35.93,21.06,3.36,45.62,3.29,62.11-12.3,19.79-18.71,20.81-50.57,19.45-75.82-1.2-22.33-5.14-44.45-9.9-66.27-.17-.79-1.38-.45-1.21.33h0Z" fill="#ccc"/><path d="m-1139.98-660.61c143.62-20.38,285.89,17.69,411.38,87.27,148.55,82.37,274.37,202.27,384.68,330.09C-208.42-86.22-96.25,87.6,9.6,265.45c46.47,78.07,93.75,162.68,162.35,223.86,25.4,22.65,55.27,41.89,89.48,47.13,46.91,7.19,92.81-12.4,132.06-36.31,64.26-39.15,118.06-93.47,167.7-149.43,54.01-60.87,103.69-125.4,154.99-188.53,50.2-61.77,101.79-123.19,161.11-176.49,49.23-44.24,107.3-86.98,172.47-103.61,94.69-24.17,198.27,12.82,284.69,49.55,103.36,43.94,200.75,100.51,298.88,154.77,43.12,23.84,86.41,47.62,131.11,68.4,32.08,14.91,65.8,29.66,100.96,35.33,21.01,3.39,45.56,3.44,62.15-11.95,19.82-18.39,21.06-49.91,19.8-74.97-1.1-21.88-4.87-43.56-9.46-64.95-.17-.79-1.37-.45-1.21.33,10.86,50.63,28.3,152.63-51.12,152.13-33.77-.21-67.53-13.86-98.07-26.96-42.56-18.25-83.53-40.15-124.15-62.3-97.14-52.96-192.61-109.31-293.29-155.45-85.61-39.23-182.27-78.15-278.34-71.72-52.63,3.53-101.05,26.2-144.54,55.04-60.94,40.42-112.87,93.36-161.09,147.9-104.5,118.2-192.51,252.87-310.21,358.95-64.61,58.23-160.32,129.51-250.57,87.94-35.96-16.56-65.28-45.53-90.71-75.24-31.7-37.04-58.75-77.96-84.56-119.23C-5.12,241.43-56.15,150.86-113.24,63.84c-54.09-82.44-111.44-162.81-173.11-239.76-107.39-133.99-228.82-260.82-372.45-356.32-114.94-76.42-247.12-131.89-386.67-135.28-31.73-.77-63.42,1.24-94.83,5.7-.79.11-.46,1.32.33,1.21h0Z" fill="#ccc"/><path d="m-1132.65-651.5c142.14-21.59,283.48,14.23,408.55,82.08,148.84,80.75,274.94,199.71,385.5,326.57C-203.94-88.35-92.72,82.78,13.69,257.37c46.65,76.54,94.62,159.06,163.06,218.52,26.3,22.85,56.95,41.8,91.99,46.78,45.16,6.42,89.58-10.32,128.3-32.19,65.06-36.73,119.82-89.36,170.16-143.91,54.53-59.09,104.64-122.07,156.16-183.75,50.38-60.31,101.96-120.3,160.71-172.7,49.93-44.54,108.45-87.74,174.02-105.51,91.96-24.93,193.15,9.73,277.68,44.82,103.41,42.92,200.73,99.03,298.71,152.81,42.82,23.51,85.8,46.96,130.16,67.45,31.9,14.74,65.41,29.29,100.34,34.89,20.91,3.35,45.32,3.41,61.91-11.79,19.5-17.88,21.1-48.5,20.06-73.09-.92-21.74-4.58-43.29-9.06-64.55-.17-.79-1.37-.45-1.21.33,10.72,50.84,26.76,150.54-52.12,149.66-33.34-.37-66.6-13.68-96.81-26.54-42.23-17.98-82.89-39.57-123.22-61.4-96.22-52.08-190.85-107.52-290.67-152.61-84.59-38.21-180.43-76.04-275.1-68.22-52.36,4.32-100.67,28.01-143.88,56.8-60.85,40.54-113.11,92.96-161.9,147.02-104.33,115.62-193.48,247.62-312.44,349.34-66.4,56.77-162.14,121.46-251.56,79.9-35.39-16.45-64.6-44.43-90.09-73.42-32.05-36.45-59.54-76.8-85.71-117.59C-2.31,231.94-53.38,142.79-110.37,57.23c-54.25-81.46-111.7-160.88-173.44-236.85-106.9-131.55-227.57-256.07-370.11-349.25-114.82-75.06-246.68-128.78-385.4-130.49-31.37-.39-62.67,1.95-93.67,6.65-.79.12-.46,1.33.33,1.21h0Z" fill="#ccc"/><path d="m-1125.32-642.39c140.87-22.83,281.46,10.87,406.26,77.16,147.17,78.17,272.16,194.25,381.92,318.23C-202.85-95.32-91.84,73.05,15.03,244.58c47.05,75.52,95.54,156.23,163.38,215.23,26.79,23.3,57.83,42.72,93.38,48.58,45.52,7.51,90.81-7.53,130.7-28.55,64.4-33.93,119.08-83.9,169.23-136,55.08-57.21,105.62-118.6,157.32-178.82,50.99-59.39,102.99-118.54,161.72-170.48,50.73-44.86,109.67-88.39,175.67-107.35,90.54-26.01,190.86,7.52,274.55,41.72,102.47,41.87,198.87,97.04,295.91,149.89,42.11,22.93,84.37,45.81,127.97,65.81,31.73,14.56,65.03,28.92,99.72,34.44,20.81,3.31,45.08,3.37,61.66-11.65,19.43-17.61,21.21-47.85,20.27-72.23-.82-21.25-4.32-42.34-8.63-63.12-.16-.79-1.37-.45-1.21.33,10.58,51.08,25.22,148.42-53.14,147.21-33.25-.52-66.37-13.73-96.54-26.53-41.54-17.63-81.57-38.73-121.29-60.08-95.31-51.21-189.08-105.7-288.04-149.74-83.57-37.19-178.58-73.9-271.84-64.7-52.1,5.14-100.32,29.79-143.3,58.5-60.78,40.59-113.38,92.51-162.74,146.04-104.22,113.03-194.54,242.35-314.62,339.77-69.28,56.21-166.32,114.58-255.79,70.41-34.76-17.16-63.71-44.79-89.22-73.52-31.67-35.67-59.09-74.98-85.22-114.81C-.69,220.18-51.82,132.63-108.7,48.65c-54.28-80.16-111.68-158.29-173.3-232.99-106.57-129.2-226.73-251.35-368.41-342.1-113.92-72.97-244.45-124.31-381.22-124.74-31.51-.1-62.93,2.55-94.03,7.59-.79.13-.46,1.33.33,1.21h0Z" fill="#ccc"/><path d="m-1117.99-633.28c139.61-24.07,279.45,7.49,403.99,72.2,145.49,75.59,269.39,188.8,378.36,309.91C-201.72-102.32-90.9,63.27,16.39,231.74c47.44,74.49,96.42,153.47,163.68,211.99,27.09,23.58,58.34,43.47,94.09,50.28,44.44,8.47,89.16-3.52,129.29-22.53,64.4-30.51,119.5-77.78,169.83-127.52,55.74-55.08,106.69-114.77,158.48-173.5,51.64-58.56,103.98-116.99,162.55-168.79,51.97-45.96,111.49-90.1,178.44-111.24,88.41-27.91,187.59,3.79,270.1,36.66,101.87,40.59,197.64,94.88,293.93,146.92,41.96,22.68,84.06,45.33,127.47,65.16,31.68,14.47,64.9,28.73,99.51,34.29,20.59,3.3,44.6,3.53,61.29-10.94,19.58-16.97,21.79-46.66,21.07-70.74-.63-21.14-4.02-42.14-8.23-62.83-.16-.79-1.37-.45-1.21.33,10.39,51.1,23.72,146.07-53.81,144.76-32.53-.55-64.9-13.23-94.49-25.62-42.44-17.78-83.31-39.25-123.87-60.91-94.18-50.29-186.97-103.68-284.95-146.42-82.3-35.89-176.19-71.11-267.63-60.22-53.34,6.36-102.9,33.41-146.6,63.3-59.88,40.96-112.23,92.16-161.72,144.91-104.44,111.33-196.66,239.34-319.68,331.57-70.71,53.01-165.73,101.38-252.5,57.21-76.39-38.89-129.89-119.51-176.15-188.64C-.4,206.06-51.7,120.13-108.56,37.72c-53.85-78.05-110.68-154.11-171.58-226.82-106.23-126.83-225.9-246.65-366.74-334.94-113.55-71.18-243.41-120.29-378.86-118.99-31.06.3-61.98,3.26-92.58,8.54-.79.14-.46,1.34.33,1.21h0Z" fill="#ccc"/><path d="m-1110.66-624.17c137.67-25.19,276.13,3.8,399.99,66.32,145.32,73.36,269.23,184.88,378.25,304.32C-199.6-108-89.45,54.14,17.79,218.85c47.83,73.46,97.27,150.75,163.95,208.81,26.76,23.3,57.23,43.1,92.14,51.35,44.1,10.43,89.32,1.23,130.42-16.05,64.97-27.31,121-72.54,171.9-120.48,55.78-52.54,106.71-109.97,158.14-166.69,52.28-57.65,104.97-115.35,163.38-166.92,53.37-47.12,113.43-91.57,181.39-115.04,86.7-29.96,185.26.26,266.96,32.08,100.77,39.24,195.49,92.38,290.6,143.38,41.82,22.42,83.75,44.83,126.96,64.48,31.64,14.38,64.77,28.55,99.3,34.13,20.55,3.32,44.54,3.65,61.33-10.62,19.59-16.66,22.04-45.99,21.43-69.91-.53-20.69-3.75-41.25-7.79-61.51-.16-.79-1.36-.45-1.21.33,10.26,51.51,22.07,144.23-55.18,142.3-32.24-.8-64.22-13.23-93.6-25.47-42.26-17.61-82.97-38.87-123.39-60.29-93.48-49.54-185.65-102.09-283.07-143.7-80.78-34.5-173.14-68.02-262.48-55.84-54.35,7.41-105.01,36.42-149.39,67.2-60.26,41.79-113.29,93.3-163.77,146.23-103.31,108.32-196.59,232.95-320.38,319.35-73.12,51.04-168.07,91.47-253.63,45.6-75.47-40.46-129.15-119.13-176.19-188.05C.44,192.7-50.56,109.18-106.8,29.07c-54.36-77.45-111.69-152.89-173.1-224.9-105.07-123.2-223.15-239.44-361.69-324.73-113.14-69.66-242.22-116.88-376.46-114.32-31.2.59-62.25,3.89-92.94,9.51-.79.14-.46,1.35.33,1.21h0Z" fill="#ccc"/><path d="m-1103.33-615.06c136.92-26.51,275.04.63,399.02,61.94,144.17,71.3,267.33,180.67,375.85,297.92C-195.16-111.18-85.1,49.78,23.63,212.52c47.63,71.3,97.23,145.83,163.04,201.88,27.72,23.61,59.11,43.27,94.96,51.49,45.24,10.37,91.63,1.44,133.99-15.8,62.1-25.28,116.25-66.75,165.73-111.32,56.52-50.91,108.05-107.07,159.92-162.61,52.15-55.83,104.53-111.78,162.08-162.15,54.35-47.57,114.76-91.97,183.13-117.03,85.2-31.23,182.45-2.8,263.48,28.06,99.86,38.04,193.71,90.19,287.87,140.24,41.51,22.07,83.13,44.14,126.01,63.48,31.24,14.09,63.89,27.91,97.9,33.51,20.67,3.4,44.88,3.9,61.87-10.37,19.26-16.18,22.06-44.61,21.67-68.05-.34-20.54-3.45-40.97-7.37-61.1-.15-.79-1.36-.45-1.21.33,10.1,51.76,20.45,142.11-56.22,139.86-32.14-.94-63.99-13.26-93.32-25.42-41.99-17.42-82.47-38.42-122.67-59.56-91.32-48.02-181.48-98.84-276.65-139.03-80.52-34-172.95-67.02-261.74-53.37-55.21,8.49-106.89,39.23-151.9,70.79-59.18,41.49-111.78,91.75-162.13,143.37-102.75,105.34-196.92,226.64-320.85,308.49-74.43,49.16-169.04,84.54-254.02,39.74-74.96-39.52-129.24-115.99-176.73-183.67C5.01,185.25-45.95,103.21-101.98,24.56c-54.05-75.87-110.94-149.79-171.78-220.36-105.44-122.29-223.88-237.65-362.79-321.52-113.1-68.29-241.9-113.62-375.32-109.41-30.84.97-61.5,4.6-91.79,10.46-.79.15-.45,1.36.33,1.21h0Z" fill="#ccc"/><path d="m-1096-605.95c135.65-27.75,273.07-2.8,396.83,56.89,143.23,69.09,265.91,176.26,374.05,291.38C-193.56-117.64-84.34,38.98,23.65,197.29c48.45,71.03,98.82,144.86,164.71,201.09,27.3,23.3,58.02,43.04,92.95,52.53,44,11.96,89.98,6.39,132.57-8.4,63.63-22.1,119.49-61.98,170.27-105.42,56.5-48.34,107.98-102.27,159.48-155.8,101.45-105.45,207.88-224.49,346.98-279.79,84.79-33.71,180.76-7.88,262.57,22.49,98.75,36.66,191.53,87.64,284.52,136.63,41.37,21.79,82.82,43.62,125.5,62.76,31.19,13.99,63.76,27.71,97.68,33.33,20.64,3.42,44.83,4.02,61.92-10.05,19.27-15.87,22.3-43.93,22.04-67.21-.23-20.09-3.18-40.09-6.94-59.79-.15-.79-1.36-.46-1.21.33,9.88,51.79,18.89,139.74-56.91,137.44-32.42-.98-64.55-13.43-94.14-25.69-41.44-17.17-81.43-37.76-121.18-58.49-90.61-47.25-180.15-97.21-274.74-136.25-79.54-32.82-171.4-64.48-258.58-48.62-55.49,10.1-107.64,42.28-152.95,74.39-58.97,41.79-111.8,91.68-162.68,142.81-102.25,102.76-197.83,221.37-322.9,297.71-76.75,46.85-171.28,74.76-255.06,28.38-73.31-40.58-127.35-114.33-175.17-181.01C6.89,173.29-44.15,92.88-100.05,15.79c-54.57-75.26-111.98-148.56-173.36-218.4-104.74-119.16-222.16-231.44-359.53-312.38-112.27-66.15-239.72-109.1-371.21-103.64-31,1.29-61.78,5.25-92.17,11.47-.79.16-.45,1.37.33,1.21h0Z" fill="#ccc"/><path d="m-1088.67-596.84c133.73-28.83,269.78-6.49,392.89,50.97,142.34,66.43,264.54,171.15,372.38,283.87C-192.21-124.88-83.09,28.96,25.18,184.21c48.83,70.02,99.55,142.31,164.87,198.14,26.9,22.99,56.88,42.69,90.88,53.34,43.79,13.71,90.17,10.92,133.77-2.03,63.36-18.82,119.6-55.97,170.6-97.15,57.06-46.07,108.92-98.24,160.51-150.23,102.76-103.55,208.24-219.19,344.63-278.26,86.04-37.26,179.73-16,264.6,14.51,98.57,35.44,191.11,85.79,283.75,134.13,40.8,21.29,81.68,42.63,123.73,61.38,31.15,13.89,63.64,27.5,97.48,33.13,20.44,3.4,44.34,4.12,61.53-9.4,19.4-15.26,22.88-42.71,22.86-65.73-.02-19.98-2.86-39.88-6.51-59.48-.15-.79-1.35-.46-1.21.33,6.13,32.92,13.28,74.29-1.94,105.99-10.7,22.28-32.93,29.89-56.38,29.01-32.11-1.2-63.89-13.4-93.24-25.5-41.25-17-81.09-37.35-120.69-57.82-89.89-46.48-178.82-95.57-272.83-133.42-78.29-31.53-169.07-61.58-254.31-44.01-56.26,11.6-109.21,45.23-155.25,78.14-59.36,42.44-112.89,92.51-164.78,143.63-53.26,52.48-104.81,106.71-159.27,157.97-50.33,47.38-103.54,93.32-164.07,127.28-79.04,44.34-173.45,64.91-256.03,17.13-72.42-41.9-126.59-114.04-175.1-180.39C7.36,159.05-43.85,80.26-99.73,4.73c-54.12-73.16-110.95-144.39-171.62-212.24-104.43-116.8-221.41-226.71-357.97-305.14-111.99-64.33-238.75-104.94-368.96-97.78-30.54,1.68-60.83,5.95-90.72,12.4-.79.17-.45,1.37.33,1.21h0Z" fill="#ccc"/><path d="m-1081.34-587.73c132.98-30.17,268.76-9.75,392.03,46.45,141.96,64.72,264.02,167.97,371.83,279.22C-186.55-126.97-77.89,24.94,31.31,177.47c48.65,67.94,99.38,137.66,163.79,191.69,27.61,23.16,58.26,42.78,92.86,53.6,41.81,13.08,86.13,12.16,128.38,1.56,64.57-16.19,122.32-51.9,174.57-92.15,56.92-43.84,108.72-93.97,160.05-144.1,104.12-101.69,209.55-214.55,344.33-275.45,41.31-18.67,83.07-25.83,128.3-22.2,46.31,3.71,91.68,16.14,135.38,31.44,97.2,34.03,188.47,83.06,279.73,130.22,40.92,21.14,81.89,42.36,124.03,60.99,30.97,13.69,63.26,27.08,96.85,32.61,20.36,3.35,44.12,4.05,61.29-9.29,19.31-15,23-42.06,23.08-64.89.07-19.49-2.6-38.92-6.08-58.06-.14-.79-1.35-.46-1.21.33,5.89,32.42,12.69,73.3-2.75,104.32-10.96,22.02-33.35,29.23-56.64,28.26-32.02-1.33-63.64-13.4-92.96-25.41-40.97-16.79-80.58-36.86-119.96-57.04-88.97-45.58-177.07-93.68-270.26-130.29-77.27-30.36-167.2-58.97-250.73-39.6-57.04,13.22-110.78,48.12-157.65,81.87-58.57,42.17-111.85,91.24-163.78,141.22-53.34,51.34-105.24,104.22-160.22,153.83-50.57,45.64-104.22,89.58-164.99,121.03-79.53,41.15-172.43,56.18-253.41,9.88-71.94-41.13-126.51-111.28-175.45-176.46C12.28,151.32-38.91,74.07-94.56.03s-111.29-142.65-172.05-209.63c-104.44-115.13-221.32-223.4-357.56-299.92-112.03-62.92-238.53-101.57-367.94-92.75-30.17,2.06-60.08,6.65-89.57,13.34-.78.18-.45,1.38.33,1.21h0Z" fill="#ccc"/><path d="m-1074.01-578.62c131.75-31.4,266.81-13.2,389.93,41.3,140.32,62.11,261.37,162.44,368.44,270.82C-185.07-134.34-76.45,14.74,32.97,164.23c49.41,67.5,100.87,136.55,165.55,190.36,61.99,51.57,136.5,76.56,216.94,60.77,133.37-26.17,240.67-131.2,335.86-221.05,106.15-100.21,211.64-211.3,345.11-275.18,42.24-20.22,83.75-30.14,130.67-27.41,45.68,2.66,90.58,14.29,133.78,28.87,96.55,32.58,187.19,80.67,277.67,126.95,40.42,20.67,80.88,41.44,122.44,59.74,31.03,13.67,63.32,27.02,96.93,32.73,20.68,3.51,44.98,4.46,62.49-9.11,19.06-14.76,22.92-41.26,23.14-63.81.18-19.04-2.34-38.04-5.65-56.75-.14-.79-1.34-.46-1.21.33,5.65,31.96,12.13,72.45-3.63,102.79-11.32,21.79-34.03,28.47-57.2,27.35-32.06-1.55-63.69-13.6-93.08-25.61-40.85-16.69-80.36-36.59-119.69-56.55-87.82-44.58-174.92-91.52-267.08-126.73-76.36-29.17-165.68-56.26-247.48-34.65-58.17,15.37-112.85,51.56-160.93,86.53-58.31,42.41-111.78,91.08-164.22,140.44-53.31,50.18-105.55,101.62-161.1,149.36-50.79,43.65-104.96,85.26-166,113.6-80.59,37.41-171.88,45.57-250.89-.74-71.22-41.74-125.9-110.31-175.45-174.84C14.35,139.22-36.88,63.58-92.41-8.9c-53.85-70.29-110.22-138.73-170.25-203.85-104.17-113-220.59-219.16-356.02-293.52-111.7-61.33-237.48-98.04-365.68-87.95-30.34,2.39-60.38,7.34-89.97,14.39-.78.19-.45,1.39.33,1.21h0Z" fill="#ccc"/><path d="m-1066.67-569.51c130.53-32.63,264.86-16.68,387.87,36.1,139.43,59.82,260.04,157.95,366.82,264.18C-182.24-140.15-74,5.82,35.38,151.92c49.81,66.53,101.63,134.17,165.9,187.54,61.97,51.46,136.68,78.65,217.6,65.88,132.37-20.88,240.71-121.22,335.92-208.09,107.48-98.06,212.85-206.6,344.55-272.28,42.84-21.37,84.35-33.61,132.45-31.74,45.09,1.75,89.55,12.68,132.29,26.63,95.4,31.12,184.98,78.01,274.27,123.18,40.27,20.38,80.56,40.86,121.93,58.96,30.99,13.55,63.21,26.79,96.73,32.49,20.66,3.52,44.95,4.54,62.57-8.82,18.79-14.25,23.04-39.88,23.5-62,.39-18.92-2-37.82-5.2-56.43-.14-.79-1.34-.46-1.21.33,5.41,31.53,11.56,71.6-4.52,101.26-11.54,21.28-34.18,27.62-57.03,26.49-32-1.58-63.52-13.49-92.9-25.41-40.66-16.49-80.02-36.14-119.21-55.83-87.09-43.77-173.57-89.8-265.12-123.74-75.46-27.97-164.2-53.48-244.2-29.61-59.09,17.63-114.47,54.58-163.74,90.63-57.22,41.86-110.14,89.25-162.31,137.14s-105.48,98.58-161.22,144.42c-51.25,42.14-106.1,81.96-167.58,107.84-81.49,34.3-172.02,37.38-249.81-8.71-69.27-41.03-123.42-106.31-172.67-168.72C20.29,132.29-31.24,57.81-86.83-13.6c-55.42-71.17-113.43-140.42-175.28-206.11-103.46-109.9-218.94-212.93-352.84-284.34-111.5-59.46-236.61-93.77-363.54-81.97-29.87,2.78-59.42,8.03-88.52,15.3-.78.19-.45,1.4.33,1.21h0Z" fill="#ccc"/><path d="m-1059.34-560.4c127.87-33.48,259.99-20.51,381.83,29.21,140.57,57.37,262.35,154.57,370.03,259.91C-177.88-144.48-69.75-.64,40.33,142.77c93.97,122.43,211.63,275.01,385.3,252.15,129.16-17,236.63-110.44,330.8-193.27C865.74,105.48,971.41-1.28,1101.97-68.85c43.38-22.45,85.36-37.22,134.55-36.28,44.03.84,87.59,10.84,129.46,23.93,95.2,29.75,184.54,75.96,273.47,120.43,39.7,19.85,79.41,39.83,120.14,57.51,30.95,13.43,63.1,26.54,96.53,32.24,20.67,3.53,44.91,4.63,62.65-8.53,18.79-13.94,23.3-39.23,23.88-61.17.49-18.47-1.74-36.93-4.77-55.12-.13-.79-1.34-.46-1.21.33,5.18,31.09,10.98,70.73-5.43,99.72-12.05,21.29-35.39,26.97-58.35,25.55-32.17-1.98-63.77-13.96-93.34-25.97-40.59-16.48-79.93-35.98-119.13-55.49-85.92-42.76-171.43-87.58-261.99-119.93-74.56-26.63-162.63-50.23-240.58-23.63-59.32,20.24-114.47,56.72-164.66,93.49-57.63,42.23-111.27,89.6-164.46,137.21-53.13,47.56-105.78,95.85-162.06,139.7-51.95,40.48-107.85,78.23-170.12,100.86-80.35,29.2-167.22,26.72-241.95-17.18-69.49-40.81-124.38-105.34-174.42-167.3C24.12,122.09-27.49,49.19-82.95-20.74c-55.66-70.18-113.87-138.44-175.87-203.12-184.4-192.35-430.51-384.21-713.49-353.98-29.51,3.15-58.67,8.72-87.37,16.23-.78.2-.45,1.41.33,1.21h0Z" fill="#ccc"/><path d="m-1052.01-551.29c127.33-34.88,259.41-23.85,381.65,24.7,139.7,55.49,261.04,150.71,368.48,254.14C-174.73-150.02-67.9-11.13,40.64,127.44c94.86,121.1,212.51,271.77,384.23,257.96,129.63-10.42,239.44-100.2,334.66-180.94C869.54,111.2,974.62,7.47,1102.58-61.47c43.96-23.68,87.07-41.59,137.49-41.9,43.82-.27,87.35,9.07,129.14,21.62,93.57,28.09,181.45,72.78,268.75,115.91,39.98,19.75,79.94,39.69,120.91,57.32,30.92,13.3,63,26.29,96.34,31.98,20.65,3.53,44.89,4.7,62.74-8.26,18.8-13.65,23.55-38.54,24.28-60.35.6-18.03-1.48-36.06-4.34-53.82-.13-.79-1.33-.46-1.21.33,4.96,30.79,10.49,70.45-6.68,98.74-12.51,20.62-36.01,25.65-58.62,24.11-31.83-2.17-63.09-13.88-92.41-25.69-39.97-16.09-78.74-35.09-117.39-54.1-86.02-42.3-171.73-86.72-262.61-117.9-73.14-25.09-159.41-46.42-234.83-18.29-61,22.75-117.43,59.85-169.61,98.21-57.99,42.64-112.33,89.97-166.56,137.23-53.55,46.66-106.97,93.76-164.37,135.7-50.89,37.18-105.75,71.13-166.19,90.27-81.3,25.75-167.23,18.17-240.73-26.1-69.47-41.84-124.94-105.92-175.89-167.92C25.5,108.34-25.72,37.81-80.51-29.89c-55.19-68.2-112.82-134.52-174.1-197.33-184.59-189.18-429.71-375.71-709.93-342.61-29.68,3.51-58.98,9.45-87.8,17.34-.77.21-.45,1.42.33,1.21h0Z" fill="#ccc"/><path d="m-1044.68-542.18c126.16-36.11,257.52-27.35,379.68,19.39,138.85,53.13,259.83,146.08,367.04,247.35C-171.27-155.77-64.55-19.53,44.13,116.06c95.23,118.82,212.04,264.54,380.13,259.44,127.7-3.87,238.16-87.06,333.26-164.27,112.97-91.72,219.23-195.04,347.33-266.04,43.9-24.33,87.98-44.95,138.8-46.61,42.66-1.39,85.26,6.88,126.14,18.46,93.83,26.57,181.92,70.8,269.25,113.39,39.4,19.22,78.78,38.63,119.11,55.83,30.63,13.07,62.35,25.78,95.3,31.56,20.88,3.66,45.48,5.09,63.69-7.84,18.52-13.15,23.65-37.18,24.63-58.55.82-17.9-1.13-35.83-3.87-53.5-.12-.79-1.33-.46-1.21.33,4.7,30.26,9.77,68.99-7.28,96.64-12.81,20.78-36.77,25.47-59.55,23.77-32.28-2.4-63.87-14.28-93.63-26.26-39.46-15.88-77.79-34.49-116.02-53.07-85.26-41.44-170.38-84.9-260.69-114.52-72.73-23.85-157.42-42.48-231.11-12.11-127.56,52.58-234.06,148.07-338.07,236.14-99.47,84.21-206.19,181.5-335.58,215.09-81.04,21.04-164.7,8.3-235.99-35.68-67.97-41.93-123.07-103.94-174-164.55C28.98,97.36-22.78,27.73-77.99-39.12c-54.71-66.23-111.75-130.62-172.31-191.57-184.85-186.03-428.95-367.12-706.47-331.18-29.86,3.87-59.3,10.2-88.24,18.48-.77.22-.44,1.43.33,1.21h0Z" fill="#ccc"/><path d="m-1037.35-533.07c125.47-37.48,256.62-30.8,379.11,14.53,137.03,50.71,256.9,140.7,363.31,239.11C-166.97-161.09-59.36-25.58,51,108.64c95.81,116.52,212.05,255.78,376.63,256.68,126.3.69,237.5-77.39,332.94-151.83,114.01-88.92,220.3-189.87,346.7-261.62,43.81-24.87,88.92-48.04,139.96-51.13,42.39-2.57,84.97,4.98,125.76,15.98,92.17,24.85,178.79,67.54,264.49,108.76,39.69,19.09,79.32,38.43,119.9,55.59,30.84,13.04,62.81,25.75,95.97,31.42,20.32,3.47,43.94,4.8,61.96-7.05,18.97-12.48,24.7-36.09,25.97-57.43,1.05-17.77-.77-35.6-3.39-53.16-.12-.79-1.32-.46-1.21.33,4.47,29.93,9.21,68.74-8.58,95.64-13.29,20.09-37.37,24.15-59.82,22.35-31.93-2.56-63.18-14.18-92.69-25.94-39.71-15.83-78.3-34.39-116.82-52.88-83.66-40.16-167.34-82.12-256.05-110.19-72.69-23-155.27-39.09-227.92-7.61-127.47,55.23-234.41,148.78-340.67,236.1-99.13,81.46-206.84,174.8-335.42,203.61-82.65,18.52-166.52,1.83-237.88-43.23-66.5-41.99-121.17-102.01-172.04-161.23C33.73,87.66-17.53,20.39-71.92-44.29c-55.51-66.02-113.36-130.16-174.77-190.75-184.06-181.6-425.31-356-698.29-319.43-31.41,4.21-62.34,11.14-92.69,20.2-.77.23-.44,1.44.33,1.21h0Z" fill="#ccc"/><path d="m-1030.02-523.95c124.3-38.72,254.77-34.36,377.23,9.1,136.19,48.34,255.74,136.02,361.97,232.27C-164.62-168.23-57.78-37.05,51.34,93.07c97.01,115.68,213.04,253.17,375.77,261.87,126.87,6.79,240.49-67.43,337.75-140.32,113.19-84.83,218.12-181.7,340.61-253.51,44.91-26.33,92.63-53.26,145.4-58.01,41.64-3.75,83.74,2.85,124.04,13.06,91.92,23.28,178.32,65.22,263.63,105.68,38.42,18.22,76.76,36.67,115.96,53.17,31.24,13.15,63.52,25.98,97.05,31.85,20.55,3.6,44.55,5.15,62.91-6.65,18.68-12.01,24.79-34.73,26.32-55.65,1.29-17.63-.39-35.37-2.89-52.81-.11-.79-1.32-.46-1.21.33,4.21,29.41,8.48,67.3-9.19,93.55-13.59,20.18-38.16,23.96-60.8,22.02-31.59-2.71-62.46-14.05-91.73-25.61-39.96-15.77-78.82-34.28-117.63-52.66-82.88-39.26-165.97-80.21-254.07-106.64-76.48-22.95-155.34-33.22-229.75,1.18-126.11,58.3-232.85,150.65-340.72,236.42-98.2,78.07-206.43,166.11-333.45,188.8-83.03,14.83-166.05-5.95-236.42-51.39-65.04-42-119.25-100.16-169.99-157.98C37.43,76.5-14.37,10.14-69.19-53.69c-55.02-64.06-112.28-126.28-172.98-185.01-185.37-179.38-427.18-348.85-698.85-307.35-30.29,4.63-60.09,11.78-89.34,20.89-.77.24-.44,1.45.33,1.21h0Z" fill="#ccc"/><path d="m-1022.69-514.84c123.13-39.95,252.96-37.98,375.4,3.61,135.37,45.98,254.61,131.29,360.68,225.39C-160.85-174.27-54.06-45.81,55.06,81.45c96.53,112.58,209.93,244.1,366.81,262.28,126.13,14.62,241.54-52.84,340.39-123.19,114.84-81.73,220.08-176.95,341.14-249.86,46.3-27.88,96.62-58.41,151.28-65.03,40.08-4.85,80.9.51,120,9.58,90.98,21.1,176.61,61.77,260.83,101.08,38.87,18.14,77.63,36.6,117.22,53.14,31.62,13.21,64.3,26.13,98.22,31.99,20.39,3.53,44.12,5.06,62.48-6.36,19.04-11.84,25.4-34.68,26.98-55.79,1.27-16.9-.22-33.91-2.51-50.66-.11-.79-1.31-.46-1.21.33,3.96,28.93,7.77,66.02-9.9,91.6-13.69,19.83-38.09,23.51-60.53,21.64-31.95-2.66-63.21-14.09-92.83-25.7-39.49-15.47-77.93-33.55-116.35-51.49-82.32-38.43-165.01-78.5-252.68-103.39-38.58-10.95-78.58-19-118.83-19.01-41.2,0-76.82,11.19-113.59,29.13-126.02,61.48-233.55,153.95-344.18,238.61-98.07,75.05-208.23,158.16-334.91,172.25-168.12,18.7-295.96-103.01-399.24-218.83C39.06,62.55-12.25-1.5-66.37-63.16c-55.64-63.39-113.52-124.91-174.87-182.82-185.14-174.76-424.76-336.3-691.95-292.21-30.48,5.03-60.45,12.61-89.83,22.14-.76.25-.44,1.45.33,1.21h0Z" fill="#ccc"/><path d="m-1015.36-505.73c121.18-40.92,249.43-41.61,371.23-2.7,133.54,42.66,251.79,124.4,357.1,215.15C-161.05-184.74-53.69-58.99,55.44,65.84c96.73,110.65,211.26,242.8,364.71,267.64,123.8,20.04,244.5-48.04,343.29-114.52,116.4-78.32,223.2-170.38,343.76-242.61,46.33-27.76,97.02-59.55,151.32-67.92,40.55-6.25,82.24-1.38,122.02,7.43,89.22,19.77,173.34,58.95,255.97,96.9,38.27,17.58,76.44,35.49,115.37,51.57,31.34,12.94,63.67,25.57,97.19,31.49,20.31,3.59,43.79,5.34,62.41-5.34,18.88-10.82,26.09-32.22,28.22-52.76,1.8-17.31.43-34.84-1.8-52.04-.1-.79-1.35-.8-1.25,0,3.7,28.48,7.09,64.69-10.48,89.68-13.67,19.43-37.73,23.17-59.92,21.45-31.38-2.43-62.12-13.41-91.28-24.61-38.75-14.89-76.49-32.34-114.2-49.67-81.61-37.5-163.59-76.7-250.48-100.56-37.83-10.39-77.03-17.91-116.4-17.56s-75.84,12.02-112.27,29.84c-127,62.1-236.97,152.83-350.62,235.6-99.83,72.71-211.19,151.02-337.57,164.2-165.11,17.22-297.3-113.98-399.04-226.27C40.68,48.53-10.15-13.3-63.59-72.85c-55.34-61.67-112.85-121.47-173.72-177.71-185.33-171.23-423.71-326.56-687.69-279.87-30.81,5.45-61.06,13.49-90.69,23.49-.76.26-.43,1.46.33,1.21h0Z" fill="#ccc"/><path d="m-1008.03-496.62c120.06-42.16,247.65-45.21,369.47-8.28,132.72,40.23,250.74,119.61,355.91,208.21C-157.52-191.29-50.4-68.77,58.24,52.94c96.88,108.53,208.54,234.64,356.91,268.05,122.41,27.57,244.62-33.07,345.21-96.87,117.81-74.72,224.97-164.98,344.13-237.72,30.51-18.63,61.76-36.09,93.95-51.65,20.7-10,41.13-18.95,63.8-23.26,39.25-7.45,79.98-3.79,118.88,3.97,88.43,17.66,171.99,55.72,253.74,92.6,67.9,30.63,138.32,68.82,212.33,82.16,20.59,3.71,44.43,5.67,63.42-4.95,18.55-10.37,26.14-30.9,28.56-51.01,2.06-17.15.85-34.58-1.24-51.66-.1-.79-1.35-.8-1.25,0,3.43,27.94,6.34,63.27-11.09,87.6-14,19.54-38.56,22.99-60.95,21.14-31.82-2.63-62.96-13.76-92.57-25.09-38.23-14.63-75.51-31.65-112.79-48.51-80.81-36.54-162.22-74.68-248.45-96.75-37.7-9.65-76.83-16.25-115.86-14.47-43.15,1.96-79.38,17.72-117.44,37.27-124.73,64.07-234.12,152.98-348.62,232.95-100.64,70.29-214.28,144.05-340.79,149.57-160.39,7-290.47-123.37-390.92-232.24C-12.07-24.34-114.42-148.05-234.36-256.22c-186.06-167.8-423.64-316.5-684.75-266.06-30.35,5.86-60.1,14.22-89.26,24.45-.75.26-.43,1.47.33,1.21h0Z" fill="#ccc"/><path d="m-1000.7-487.51c118.96-43.41,245.89-48.85,367.77-13.93,133.51,38.25,252.54,116.6,358.6,204.38C-149.89-194.07-43.07-74.02,65.57,44.9c98.86,108.21,210.58,230.24,359.03,265.33,118.9,28.1,233.26-17.5,334.12-78.03,118.41-71.06,224.61-160.43,341.4-233.99,29.54-18.61,59.71-36.26,90.76-52.26,22.67-11.68,45.73-23.8,70.59-30.08,38.37-9.69,78.89-7.66,117.58-1.05,88.56,15.12,172.47,52.49,254.09,88.61,68.05,30.12,138.25,67.63,212.09,81.19,20.88,3.83,45.08,6,64.47-4.57s26.41-30.22,29-50.2c2.16-16.7,1.14-33.68-.78-50.34-.09-.79-1.34-.8-1.25,0,3.23,27.99,5.79,63.98-13.19,87.47-14.6,18.08-38.81,20.76-60.53,18.86-32.27-2.82-63.83-14.1-93.89-25.55-38.59-14.7-76.27-31.72-113.99-48.48-79.95-35.53-160.84-72.48-246.43-92.27-36.73-8.49-74.85-13.78-112.58-10.59-45.99,3.9-85.78,24.75-125.8,46.52-121.6,66.15-229.09,154.18-343.4,231.53-98.15,66.41-210.54,133.76-333.21,130.96-159.99-3.65-285.34-122.97-388.62-232.36C-4.71-30.61-107.46-152.43-227.48-258.59c-187.48-165.83-425.76-310.16-685.73-255.53-29.88,6.28-59.15,14.94-87.82,25.4-.75.27-.43,1.48.33,1.21h0Z" fill="#ccc"/><path d="m-993.37-478.4c117.88-44.67,244.17-52.51,366.11-19.66,132.72,35.75,251.59,111.66,357.57,197.3C-147.05-201.66-41.06-85.91,66.07,29.2c99.36,106.77,209.32,225.59,353.84,267.93,118.71,34.78,234.99-4.1,338.9-62.72,118.18-66.67,223.9-153,338.24-225.71,29.88-19,60.31-37.18,91.56-53.86,24.29-12.97,49.16-26.91,75.64-34.89,37.42-11.28,77.49-10.55,115.83-4.93,87.44,12.84,170.62,48.9,251.13,83.79,68.13,29.53,137.93,66.18,211.46,80.11,20.92,3.96,44.99,6.39,64.76-3.38,19.31-9.55,27.93-29.57,30.8-49.96,2.29-16.28,1.43-32.88-.31-49.16-.09-.79-1.34-.8-1.25,0,2.96,27.53,5.01,62.7-13.94,85.53-15.09,18.18-39.94,20.46-61.96,18.36-32.09-3.06-63.44-14.14-93.41-25.44-39.02-14.71-77.14-31.71-115.35-48.37-78.49-34.22-158.16-69.64-242.32-87.41-36.73-7.75-74.86-12.04-112.29-7.33-46.94,5.9-88.92,30.28-129.57,53.03-120.26,67.31-227.9,154-343.57,228.44-98.96,63.69-212.63,125.23-334.25,115.69-157.12-12.32-280.79-131.47-384.14-239.33C-3.25-44.29-106.36-163.06-226.25-266.15c-100.24-86.19-210.77-164.68-335.12-211.85-109.96-41.71-228.7-54.11-343.95-28.39-30.09,6.72-59.55,15.85-88.37,26.77-.75.28-.42,1.49.33,1.21h0Z" fill="#ccc"/><path d="m-986.04-469.29c117.33-46.13,243.51-56.24,365.98-25.08,131,33.33,248.83,106.21,354.17,189.04C-141.89-207.84-34.76-93,73.65,20.96c99.48,104.56,208.39,219.23,349.42,265.02,116.88,37.96,233.07,4.92,338.05-50.91,118.45-62.99,224.33-146.89,337.31-218.72,29.47-18.74,59.4-36.78,90.04-53.55,25.93-14.2,52.68-29.58,80.77-39.13,35.76-12.15,74.44-12.73,111.61-8.25,86.93,10.47,169.98,45.6,249.93,79.5,68.32,28.97,138.19,65.24,211.75,78.75,20.7,3.8,44.36,6.07,63.97-3.36s28.43-29.36,31.4-49.9c2.26-15.59,1.58-31.48.03-47.1-.08-.79-1.33-.8-1.25,0,2.71,27.36,4.28,62.39-15.44,84.45-15.56,17.41-40.41,19.22-62.22,17.05-31.74-3.17-62.72-13.94-92.44-24.98-38.38-14.26-75.92-30.69-113.55-46.78-78.52-33.56-158.49-68.42-242.84-84.31-35.14-6.62-71.49-9.78-107.02-4.47-48.15,7.2-91.92,33.96-133.55,57.62-118.71,67.46-226.28,152.15-342.42,223.66-99.35,61.17-213.29,117.83-333.43,104.58-155.61-17.16-279.26-136.06-383.43-242.85C2.6-53.15-99.72-168.06-217.89-267.8c-101.49-85.66-213.62-163.53-339.45-208.63-109.25-39.16-226.36-49.07-339.72-22.34-30.44,7.18-60.21,16.83-89.31,28.27-.74.29-.42,1.5.33,1.21h0Z" fill="#ccc"/><path d="m-978.7-460.18c116.27-47.4,241.89-60.02,364.45-30.98,128.68,30.48,245.1,99.54,349.42,178.97C-141.06-217.97-33.68-106.23,74.22,5.19c100.31,103.57,208.38,216.51,346.63,267.69,56.23,20.82,115.69,27.71,175.06,19.13,56.37-8.15,110.31-28.49,161.26-53.42,119.45-58.45,225.9-140.28,337.7-211.53,56-35.69,114.34-73.19,176.11-98.18,34.17-13.82,71.83-16.14,108.23-13.01,86.19,7.4,169.09,41.34,248.27,74.07,68.78,28.43,138.7,64.12,212.36,78.03,21.13,3.99,45.29,6.54,65.45-2.79,19.29-8.92,28.66-27.99,31.98-48.15,2.55-15.46,2.04-31.29.63-46.83-.07-.79-1.32-.8-1.25,0,2.44,26.93,3.46,61.1-16.22,82.52-16.08,17.5-41.6,18.91-63.74,16.54-31.54-3.38-62.32-13.94-91.94-24.81-37.95-13.93-75.11-29.91-112.39-45.5-77.85-32.57-157.46-66.38-241.2-80.26-35.13-5.82-71.52-7.9-106.65-.98-17.94,3.54-34.56,9.86-50.98,17.76-30.97,14.9-61.2,31.29-90.87,48.61-115.84,67.61-222.53,149.65-338.48,217.04-102.43,59.53-219.58,110.15-340.47,87.96-149.86-27.52-269.37-143.61-372.49-247.83C4.17-66.95-98.44-178.87-216.48-275.55c-100.4-82.23-211.04-156.37-334.61-198.64-109.82-37.56-227.23-45.07-340.07-16.44-29.97,7.61-59.25,17.56-87.88,29.23-.74.3-.41,1.51.33,1.21h0Z" fill="#ccc"/><path d="m-971.22-451.13c116.54-49.25,242.92-63.91,366.79-36.03,128.01,28.8,244.31,96.12,348.58,173.92C-133.27-221.79-26.48-113.09,80.71-4.59c99.41,100.62,205.09,208.94,338.09,264.04,56.63,23.46,117.03,33.61,178.09,27.16,54.88-5.8,107.83-23.38,157.97-45.91,120.99-54.36,228.65-134.63,340.2-205.38,57.43-36.42,116.13-72.06,177.92-100.69,34.25-15.87,72.08-19.94,109.45-17.59,84.21,5.31,165.67,37.44,243.15,68.62,68.95,27.75,138.67,62.68,212.14,76.73,21.47,4.1,46.02,6.83,66.6-2.43,19.58-8.81,29.24-27.88,32.66-48.26,2.47-14.72,2.13-29.78.93-44.6-.06-.8-1.32-.8-1.25,0,2.18,26.78,2.65,60.82-17.8,81.41-16.58,16.69-42.02,17.7-64.01,15.26-32.01-3.55-63.22-14.22-93.33-25.17-37.39-13.6-74.08-29.08-110.9-44.12-77.78-31.77-157.79-64.82-241.64-76.04-34.17-4.58-69.52-5.19-103.17,3.21-20.12,5.03-38.33,14.03-56.79,23.32-30.44,15.32-60.21,31.91-89.53,49.27-115.22,68.2-222.74,149.12-340.49,213.08-105.36,57.23-224.66,100.14-345.11,69.34C329.85,239.82,214.51,127.23,112.26,25.35,5.85-80.69-97.07-189.68-215-283.34c-100.29-79.65-210.84-150.95-333.71-189.98-110.79-35.19-228.43-39.36-340.64-8-28.13,7.86-55.61,17.75-82.51,29.12-.74.31-.1,1.39.63,1.08h0Z" fill="#ccc"/><path d="m-963.89-442.02c114.9-50.29,239.97-67.64,363.41-42.59s244.91,91.09,349.77,167.14C-128.53-228.87-21.77-122.9,84.98-16.82c100.58,99.96,206.62,207.67,338.51,265.48,53.82,23.59,111.34,35.84,170.16,32.56,55.63-3.1,109.82-18.68,161.11-39.86,118.82-49.08,224.97-124.86,333.1-193.21,58.06-36.7,116.95-72.32,178.43-103.05,36.89-18.44,73.08-27.8,114.53-26.85,83.7,1.93,165.52,33.06,242.56,63.16,69.55,27.17,139.68,61.82,213.53,75.68,21.37,4.01,45.64,6.65,66.21-2.23,19.32-8.34,29.46-26.51,33.26-46.51,2.77-14.59,2.61-29.58,1.55-44.33-.06-.8-1.31-.8-1.25,0,1.89,26.37,1.79,59.52-18.61,79.47-17.13,16.75-43.27,17.37-65.63,14.75-31.81-3.73-62.82-14.18-92.84-24.93-37.83-13.55-74.98-28.95-112.31-43.8-75.93-30.2-154.35-61.36-236.18-70.42-34.57-3.83-70.33-3.25-103.82,7-22.79,6.98-43.98,18.89-64.98,29.91-30.43,15.97-60.28,33.04-89.75,50.72-112.61,67.58-219.41,145.62-336.76,205.09-106.8,54.13-226.13,89.39-344.56,53.32-72.27-22.02-137.49-64.08-196.61-110.24C218.15,110.79,166.08,61.25,115.01,11.11,9.84-92.12-92.58-197.64-209.41-288.05c-101.32-78.41-213.1-148.11-336.9-184.4-109.68-32.15-225.29-33.47-335.12-1.22-28.36,8.33-56.03,18.72-83.1,30.57-.74.32-.1,1.4.63,1.08h0Z" fill="#ccc"/><path d="m-956.56-432.91c113.29-51.34,237.06-71.37,360.06-49.18,127.28,22.96,244.1,85.14,349.02,158.8C-125.59-237.74-18.72-134.65,87.49-30.88c101.34,99,206.75,205.26,336.34,266.81,52.39,24.88,108.68,39.67,166.86,39.3,55.99-.35,111.12-13.73,163.32-33.33,119.31-44.8,226.11-118.3,333.54-185.45,57.57-35.99,115.67-71.3,176.01-102.5,39.34-20.34,75.72-33.88,120.46-34.04,82.09-.3,162.97,29.28,238.71,57.97,69.25,26.24,138.76,59.8,211.93,73.64,43.25,8.18,90.38,3.6,101.05-46.68,3.06-14.41,3.08-29.3,2.18-43.94-.05-.8-1.3-.8-1.25,0,1.61,26.12.89,58.63-19.79,77.87-17.6,16.37-43.95,16.68-66.41,13.98-32.29-3.88-63.76-14.42-94.29-25.22-37.27-13.19-73.92-28.04-110.78-42.3-74.63-28.86-152.1-58.52-232.5-65.34-34.15-2.9-69.38-1.14-101.92,10.38-24.91,8.82-48.41,22.56-71.6,35.06-29.93,16.13-59.35,33.18-88.48,50.71-112.21,67.51-220,144.27-338.91,199.95-108.26,50.69-227.13,78.08-343.28,37.21-70.45-24.8-133.87-67.61-192.05-113.68C221.5,95.84,170.17,47.49,119.64-1.36,15.07-102.44-87.35-205.29-203.78-293.03c-101.27-76.31-212.95-143.61-336.08-177.44-109.73-30.15-224.78-29.19-333.62,4.41-28.59,8.83-56.47,19.72-83.71,32.07-.73.33-.1,1.41.63,1.08h0Z" fill="#ccc"/><path d="m-949.23-423.8c111.86-52.46,234.5-75.12,357.2-55.72,125.04,19.77,240.65,77.95,344.7,148.14C-125.89-249.46-18.96-149.73,86.37-48.52c101.68,97.72,205.6,202.05,331.61,268.32,52.61,27.67,109.55,46.26,169.2,48.85,54.63,2.37,109-7.85,160.76-24.84,119.07-39.08,226.04-109.29,331.93-174.64,58.11-35.87,116.4-71.55,176.63-103.78,40.99-21.94,78.87-41.05,125.91-43.4,80.85-4.04,161.69,24.04,236.55,51.35,69.8,25.47,139.45,58.41,212.76,72.52,42.68,8.22,91.44,5.47,103.32-44.41,3.39-14.25,3.61-29.09,2.87-43.64-.04-.8-1.29-.81-1.25,0,1.31,25.92-.04,57.91-21.14,76.4-17.98,15.75-44.28,15.84-66.68,13.12-71.38-8.66-140.3-41.89-207-66.85-73.87-27.65-151.17-55.99-230.73-59.72-33.44-1.57-67.67,1.89-98.74,15.02-57.98,24.49-113.01,59.33-166.8,91.74-110.53,66.59-218.24,140.79-337.2,191.94-54.17,23.29-111.3,41.4-170.27,46.7s-119.29-3.94-174.96-26.6c-68.83-28.01-130.73-71.95-188.2-118.45S168.1,27.94,116.89-20.99C14.61-118.7-86.74-217.02-201.29-300.58c-100.85-73.55-212.02-137.7-333.88-168.52-110.13-27.85-224.84-24.06-332.8,11.39-27.98,9.19-55.24,20.32-81.89,32.82-.73.34-.09,1.42.63,1.08h0Z" fill="#ccc"/><path d="m-941.9-414.69c110.98-53.83,233.03-79.04,355.95-62.09,124.32,17.14,239.92,72.7,344.07,140.76C-120.84-256.94-13.98-159.88,90.79-60.86c101.74,96.15,204.6,198.62,327.71,267.47,51.21,28.64,106.66,49.43,165.38,54.87,54.22,5.02,108.76-2.53,160.93-17.45,118.5-33.9,225.55-100.73,330.09-164.1,58.98-35.75,117.84-71.79,178.37-104.89,41.71-22.81,81.96-46.24,130.06-50.6,79.65-7.22,160.45,19.48,234.56,45.52,69.99,24.59,139.62,56.86,212.86,70.64,42.67,8.03,91.82,5.48,104-44.33,3.32-13.56,3.69-27.68,3.15-41.56-.03-.8-1.28-.81-1.25,0,1,25.56-.97,56.6-22,74.47-18.33,15.58-44.91,15.5-67.49,12.74-71.49-8.72-140.46-41.3-207.59-65.56-73.13-26.43-150.29-53.47-228.94-54.22-32.83-.32-65.78,4.85-95.55,19.18-60.45,29.1-118.42,63.7-175.88,98.22-109.92,66.04-218.68,138.35-338.97,184.51-53.34,20.47-109.43,35.2-166.74,37.44-62.28,2.43-122.81-11.39-179.1-37.8-65.87-30.9-125.27-75-181.18-121.11C219.47,58.27,168.5,10.71,117.84-37.04,16.31-132.73-85.1-228.26-199.48-308.75c-100.87-70.99-212.01-132.08-333.17-159.56-109.72-24.89-223.23-18.11-329.45,18.88-27.48,9.57-54.25,20.97-80.43,33.66-.72.35-.09,1.43.63,1.08h0Z" fill="#ccc"/><path d="m-934.57-405.58c108.45-54.38,227.86-82.23,349.23-69.2,124.32,13.35,240.86,65.93,345.79,131.87C-119.82-267.67-13.6-174.49,89.67-78.49,190.95,15.66,291.79,115.53,410.39,188.06c52.22,31.94,108.88,56.89,169.84,65.59,52.44,7.48,105.78,3.09,157.18-8.99,119.3-28.02,227.8-92.24,332.19-154.11,58.44-34.64,116.46-70.01,175.78-103.14,43.03-24.03,86.86-52.53,136.49-59.79,77.99-11.4,158.84,13.57,231.99,38.08,70.56,23.65,140.37,55.23,213.76,69.24,42.15,8.04,92.95,7.27,106.41-42.08,3.65-13.39,4.24-27.46,3.87-41.26-.02-.8-1.27-.81-1.25,0,.7,26.05-2.23,57.42-25.01,74.2-18.94,13.95-44.97,13.41-67.21,10.59-71.26-9.03-139.9-40.62-207.23-64.03-72.38-25.16-149.47-50.84-227.09-48.41-37.77,1.18-70.25,11.84-103.57,29.08-59.26,30.64-116.79,64.47-174.08,98.61-108.86,64.87-218.17,134.58-338.89,175.52-54.32,18.43-111.39,30.2-168.96,28.88-61.43-1.41-120.06-18.83-174.46-46.92-64.7-33.41-123.13-78.56-178.75-125.2C219.02,39.99,168.86-6.54,118.8-53.1,18.25-146.62-82.98-239.13-196.86-316.48c-100.5-68.27-211.13-126.09-331.01-150.58-109.43-22.36-221.81-12.9-326.63,25.28-27.6,10.05-54.46,21.96-80.71,35.12-.72.36-.09,1.44.63,1.08h0Z" fill="#ccc"/><path d="m-927.24-396.47c107.64-55.79,226.48-86.17,348.07-75.69,123.64,10.66,240.15,60.5,345.32,124.28C-114.36-275.41-8.19-184.63,94.59-90.55,195.65,1.94,295.37,100.17,411.15,174.45c50.72,32.54,105.62,59.28,165.14,70.73,52.36,10.08,106.21,8.36,158.42-1.74,117.72-22.77,225.73-82.72,328.5-141.97,58.29-33.61,115.88-68.42,174.43-101.57,29.31-16.6,58.85-32.8,88.8-48.22,17.64-9.09,35.41-16.35,54.92-20.31,76.48-15.53,157.66,7.76,230.17,30.88,70.73,22.55,140.4,53.25,213.58,67.19,41.61,7.93,93.55,8.48,108.2-40.11,3.98-13.19,4.78-27.14,4.59-40.83-.01-.8-1.26-.81-1.25,0,.36,25.65-3.23,55.95-25.78,72.13-19.46,13.96-45.99,13.23-68.65,10.32-71.65-9.18-140.58-40.21-208.65-62.82s-148.14-47.7-224.29-41.83c-41.16,3.17-74.32,19.18-110.33,38.39-59.16,31.56-116.88,65.71-174.67,99.69-107.33,63.11-216.71,129.57-337.02,164.91-53.82,15.81-110.11,24.53-166.26,20.51-62.18-4.46-120.79-25.24-174.88-55.7C325.37,126.1,223.23,25.81,121.79-67.31,22.58-158.38-77.89-247.74-190.64-322.01c-100.58-66.25-211.22-121.6-330.51-143.55-109.55-20.16-221.43-8.36-325.35,31.25-27.84,10.61-54.92,23.06-81.37,36.76-.71.37-.08,1.45.63,1.08h0Z" fill="#ccc"/><path d="m-919.91-387.36c106.38-56.96,224.06-89.91,345.34-82.42,122.19,7.55,238.26,53.77,343.19,114.77C-112.47-285.9-6.5-198.24,95.38-106.47,195.78-16.03,293.78,79.91,405.6,156.44c50.49,34.55,105.08,64.34,164.81,79.17,50.44,12.52,102.89,14.15,154.29,7.14,118.1-16.12,227.61-72.53,330.45-129.84,58.43-32.55,115.88-66.82,173.97-99.98,29.61-16.9,59.38-33.54,89.5-49.53,20.27-10.77,40.16-21.73,62.46-27.65,75.04-19.92,156.97,1.77,229.12,23.57,70.63,21.34,139.96,51.01,212.68,64.72,40.99,7.73,93.78,9.42,109.64-38.13,4.34-13,5.39-26.88,5.39-40.5,0-.8-1.25-.81-1.25,0,0,25.84-4.53,55.75-27.98,71.02-20.63,13.44-48,12.02-71.32,8.76-70.74-9.88-138.64-39.31-206.36-60.73-70.58-22.33-147.43-44.73-222.23-35.29-43.57,5.5-79.8,26.96-117.82,47.74-57.91,31.64-114.73,65.23-171.88,98.22-107.18,61.88-217.86,125.85-339.04,155.7-55.57,13.69-113.44,19.13-170.31,11.14-60.84-8.55-117.39-32.69-169.55-64.58C322.84,105.67,222.31,6.79,120.89-85.1,22.66-174.1-77.63-260.47-190.01-331.39c-100.24-63.26-210.38-115.04-328.32-133.48-109.4-17.1-220.17-2.29-322.67,38.97-27.22,10.96-53.68,23.61-79.54,37.46-.71.38-.08,1.46.63,1.08h0Z" fill="#ccc"/><path d="m-912.58-378.25c105.62-58.4,222.81-93.99,344.3-89.14,121.52,4.85,237.6,48.16,342.85,107.04C-107.7-294.49-2.51-209.97,98.09-120.71,198.32-31.77,295.29,62.89,404.45,141.05c49.59,35.51,102.98,67.09,161.74,84.65,51.62,15.43,105.92,19.59,159.44,14.08,115.56-11.89,223.71-63.47,324.78-117.76,57.5-30.89,113.85-63.86,170.51-96.24,29.78-17.02,59.64-33.9,89.77-50.29,22.73-12.37,45.49-26.4,70.14-34.64,72.42-24.22,153.92-5.18,224.97,14.84,71.57,20.17,141.49,49.3,214.75,62.96,40.86,7.61,94.66,10.11,111.43-37.05,4.47-12.58,5.74-26.04,5.93-39.31.01-.8-1.24-.8-1.25,0-.38,25.58-5.66,54.41-29,69.08-21.36,13.43-49.5,11.69-73.4,8.28-70.97-10.11-139.07-38.78-207.45-59.17-69.1-20.6-144.97-40.74-217.46-28.07-45.98,8.04-86.25,34.61-126.41,56.91-57.86,32.13-114.91,65.7-172.57,98.19-105.35,59.35-215.43,119.1-335.04,143.37-55.79,11.32-113.45,13.77-169.56,3.17-60.34-11.4-115.91-37.99-167.17-71.19C324.17,88.76,225.04-8.87,123.8-99.46,26.36-186.65-73.68-270.54-185.72-338.61c-100.39-60.99-210.55-109.87-327.84-125.32-109.69-14.45-219.97,3.3-321.56,46.32-26.72,11.31-52.69,24.24-78.08,38.28-.7.39-.07,1.47.63,1.08h0Z" fill="#ccc"/><path d="m-905.25-369.14c104.41-59.6,220.52-97.81,341.65-96.03,119.26,1.76,234.08,40.79,338.61,96.25C-107.74-306.71-2.7-225.33,97-138.33,197.63-50.51,294,43.39,400.92,123.66c48.84,36.67,101.13,70.24,158.98,90.79,51.06,18.14,105.28,25.4,159.34,22.58,114.82-5.98,223.73-53.51,324.6-105.38,57.59-29.61,113.83-61.77,170.11-93.78,29.36-16.7,58.74-33.39,88.29-49.74,25.61-14.17,51.25-30.16,78.35-41.35,70.46-29.09,152.73-12.24,223.61,6.36S1744.55-.41,1816.95,13.08c41.02,7.64,96.57,11.4,114.48-35.76,4.61-12.14,6.08-25.22,6.47-38.12.02-.8-1.23-.8-1.25,0-.79,25.84-7.16,54.21-31.39,67.93-22.06,12.49-50.12,10.52-74.26,7.03-71.21-10.29-139.52-38.16-208.56-57.37-67.96-18.91-143.35-36.77-213.67-20.29-16.7,3.91-32.24,10.19-47.38,18.16-29.29,15.42-58.26,31.43-87.12,47.63-57.38,32.2-114.25,65.31-171.99,96.87-104.18,56.94-214.2,112.65-332.7,131.29-56.33,8.86-114.08,8.14-169.63-5.35-60.59-14.71-115.76-44.41-166.76-79.66C321.18,68.02,222.83-29.08,120.96-118.96,25.1-203.53-74.13-283.82-185-348.13c-98.31-57.03-205.85-101.59-319.52-114.49-109.15-12.39-218.37,7.06-318.8,50.72-28.3,12.3-55.77,26.39-82.56,41.69-.7.4-.07,1.48.63,1.08h0Z" fill="#ccc"/><path d="m-897.92-360.03c103.26-60.83,218.26-101.61,339.04-102.99,117.81-1.34,232.15,33.97,336.57,86.63C-105.66-317.57-.96-239.12,97.83-154.27,199.49-66.94,295.94,27.17,401.87,109.41c47.36,36.77,97.73,71,153.53,93.67,49.61,20.15,102.74,30.33,156.26,30.34,113.28.03,222.19-42.31,322.61-91.19,117.13-57.02,227.11-127.21,342.82-186.85,68.52-35.32,150.61-22.42,222.41-5.3,72.07,17.18,141.94,44.34,214.9,57.67,40.61,7.42,96.88,12.08,116.15-33.88,5.01-11.94,6.76-24.93,7.37-37.77.04-.8-1.21-.8-1.25,0-1.23,25.64-8.41,52.82-32.51,66-22.83,12.49-51.74,10.2-76.53,6.58-71.44-10.42-139.99-37.44-209.71-55.33-67.64-17.35-143.72-32.95-212.23-11.27-20.26,6.41-38.54,17.11-57.13,27.21-28.48,15.47-56.77,31.3-85.01,47.2-56.61,31.89-113,64.19-170.49,94.46-104.37,54.96-215.95,107.01-334.75,118.85-55.29,5.51-111.34,1.27-164.68-14.62-59.76-17.8-113.77-49.82-163.88-86.34C320.64,49.37,223.6-46.52,121.96-135.04,26.45-218.21-73.05-296.3-184.24-357.69c-98.01-54.11-205.05-94.99-317.33-104.48-108.15-9.14-215.58,12.96-314.08,57.65-28.44,12.9-56.01,27.56-82.91,43.41-.69.41-.06,1.49.63,1.08h0Z" fill="#ccc"/><path d="m-890.59-350.92c102.68-62.41,217.14-105.77,338.17-110.08,116.25-4.14,229.98,27.7,334.14,77.64C-101.82-327.52,2.77-251.45,100.99-168.25,200.87-83.63,295.06,7.81,396.79,90.22c90.09,72.98,189.46,132.5,307.94,138.64,110.57,5.73,218.52-30.63,317.86-75.85,119.19-54.25,231.21-122.84,346.08-185.38,36.01-19.6,70.35-31.45,111.65-32.75,38.41-1.22,76.79,4.55,114.26,12.49,73.05,15.47,143.59,41.96,217.12,55.09,40.95,7.31,98.55,12.52,118.57-33.59,4.92-11.32,6.83-23.64,7.64-35.88.05-.8-1.2-.8-1.25,0-1.7,25.69-9.93,52.03-34.38,64.44-23.62,11.99-52.9,9.49-78.21,5.79-71.67-10.48-140.49-36.61-210.88-52.99-66.68-15.51-142.23-28.25-208.02-2.33-22.73,8.95-43.91,22.29-65.24,34.07-29.43,16.26-58.72,32.76-88.03,49.22-55.41,31.11-110.89,62.17-167.65,90.78-104.75,52.8-217.79,100.72-336.59,105.81-55.15,2.36-110.42-5.42-162.43-24.07-61.2-21.94-115.92-58.28-166.94-97.98C316.12,26.21,223.11-64.9,125.05-149.33,30.95-230.36-67.5-305.67-177.47-364.12c-98.81-52.52-206.69-90.95-319.12-97.48-108.45-6.31-215.43,18.75-313.12,65.26-27.95,13.31-55.05,28.27-81.5,44.35-.69.42-.06,1.5.63,1.08h0Z" fill="#ccc"/><path d="m-883.26-341.81c101.61-63.7,215-109.64,335.65-117.22,114.79-7.22,228.05,20.82,332.15,67.95C22.43-283.39,198.92-90.6,395.96,74.17c87.83,73.44,184.28,136.75,300.74,149.12,109.46,11.62,218.08-19.58,317.93-61.98,118.12-50.15,228.73-116.31,340.76-178.42,39.56-21.93,75.33-41.56,121.02-45.57,38.29-3.36,76.96,1.11,114.6,8.06,73.07,13.49,143.47,38.75,216.62,51.63,41.28,7.27,100.76,13.62,122.07-32.43,5.04-10.89,7.18-22.79,8.21-34.67.07-.8-1.18-.8-1.25,0-2.22,25.81-11.55,51.17-36.35,62.88s-54.13,8.79-79.98,5.02c-71.89-10.47-141.02-35.66-212.08-50.32-65.54-13.52-139.83-22.94-202.52,6.67-56.59,26.73-110.41,61-165.11,91.4-54.69,30.4-109.72,60.3-166.18,87.31-104.22,49.85-217.32,92.63-334.5,91.62-57.65-.49-114.77-12.37-167.69-35.3-57.34-24.85-108.71-61.59-157.05-100.77C314.93,7.15,222.51-83.56,124.14-167.1,31.62-245.66-65.73-317.77-174.35-372.75c-98.58-49.9-205.96-84.91-317.07-88.41-108.97-3.43-215.69,24.69-312.79,73.21-27.32,13.65-53.81,28.84-79.67,45.06-.68.43-.05,1.51.63,1.08h0Z" fill="#ccc"/><path d="m-875.92-332.7c100.6-65.04,212.91-113.53,333.16-124.45,113.33-10.29,226.09,13.89,330.17,58.21C24.58-297.97,201.55-109.19,393.19,56.28c87.32,75.4,182.77,143.45,299.48,161.05,107.68,16.24,215.99-9.78,315.87-49.17,116.12-45.8,224.7-108.82,333.38-169.65,41.49-23.22,81.51-50.13,129.27-57.64,38.41-6.04,77.85-3.03,116.07,2.89,73.05,11.32,143.34,35.27,216.09,47.83,41.71,7.2,103.09,14.62,125.79-31.31,5.17-10.46,7.53-21.96,8.77-33.48.09-.8-1.16-.79-1.25,0-2.83,26.25-13.59,50.8-39.16,61.6s-54.83,7.8-81.09,4.02c-72.11-10.39-141.59-34.56-213.3-47.27-68.78-12.19-139.72-15.36-202.59,19.32-111.05,61.25-220.34,126.61-336.14,178.72-103.88,46.74-216.98,84.09-332.35,77.05-57.93-3.54-114.53-18.71-166.65-44.22-55.8-27.31-105.77-65.29-153.14-105.12C222.63-88.55,53.44-274.21-173.44-382.61c-97.73-46.69-203.83-77.77-312.76-78.23-108.66-.46-214.36,30.27-310.31,80.19-27.45,14.28-54.06,30.08-80.05,46.87-.67.44-.05,1.52.63,1.08h0Z" fill="#ccc"/><path d="m-868.59-323.59c99.14-66.08,209.76-116.95,328.95-131.55,110.33-13.51,221.21,5.73,324.25,45.95C21.86-316.55,200.24-131.61,386.52,34.67c85.93,76.71,178.96,149.72,294.06,174.44,106.69,22.92,216.07,3.12,317.42-33.12,115.4-41.26,223.16-101.63,329.76-161.37,29.51-16.54,58.89-33.32,88.54-49.61,16.1-8.85,32.95-15.48,50.86-19.63,36.49-8.45,74.63-7.53,111.62-3.32,75.02,8.54,147.06,32.08,221.37,44.39,41.66,6.91,103.64,14.87,127.96-29.65,5.59-10.23,8.29-21.65,9.79-33.12.1-.8-1.15-.79-1.25,0-3.51,26.75-15.83,50.36-42.14,60.31s-55.59,6.84-82.25,3.07c-72.32-10.22-142.2-33.32-214.54-43.8-35.21-5.1-71.22-7.75-106.65-3.35-39.2,4.86-70.21,21.04-104.27,40.12-111.6,62.52-222.73,127.68-341.31,176.33-102.41,42.01-213.65,71.71-325.09,58.16-123.41-15.01-223.68-85.01-315.01-164.85C221.27-111.26,50.95-293.34-176.35-394.24c-97.1-43.1-202.08-69.59-308.81-66.31-107.04,3.29-210.35,36.58-304.05,87.36-27.44,14.87-54.04,31.21-80.01,48.52-.67.44-.04,1.53.63,1.08h0Z" fill="#ccc"/><path d="m-861.26-314.48c95.62-65.7,201.92-118.1,317.15-137.4,108.79-18.22,219.49-4.66,323.18,31.69C14.78-337.56,194.41-158.42,374.08,7.31c85.13,78.52,175.67,157.25,289,190.56,102.88,30.24,211.11,19.48,312.49-11.28,116.43-35.32,225.04-93.16,331.01-151.95,28.84-16,57.55-32.22,86.27-48.43,21.53-12.15,42.63-25.72,66.16-33.72,35-11.91,72.68-13.64,109.3-11.32,75.67,4.81,148.51,26.98,222.98,39.37,42.28,7.03,107.07,17.34,134.71-25.59,6.63-10.3,9.99-22.18,11.87-34.18.12-.79-1.08-1.13-1.21-.33-4.17,26.61-17.45,49.1-43.66,58.56-26.01,9.39-55.71,6.7-82.56,3.17-72.44-9.55-142.64-31.53-215.33-39.83-35-4-70.8-5.2-105.62,1.07-44.05,7.93-80.52,32.28-118.96,53.96-110.23,62.17-221.36,125.35-340.35,169.45-105.41,39.07-219.61,61.78-331.33,38.72-119.8-24.73-215.57-100.59-304.08-180.94C218.36-135.59,48.39-311.23-175.66-404.18c-97.41-40.42-202.43-62.94-308.16-55.97-106.65,7.02-208.72,43.51-301.14,96.11-26.36,15-51.94,31.31-76.93,48.49-.66.45-.03,1.54.63,1.08h0Z" fill="#ccc"/><path d="m-853.93-305.37c93.97-66.54,198.18-120.93,311.78-143.95,106.07-21.49,215.06-12.94,318.05,19.3C10.63-356.54,191.21-181.69,365.84-16.75c84.36,79.68,172.51,162.02,283.44,202.46,100.26,36.55,208.15,33.73,310.52,7.65,115.78-29.49,224.07-83.78,328.52-140.6,28.02-15.24,55.86-30.83,83.63-46.53,25.83-14.6,51.21-30.94,77.93-43.84,34.35-16.58,73.08-21.35,110.85-20.88,76.39.95,150.44,21.98,225.44,33.86,43.16,6.84,109.77,17.85,139.12-24.76,6.79-9.85,10.44-21.29,12.6-32.96.15-.79-1.06-1.12-1.21-.33-4.96,26.83-19.63,48.15-46.16,56.94-26.88,8.91-57.1,6.19-84.68,2.69-73.68-9.37-145.43-30.56-219.75-35.64-34.65-2.37-70.13-1.43-103.82,7.75-17.09,4.66-32.84,11.72-48.22,20.43-28.11,15.94-56.15,31.99-84.32,47.82-107.63,60.46-217.53,120.24-335.26,158.77-106.19,34.76-220.15,49.69-329.37,19.73C567.12,163.47,473.87,82.65,386.4.87,215.19-159.2,44.29-331.21-179.26-415.81c-97.29-36.82-201.42-54.52-305.29-43.62-104.6,10.97-203.95,49.93-293.94,103.33-26.06,15.46-51.35,32.15-76.07,49.66-.65.46-.03,1.55.63,1.08h0Z" fill="#ccc"/><path d="m-846.6-296.26c91.92-67.07,193.54-123.2,304.84-150.02,102.7-24.74,209.39-21.73,311.22,5.78C2.7-377.47,184.27-208.11,353.87-44.79c84.78,81.64,171.52,168.68,281.05,216.4,97.25,42.36,203.76,48.07,307.03,27.41,114.26-22.86,221.78-72.64,324.32-126.58,57.14-30.06,113.24-62.05,169.21-94.23,36.33-20.89,72.21-32.77,114.27-35.09,77.42-4.27,153.52,15.61,229.51,27.02,44.25,6.64,112.94,18.67,144.71-23.06,7.29-9.57,11.41-20.86,13.92-32.52.17-.78-1.04-1.12-1.21-.33-14.13,65.49-83.31,64.06-137.08,57.46-74.44-9.13-147.5-29.16-222.86-30.32-34.84-.54-70.42,3.03-103.09,15.8-22.14,8.66-42.29,21.99-62.85,33.76-27.77,15.9-55.6,31.69-83.6,47.17-106.08,58.63-215.78,114.88-333.14,147.21-106.8,29.41-219.83,35.21-325.56-1.84-116.09-40.69-207.1-126.76-294.2-210.33C208.35-186.09,36.31-353.41-186.41-428.4c-93.98-31.64-193.84-44.22-292.41-30.95-104.99,14.14-203.97,55.96-293.6,111.42-25.61,15.85-50.48,32.84-74.81,50.59-.64.47-.02,1.55.63,1.08h0Z" fill="#ccc"/><path d="m-839.27-287.15c90.95-68.37,191.29-126.69,301.69-156.89,100.96-27.62,206.69-28.8,308.46-4.56C2.67-393.4,184.19-227.41,349.9-65.44c84.5,82.6,169.55,171.47,276.94,224.32,92.86,45.7,196.24,58.67,298.23,43.89,112.21-16.26,218.65-60.92,319.33-111.49,56.38-28.32,111.51-59.06,166.2-90.49,40.71-23.39,77.82-46.93,124.99-53.88,78.78-11.61,158.55,7.36,236.3,18.19,45.92,6.4,118.05,19.44,151.78-22.98,7.15-8.99,11.45-19.59,14.21-30.66.2-.78-1.01-1.11-1.21-.33-16.53,66.15-91.09,61.66-145.19,55.26-75.64-8.95-150.94-27.76-227.61-23.53-34.12,1.88-68.5,8.77-98.83,25.05-54.2,29.09-106.55,61.66-160.78,90.78-103.12,55.38-210.88,106.77-325.6,132.79-107.83,24.46-220.08,22.1-323.02-20.89-112.89-47.15-201.33-135.68-287.41-219.84C207.01-206.9,35.33-370.48-185.38-437.98c-94.52-28.91-194.28-37.46-291.92-20.74-103.62,17.75-200.7,62.09-288.64,118.73-25.31,16.3-49.89,33.67-73.96,51.76-.64.48-.01,1.56.63,1.08h0Z" fill="#ccc"/><path d="m-831.81-278.13c90.55-70.11,190.3-130.89,300.5-164.32,98.57-29.91,202.7-35.14,303.63-14.3C2.64-409.21,183.85-246.72,346.04-86.17,429.87-3.18,512.84,86.67,617.18,144.3c91.85,50.74,195.69,70.24,299.85,59.62,107.51-10.96,210.49-49.71,307.49-95.76,55.93-26.55,110.45-56.01,164.27-86.57,44.03-25,87.11-57.31,137.02-69.29,76.48-18.37,157.15-2.39,233.67,7.42,33.23,4.26,67.38,8.67,100.89,5.36,22.68-2.24,46.26-8.83,61.84-26.51,7.65-8.69,12.49-19.15,15.67-30.2.22-.77-.98-1.11-1.21-.33-19.02,66.06-97.99,59.33-152.35,53.42-76.24-8.29-153.45-25.46-230.39-15.52-40.32,5.21-72.59,20.54-107.3,40.84-53.64,31.37-107.69,62.09-162.91,90.61-102.34,52.86-210.32,100.07-324.54,119.53-108.97,18.56-220.2,6.87-319.85-42.41-108.6-53.71-194.06-143.89-278.93-228.17C202.57-230.42,29.83-390.91-190.82-449.35c-93.78-24.84-191.98-28.4-286.99-8.2-103.93,22.09-200.46,70.31-287.91,129.72-22.86,15.53-45.13,31.9-66.98,48.82-.64.49.26,1.37.88.88h0Z" fill="#ccc"/><path d="m-824.48-269.02c89.65-71.49,188.13-134.46,297.35-171.33,96.89-32.71,200-42.08,300.9-24.61C2.41-425.38,183.38-265.94,342.14-107.09c82.66,82.71,163.11,172.4,263.35,234.44,88.28,54.64,189.68,81.66,293.45,77.37,106.07-4.39,208.89-37.9,305.31-80.53,55.21-24.41,108.89-52.17,161.67-81.43,26.28-14.57,52.33-29.53,78.25-44.73,22.42-13.15,44.21-27.92,68.71-36.97,74.99-27.7,159.14-14.45,236.41-5.93,34.82,3.84,70.36,8.15,105.42,5.23,23.63-1.97,48.78-7.83,65.91-25.37,8.19-8.38,13.62-18.67,17.27-29.72.25-.77-.95-1.09-1.21-.33-21.91,66.32-106.48,57.02-161.6,51.66-76.32-7.42-155.37-22.28-231.51-5.71-45.69,9.95-83.19,36.41-123.11,59.5-52.51,30.37-105.68,59.67-160.19,86.31-101.24,49.48-209,91.54-321.8,103.79-108.13,11.74-216.02-8.42-311.13-61.72-104.61-58.62-187.47-149.34-271.13-233.51C201.4-250.49,28.32-408.66-191.84-459.3c-93.71-21.56-191.05-20.74-284.32,2.64-102.46,25.69-197.11,76.26-283,136.87-22.58,15.94-44.59,32.65-66.2,49.88-.63.5.26,1.38.88.88h0Z" fill="#ccc"/><path d="m-817.15-259.91c164.32-134.92,364.06-241.71,583.07-214.54C-4.83-446.01,177.86-289.56,334.82-131.6c82.28,82.81,160.73,172.82,257.39,239.5,85.96,59.29,186.06,93.9,290.74,95.7,105.01,1.81,208.19-26.61,304.68-66.1,52.44-21.46,103.43-46.35,153.4-73.03,53.5-28.56,104.52-61.43,157.73-90.39,72.81-39.62,162.02-29.82,241.31-22.9,35.94,3.14,72.38,7.07,108.49,4.49,25.09-1.8,52.21-7.12,71.1-25.02,8.37-7.93,14.18-17.77,18.23-28.5.28-.75-.92-1.08-1.21-.33-25.08,66.35-115.35,54.84-171.54,50.26-77.31-6.3-159.93-18.59-235.13,7.03-18.93,6.45-35.72,16.04-52.81,26.29-26.48,15.87-53.1,31.5-79.97,46.71-51.74,29.29-104.38,57.12-158.46,81.86-99.69,45.59-206.34,81.99-316.62,87.7-109.25,5.65-215.79-22.64-308.3-80.98C511.99,56.45,430.79-36.06,346.94-121.12,196.13-274.09,23.47-427.71-194.12-469.39c-93.21-17.85-189.07-12.72-280.15,13.68-101.19,29.32-194.1,82.23-278.69,144.23-22.18,16.26-43.82,33.24-65.07,50.69-.62.51.27,1.39.88.88h0Z" fill="#ccc"/><path d="m-809.82-250.8c160.78-135.93,357.2-250.68,575.23-231.81C-8.71-463.07,172.33-312.42,325.95-157.8c82.68,83.21,159.79,174.06,253.68,245.19,83.53,63.28,181.37,104.88,286.3,113.3,218.36,17.5,427.95-95.24,608.95-203.97,20.8-12.49,40.83-25.61,63.75-33.94,20.52-7.45,42.02-11.87,63.67-14.45,41.24-4.92,83.01-3.12,124.36-.69,37.79,2.21,75.87,5.78,113.74,3.55,26.12-1.54,54.63-5.89,75.68-22.73,9.75-7.8,16.81-17.82,21.74-29.24.32-.73-.76-1.37-1.08-.63-28.23,65.32-121.71,53.11-178.9,49.69-77.66-4.64-162.41-13.47-235.43,19.77-23.14,10.53-44.38,25.42-66.21,38.36-26.01,15.41-52.22,30.49-78.71,45.05-51.52,28.33-104.13,54.82-158.3,77.74-98.05,41.48-203.05,72.06-310.29,71.95-109.5-.11-214.25-35.16-304.19-97.14-99.41-68.5-179.25-162.04-263.16-247.76C194.1-294.38,22.32-444.55-192.94-478.75c-93.15-14.8-188.08-5.74-277.59,23.47-100.43,32.77-192.17,88.17-275.88,151.84-21.9,16.66-43.28,33.99-64.3,51.75-.62.52.27,1.4.88.88h0Z" fill="#ccc"/><path d="m-802.49-241.69c157.3-136.91,349.77-258.93,566.4-249.03C-12.49-480.51,167.84-334.25,318.98-182.2,402.28-98.41,478.66-6.62,570.52,68.25c80.92,65.96,176.02,113.34,280.03,127.88,212.82,29.74,421-71.1,599.25-175.94,43.67-25.69,84.09-54.8,134.28-66.03,42.55-9.53,86.6-10.05,130-9.06,39.58.9,79.31,3.84,118.9,1.63,28.28-1.58,59.37-5.62,82.63-23.22,9.62-7.28,16.9-16.62,22.22-27.39.36-.72-.72-1.35-1.08-.63-14.53,29.41-43.95,42.13-74.92,47.04-38.01,6.03-77.14,3.59-115.41,2.29-80.04-2.72-166.08-5.63-236.88,37.84-184.43,113.26-396.43,231.05-620.46,216.19-110.51-7.33-213.67-51.13-301.02-118.31-93.31-71.76-169.88-162.96-251.72-246.9C191.46-314.95,20.42-461.9-193.19-488.33c-201.65-24.95-388.59,69-543.19,190.21-22.83,17.9-45.11,36.5-66.99,55.55-.61.53.28,1.41.88.88h0Z" fill="#ccc"/><path d="m-795.16-232.58c154.74-138.64,344.47-268.28,560.68-266.05,101.1,1.04,199.66,31.4,286.7,82.08,98.64,57.44,185.38,134.62,265.34,215.46S476.79-24.21,567.15,53.07c79.34,67.86,172.44,119.1,275.75,138.31,208.19,38.71,415.22-52.21,591.76-153.83,25.98-14.95,51.66-30.41,77.11-46.24,20.16-12.53,40.29-23.36,63.03-30.57,42.01-13.31,86.54-16.36,130.34-17.12,40.63-.7,81.37,1.26,121.96-1.29,29.45-1.85,61.69-5.7,86.65-22.81,10.08-6.91,18.08-15.91,24.07-26.52.4-.7-.68-1.33-1.08-.63-16.5,29.2-48.03,40.8-79.64,45.62-39.26,6-79.48,4.3-119.05,4.2-41.7-.1-83.73.47-124.88,7.9-20.13,3.64-40.02,8.96-58.95,16.8-21.62,8.95-40.85,22.05-60.73,34.22-181.21,110.92-393.33,219.15-612.55,194.66-110.78-12.37-212.63-61.38-298.42-131.47-90.89-74.26-166.28-165.49-247.68-249.52C191.96-332.72,20.98-478.56-191.99-497.74c-201.76-18.17-386.28,84.28-537.88,207.59-22.54,18.33-44.54,37.3-66.17,56.68-.6.54.29,1.42.88.88h0Z" fill="#ccc"/><path d="m-787.83-223.47c151.58-139.79,337.48-276.43,551.97-283.03,99.38-3.06,197.31,23.27,283.9,71.51,99.57,55.48,186.61,132.41,266.33,213.17,82.74,83.81,157.26,175.86,244.67,255.03,78.07,70.71,169.2,126.87,272.36,151.67,203.02,48.79,408.91-30.55,584.47-128.19,24.91-13.85,49.51-28.27,73.85-43.09,22.93-13.96,45.08-29.94,69.51-41.21,41.93-19.35,88.54-25.99,134.22-29.02,42.02-2.79,84.19-2.04,126.19-5.05,31.04-2.23,64.81-5.93,91.87-22.63,10.67-6.59,19.51-15.25,26.33-25.76.44-.68-.64-1.3-1.08-.63-18.88,29.12-52.9,39.58-85.57,44.44-40.94,6.1-82.72,5.24-123.98,6.72-42.53,1.52-85.5,4.54-126.72,15.79-47.77,13.03-86.79,41.68-128.78,66.77-179.74,107.39-392.09,204.8-606.7,167.53-109.41-19-207.78-73.25-290.94-145.66-88.47-77.03-162.86-168.59-244.26-252.71C189.22-353.08,18.94-496.05-192.03-507.27c-201.55-10.71-383.12,100.01-531.67,225.38-22.12,18.67-43.73,37.91-65.01,57.53-.59.55.29,1.43.88.88h0Z" fill="#ccc"/><path d="m-780.5-214.36c149.45-141.86,332.34-285.56,546.26-300.05,97.8-6.62,194.9,16.46,281.02,62.69,99.42,53.37,185.94,129.51,264.75,209.47C466.38-85.13,599.57,113.35,822.33,177.82c198.03,57.32,402.46-10.4,577.63-104.13,50.9-27.23,99.25-58.18,148.51-88.14,40.25-24.49,87.01-35.29,133.31-41.03,43.54-5.4,87.44-6.17,131.12-10.01,32.5-2.86,67.42-6.72,96.4-22.89,11.23-6.27,20.84-14.5,28.54-24.82.48-.65-.6-1.27-1.08-.63-21.29,28.55-57.43,38.24-91.04,43.3-42.26,6.37-85.22,6.77-127.76,10.18-43.08,3.45-86.62,9.2-127.35,24.31-47.83,17.75-89.57,50.7-133.41,76.26-179.16,104.49-391.04,191.6-601.66,144.79-108.68-24.16-204.79-82.68-286.37-157.19-86.28-78.81-159.69-170.35-240.62-254.39C189.65-370.82,19.39-512.8-190.84-516.73c-201.48-3.77-380.53,115.21-526.35,242.81-21.82,19.09-43.16,38.71-64.19,58.67-.58.55.3,1.44.88.88h0Z" fill="#ccc"/><path d="m-773.17-205.25c147.66-144.24,327.86-295.2,541.51-317.21,96.23-9.92,192.39,10.1,278.06,54.51,98.76,51.19,184.44,126.19,262.06,205C464.6-104.43,595.64,97.6,816.68,170.95c192.4,63.84,394.36,7.73,568.76-81.51,50.57-25.88,99.64-54.64,147.53-85.19,22.41-14.29,44.08-28.22,68.96-37.94,21-8.2,42.91-13.95,65.01-18.31,44.54-8.79,89.88-11.63,134.94-16.43,34.19-3.64,70.19-7.63,101.67-22.42,13.07-6.14,24.73-14.37,34.19-25.32.52-.61-.36-1.49-.88-.88-23.1,26.76-59.15,36.12-92.69,41.8-43.51,7.36-87.77,9.23-131.52,14.77s-84.56,13.51-123.62,30.82c-23.17,10.26-43.76,24.71-65.11,38.18-24.96,15.76-50.23,31.02-75.88,45.63-178.1,101.45-388.33,179.31-594.58,126.31-108.24-27.82-203.07-89.07-283.8-165.11-86.49-81.47-160.31-175.13-242.43-260.79C190.14-388.43,20.02-529.46-188.91-526.25c-201.02,3.09-377.05,129.33-520.24,258.93-22.05,19.95-43.63,40.41-64.9,61.18-.58.56.31,1.45.88.88h0Z" fill="#ccc"/><path d="m-765.84-196.14c80.95-81.38,166.76-159.33,262.91-222.53,81.43-53.53,172.01-96.93,269.17-111.31,96.85-14.33,194.4,2.67,281.64,46.71,99.57,50.27,185.45,125.76,262.9,205.05C465.8-119.51,593.97,81.73,810.25,163.11c189.2,71.19,391.15,24.77,566.88-61.57,50.05-24.59,98.53-52.3,145.74-81.97,22.25-13.98,43.66-29.74,67.09-41.71,21.5-10.98,44.36-19.13,67.65-25.42,44.1-11.9,89.55-17.2,134.71-23.3,36.53-4.93,74.64-9.58,108.76-24.33,13.6-5.88,26.12-13.62,36.65-24.09.57-.57-.31-1.45-.88-.88-26.11,25.96-64.24,34.88-99.31,41.18-42.64,7.66-85.89,11.4-128.56,18.93-44.35,7.82-88.72,19.42-128.32,41.45-23.67,13.17-45.8,29.31-68.83,43.58-23.94,14.84-48.21,29.16-72.86,42.8-178.91,99.04-389.16,167.37-592.35,106.3C739.47,141.88,646.67,77.46,567.24-.1c-84.2-82.22-156.83-175.27-237.79-260.53C193.25-404.07,21.87-546.49-187.76-535.83c-200.84,10.21-374.12,144.42-514.9,276.45-21.74,20.39-43.04,41.23-64.06,62.35-.57.57.32,1.46.88.88h0Z" fill="#ccc"/><path d="m-758.51-187.03c80.42-83.19,165.24-163.42,260.28-229.84,80.36-56.16,169.84-103.21,267.01-121.24,95.13-17.66,191.84-3.73,278.71,38.55,99.65,48.5,185.26,123.6,262.05,202.44,155.7,159.86,281.95,363.15,495.65,452.24,88,36.69,183.68,50.01,278.48,41.2,98.21-9.12,193.26-40.22,282.32-81.73,50.05-23.33,98.48-50.05,145.5-78.98,45.59-28.05,87.61-59.72,138.65-77.45,43.38-15.07,88.77-23.04,133.9-30.82,39.25-6.77,79.95-12.51,116.97-27.91,13.26-5.51,25.73-12.51,36.72-21.79.62-.52-.27-1.4-.88-.88-28.98,24.49-68.27,33.33-104.58,40.59-44.15,8.82-88.85,14.7-132.67,25.23s-87.21,26-125.38,51.15c-47.99,31.61-96.58,62.04-147.34,89.06-178.16,94.84-386.06,152.18-583.85,85.28C617.87,91.9,485.68-112.62,329.92-277.68c-74.95-79.43-157.77-155.18-253.82-208.4-80.43-44.56-169.91-67.35-262.01-59.43-201.08,17.28-371.77,159.46-510.59,294.4-21.31,20.72-42.23,41.84-62.89,63.21-.56.58.32,1.46.88.88h0Z" fill="#ccc"/><path d="m-751.17-177.92c79.89-85.05,163.71-167.57,257.62-237.2,79.27-58.78,167.68-109.59,264.83-131.24,93.86-20.92,189.92-9.96,276.85,30.96,99.48,46.83,184.64,121.52,260.64,199.78C465.33-154.38,589.92,50.91,801.45,147.11c85.76,39,179.67,56.35,273.7,51.33,95.92-5.13,189.52-32.1,277.27-70.3,49.14-21.39,96.68-46.37,142.75-73.73s88.28-61.24,136.48-83.79c45.03-21.07,93.53-33.15,141.9-43.76,40.79-8.94,82.62-16.08,121.88-30.71,14.86-5.54,29.2-12.34,42.17-21.53.65-.46.03-1.55-.63-1.08-31.66,22.44-71.22,31.61-108.47,40.08-44.96,10.22-90.38,18.59-134.53,32.1-47.39,14.5-88.19,36.23-129.32,63.51-46.61,30.92-94.68,59.73-144.44,85.31-91.86,47.23-190.42,84.02-293.2,97.76-97.18,12.99-196.29,3.56-288.25-31.04-222.31-83.63-352.44-289.71-508.13-455.78-74.2-79.15-156.49-154.79-252.35-206.97-80.26-43.69-169.21-64.67-260.5-54.04-92.31,10.75-178.63,50.5-256.02,100.48-92.44,59.7-174.74,134.29-252.07,212.18-20.9,21.04-41.43,42.44-61.73,64.06-.55.59.33,1.47.88.88h0Z" fill="#ccc"/><path d="m-743.84-168.81c78.39-85.88,160.16-169.67,251.51-241.94,78.13-61.81,165.33-116.89,262.36-143.01,93.21-25.1,189.72-17.83,277.7,22.02,99.57,45.1,184.45,119.41,259.88,197.22C465.09-172.05,587.98,34.95,796.98,138.27c84.52,41.78,177.75,63.03,272.05,61.44,95.51-1.62,189.44-25.64,277.44-61.89,47.81-19.7,94.09-43.01,138.89-68.8,24.08-13.86,47.74-28.45,71.02-43.63s44.35-31.03,67.91-44.29c83.11-46.77,177.69-58,266.55-88.78,16.16-5.6,31.99-12.16,46.78-20.79.69-.41.07-1.49-.63-1.08-34.94,20.4-75.43,30.2-114.25,40.29-46.56,12.11-93.39,23.67-138.35,41.03-22.15,8.55-43.8,18.47-64.38,30.33-23.55,13.57-45.4,29.99-68.19,44.77-45.23,29.32-91.96,56.41-140.34,80.2-91.32,44.9-189.49,78.43-291.17,88.42-96.79,9.51-194.57-3.93-284.59-41.03-220.11-90.72-348.49-298.53-504.57-466.02-74.07-79.49-156.6-155.65-253.3-206.77-79.5-42.03-167.22-60.59-256.67-47.38-93.05,13.74-179.01,57.59-255.66,110.53-90.84,62.74-171.62,139.34-247.91,218.79-21.08,21.95-41.8,44.23-62.32,66.7-.54.59.34,1.48.88.88h0Z" fill="#ccc"/><path d="m-736.51-159.7c77.38-87.23,157.61-172.8,247.08-247.85,77.58-65.07,164.21-124.5,261.86-154.57,91.09-28.05,186.42-24.31,274.06,13.69,100.17,43.44,185.14,117.87,260.38,195.53C464.34-190.35,584.76,16.38,789,126.98c82.6,44.73,174.43,70.52,268.43,73.21s189.29-17.41,277.8-51.06c98.38-37.4,187.92-91.35,274.46-150.63,83.62-57.28,182.45-78.86,277.11-110.34,17.26-5.74,34.33-12.02,50.81-19.74.73-.34.09-1.42-.63-1.08-38.87,18.23-80.9,29.21-121.87,41.58-46.79,14.12-93.49,29.17-137.83,49.92-49.9,23.35-93.07,57.03-139.52,86.21-45.15,28.37-91.9,54.28-140.35,76.59-91.02,41.92-188.89,71.29-289.36,76.66-97.93,5.23-195.64-13.71-284.48-55.28-214.28-100.26-339.06-307.86-495.14-475.04-73.49-78.72-155.58-154.27-252.15-203.69-78.94-40.4-165.82-56.19-253.47-40.09-93.15,17.11-178.12,64.79-253.58,120.41-89.89,66.25-169.72,145.52-245.47,227.25-20.65,22.28-40.99,44.84-61.15,67.56-.53.6.35,1.49.88.88h0Z" fill="#ccc"/><path d="m-729.18-150.59c76.38-88.6,155.09-175.92,242.66-253.7,76.57-68.01,161.99-131.38,259.48-165.66,87.84-30.88,180.94-31.66,267.79,3.02,101.81,40.65,187.86,115.58,263.31,193.36C463.3-209.38,582.7-.22,785.26,117.03c81.04,46.91,171.55,76.23,265.12,82.63,93.09,6.37,186.42-9.74,274.29-40.22,97.37-33.78,188.35-84.4,272.86-142.99,44.74-31.02,89.88-58.43,140.04-79.99,46.29-19.9,94.11-35.78,141.97-51.44,19.38-6.34,38.76-12.68,57.93-19.64.75-.27.43-1.48-.33-1.21-90.34,32.81-183.33,57.22-267.91,104.24-47.69,26.52-90.64,60.76-137.11,89.34-44.46,27.35-90.57,52.11-138.37,73.14-91.27,40.16-189.43,66.7-289.52,68.76-97.46,2.01-193.87-20.26-281.08-63.69C610.62,30.14,486.99-178.39,330.69-347.26c-73.81-79.74-156.67-156.68-254.87-205.33-78.82-39.05-165.17-52.42-251.47-33.39-91.89,20.26-174.65,70.56-248.15,127.74-90.29,70.23-170.16,153.29-246.29,238.35-20.23,22.6-40.18,45.44-59.98,68.42-.52.61.36,1.49.88.88h0Z" fill="#ccc"/><path d="m-721.85-141.48c76.36-91.16,154.59-181.41,241.62-262.64,75.16-70.15,158.86-136.51,255.45-174.33,86.46-33.86,178.96-37.78,266.19-4.33,102.41,39.26,188.66,114.65,263.83,192.61C463.69-225.84,581.31-17.45,779.09,105.48c80.28,49.9,170.41,83.23,264.61,93.26,92.32,9.83,185.68-2.73,273.91-30.74,96.43-30.61,186.69-78.72,270.22-135.37,46.68-31.65,91.49-64.35,141.74-90.38,46.81-24.25,95.66-44.58,145.64-61.31,20.54-6.87,41.3-13.09,62.24-18.65.78-.21.45-1.41-.33-1.21-96.92,25.73-191.7,65.01-276.17,119.3-47.01,30.21-91.15,64.26-139.28,92.86-45.42,26.98-92.65,51.03-141.64,70.87-89.24,36.14-184.81,58.09-281.42,56.68-98.12-1.43-194.12-27.74-280.44-74.13C608.7,14.1,486.59-195.9,329.85-365.88c-72.7-78.84-154.62-155-251.92-202.35-79.46-38.66-166.12-50.1-252.08-28-91.97,23.65-173.67,77.74-246.08,137.57-89.26,73.75-168.1,159.61-243.68,247.04-19.81,22.92-39.38,46.04-58.83,69.26-.51.61.37,1.5.88.88h0Z" fill="#ccc"/><path d="m-714.52-132.37c75.35-92.58,152.05-184.62,237.16-268.49,73.85-72.78,155.79-142.53,251.45-184.76,85.91-37.92,179.05-45.76,267.95-13.07,101.52,37.33,186.92,111.62,261.02,188.4C463.56-243.98,580.54-32.6,777.4,96.21c80,52.35,170.17,88.82,265.16,101.69,89.52,12.13,180.68,3.1,267.33-21.68,95.87-27.41,185.82-73.05,268.79-127.89,47.5-31.4,92.11-66.78,140.64-96.69,47.81-29.47,98.12-55.9,151.19-74.58,21.83-7.68,44.13-13.88,66.93-17.87.79-.14.46-1.34-.33-1.21-105.11,18.39-203.48,78.04-288.71,139.6-86.08,62.17-175.13,118.51-274.93,156.21-89.25,33.72-184.58,52.3-280.18,47.55-98.43-4.89-193.82-34.97-279.1-83.98C607.34-1.55,486.52-213.17,329.08-384.47c-72.08-78.42-153.64-154.36-250.87-200.35-79.66-37.68-166.07-46.74-250.93-21.74-92.02,27.11-172.67,84.91-244,147.45-88.17,77.29-165.98,165.92-241,255.77-19.39,23.23-38.58,46.62-57.68,70.09-.5.62.38,1.51.88.88h0Z" fill="#ccc"/><path d="m-707.19-123.26c75.31-95.23,151.46-190.3,235.95-277.64,72.09-74.52,151.81-146.67,245.76-192.48,85.18-41.53,178.54-53.01,268.86-21.01,102.34,36.26,188.1,111.44,262.06,188.71C465.1-258.9,580.75-48.25,773.59,85.15c78.93,54.6,168.17,94.38,263.02,110.78,88.84,15.36,180.1,9.79,267.27-12.5,94.23-24.09,183.02-66.65,264.72-118.96,97.89-62.68,184.26-146.74,293.78-189.81,24.07-9.47,49.1-16.22,74.9-18.56.79-.07.8-1.32,0-1.25-50.12,4.56-97.04,25.61-140.29,50.3-53.39,30.47-102.62,67.58-151.69,104.42-83.49,62.68-174.64,116.42-273.21,151.63-89.48,31.97-184.9,47.86-279.91,40.43-98.24-7.68-192.76-40.44-277-91.1C610.92-12.29,490.97-223.53,334.69-396.08c-72-79.49-153.67-156.88-251.63-203.21-80.54-38.1-167.69-46.06-252.72-18.22-92.06,30.14-171.68,91.37-241.97,156.39-87.73,81.16-164.99,173.18-239.9,266.07-18.98,23.53-37.79,47.2-56.54,70.92-.49.62.38,1.51.88.88h0Z" fill="#ccc"/><path d="m-699.76-114.27c75.23-97.9,150.76-196.02,234.55-286.85,71.59-77.59,150.74-153.53,245.18-202.66,83.5-43.44,175.61-57.07,265.75-26.02,103.7,35.73,190.15,112.6,264.27,191.01C471.08-268.38,587.22-54.14,782.27,82.56c79.97,56.05,170.53,97.2,266.96,114.39,88.79,15.82,180.14,10.82,267.42-11.28,95.51-24.18,185.32-67.74,267.5-121.6,46.35-30.38,89.51-64.78,132.83-99.25,44.89-35.72,91.22-72.75,144.57-95.09,24.15-10.11,49.46-16.42,75.74-16.71.8,0,.81-1.26,0-1.25-49.64.56-95.21,22.73-136.1,49.2-48.03,31.09-91.4,68.71-136.48,103.78-84.68,65.87-177.75,122.23-279.05,158.52-89.97,32.23-186.04,47.73-281.54,39.64-99.8-8.46-195.59-42.72-280.78-94.88C616.28-18.76,495.62-234.49,337.23-411.03c-72.61-80.93-155.58-160.28-255.75-205.8-81.37-36.98-168.61-41.61-252.53-10.25-92.13,34.43-170.62,99.84-239.92,168-85.86,84.45-161.56,178.81-235.44,273.7-18.23,23.42-36.34,46.93-54.42,70.46-.49.64.6,1.26,1.08.63h0Z" fill="#ccc"/><path d="m-700.06-132.73c73.73-96.64,148.05-193.26,230.4-282.81,70.58-76.75,148.38-151.61,240.85-201.47,80.43-43.37,170.4-60.97,259.29-34.35,101.96,30.53,187.8,103.11,260.94,177.83C454.02-307.39,567.42-95.32,753.39,48.12c78.16,60.28,167.13,107.13,263.47,130.16,87.13,20.82,178.01,21.34,265.78,4.02,106.5-21.02,207.03-66.38,298.12-124.75,48.67-31.19,93.8-66.86,139.02-102.75,44.44-35.27,90.14-71.72,142.56-94.52,24.3-10.57,49.86-17.42,76.43-18.28.8-.03.81-1.28,0-1.25-48.78,1.6-93.48,23.5-133.76,49.54-48.56,31.4-92.44,69.4-138.08,104.74-93.67,72.53-198.08,132.99-311.81,167.73-93.55,28.58-192.57,38.73-289.54,23.8-99.44-15.3-193.05-56.26-275.58-113.23C592.77-62.8,476.05-277.78,315.43-450.17c-70.01-75.13-150.12-147.97-245.86-188.39-81.72-34.49-168.37-35.06-250.69-2.24-90.17,35.96-167.1,100.62-235.4,168.18-84.86,83.95-159.82,177.51-232.82,271.75-17.37,22.42-34.61,44.94-51.81,67.49-.49.64.6,1.26,1.08.63h0Z" fill="#ccc"/><path d="m-700.37-151.19c74.23-97.99,149.36-195.79,232.95-286.07,70.38-76.02,148.19-150.03,240.52-198.74,81.6-43.05,172.37-59.07,261.59-30.77,100.86,31.99,185.59,104.47,258.05,179.14C454.9-320.55,568.31-108.41,754.37,35.61c78.3,60.61,167.43,107.85,264.07,131.05,87.07,20.9,177.85,21.41,265.61,4.26,106.45-20.79,207.24-65.39,298.56-123.29,48.78-30.93,93.98-66.4,139.19-102.21,44.49-35.24,90.1-71.63,142.28-94.94,24.19-10.81,49.65-18.06,76.18-19.49.8-.04.81-1.29,0-1.25-48.71,2.63-93.18,24.94-133.37,51.15-48.37,31.53-92.22,69.39-137.89,104.57-94.46,72.78-200.12,132.72-314.81,166.85-92.42,27.5-189.89,37.46-285.52,22.92-98.88-15.03-191.99-55.53-274.21-111.9-199.31-136.66-316.64-353.15-477.79-527.51-70.51-76.29-151.31-150.38-248.14-191.38-79.84-33.81-164.84-35.31-245.81-4.41-91.33,34.86-169.33,99.63-238.29,167.39-84.33,82.85-158.75,175.4-230.93,268.82-18.45,23.88-36.73,47.89-54.95,71.94-.49.64.6,1.26,1.08.63h0Z" fill="#ccc"/><path d="m-700.67-169.64c73.58-97.81,148.33-195.24,231.59-285.11,70.07-75.63,147.51-149.05,239.27-197.71,81.65-43.3,172.78-59.89,262.29-31.77,101.47,31.87,186.61,104.95,259.29,180.09C454.84-335.54,568.57-121.92,755.83,23.48c77.84,60.44,166.46,107.73,262.55,131.18,87.42,21.33,178.63,21.98,266.84,4.94,105.69-20.42,206.09-63.74,297.16-120.58,49.65-30.99,95.58-66.73,141.43-102.97,44.55-35.22,90.06-71.53,142-95.36,24.09-11.05,49.44-18.69,75.93-20.7.8-.06.8-1.31,0-1.25-49.38,3.73-94.23,27.08-134.86,53.99-48.06,31.84-91.86,69.57-137.61,104.54-94.17,71.99-199.83,130.54-313.92,163.94-92.36,27.04-189.52,37.03-284.99,22.47-99.67-15.21-193.38-56.38-276.03-113.51-198.97-137.53-316.19-353.78-476.88-528.86-70.76-77.1-151.9-152.12-249.36-193.67-80.76-34.43-166.74-35.67-248.57-4.1-90.05,34.74-167.15,98.35-235.43,165.14-84.62,82.79-159.19,175.47-231.26,269.18-18.34,23.85-36.5,47.83-54.59,71.87-.48.64.6,1.27,1.08.63h0Z" fill="#ccc"/><path d="m-700.98-188.1c73.28-98.08,148-195.61,231.39-285.42,70.02-75.4,147.52-148.48,239.27-196.74,81.55-42.89,172.54-59.2,261.75-31.12,101.14,31.84,185.98,104.71,258.39,179.68C453.77-351.96,567.58-136.95,755.49,9.93c77.4,60.5,165.37,108.21,261.01,132.25,87.09,21.89,178.06,23.14,266.21,6.78,105.46-19.57,206.06-61.54,297.37-117.33,50.21-30.68,96.68-66.23,142.8-102.65,45.27-35.74,91.23-72.73,143.64-97.62,24.29-11.53,49.88-19.78,76.72-22.39.79-.08.8-1.33,0-1.25-50.02,4.88-95.22,29.21-136.29,56.82-48.45,32.57-92.72,70.81-139.27,105.92-94.63,71.38-201.02,128.57-315.4,160.85-92.24,26.03-188.9,35.38-283.89,20.23-99.86-15.93-193.48-58.01-276-115.83-198.74-139.26-315.8-356.18-476.97-532.02-70.5-76.92-151.35-151.75-248.49-193.23-80.48-34.36-166.26-35.71-247.93-4.52-89.99,34.37-167.14,97.58-235.41,164.12-84.74,82.59-159.3,175.24-231.15,269.04-18.33,23.93-36.46,48-54.49,72.15-.48.64.6,1.27,1.08.63h0Z" fill="#ccc"/><path d="m-701.28-206.55c72.98-98.36,147.67-195.99,231.19-285.74,70.37-75.63,148.46-148.83,240.92-196.65,81.04-41.91,171.32-57.47,259.58-29.61,101.57,32.06,186.59,105.55,259.13,181.01C453.53-366.97,567.24-151.49,755.2-3.61c77.93,61.31,166.53,109.73,263.06,134.05,86.27,21.73,176.37,23.11,263.78,7.44,106.1-19.02,207.79-60.65,299.86-116.22,50.34-30.39,96.88-65.73,143-102.06,45.31-35.7,91.19-72.68,143.36-98.02,24.21-11.76,49.68-20.41,76.46-23.61.79-.09.8-1.35,0-1.25-49.91,5.96-94.88,30.66-135.9,58.44-48.91,33.12-93.66,71.83-140.96,107.13-94.44,70.48-200.7,126.15-314.45,157.88-92.68,25.85-189.92,34.88-285.22,19.34-99.97-16.3-193.54-58.85-275.99-117.04-199.55-140.83-316.74-359.24-478.81-536.37-70.15-76.67-150.73-151.41-247.48-192.75-80.29-34.31-165.85-35.86-247.46-5.01-89.94,34-167.14,96.84-235.39,163.13-84.85,82.41-159.41,175.02-231.04,268.92-18.31,24.01-36.41,48.18-54.4,72.43-.48.65.6,1.27,1.08.63h0Z" fill="#ccc"/><path d="m-701.58-225.01c72.37-98.18,146.68-195.49,229.85-284.86,70.44-75.69,148.7-148.89,241.34-196.59,81.75-42.09,172.78-57.38,261.55-28.76,101.23,32.64,185.86,106.24,258.12,181.81C454.1-381.02,568.25-163.74,757.92-14.77c77.64,60.98,165.84,109.28,261.94,133.56,86.83,21.93,177.47,23.19,265.44,7.36,106.98-19.25,209.71-60.91,302.58-116.95,50.27-30.33,96.67-65.72,142.78-101.94,45.22-35.52,91.07-72.22,143.13-97.34,23.04-11.12,47.2-19.4,72.58-22.99.79-.11.46-1.32-.33-1.21-51.22,7.24-97.16,33.64-139.11,62.62-48.65,33.62-93.43,72.38-141.09,107.34-95.55,70.09-202.97,124.5-317.67,155.07-91.97,24.52-188.2,32.55-282.36,16.47-100.34-17.14-193.95-60.79-276.36-119.87-198.84-142.55-315.7-361.27-478.03-538.9-70.71-77.38-152.11-152.9-250.09-193.84-78.78-32.92-162.76-33.98-242.67-4.24-90.79,33.79-168.73,97.04-237.49,163.8-83.87,81.43-157.62,172.9-228.26,265.83-18.72,24.63-37.21,49.44-55.56,74.35-.48.65.61,1.27,1.08.63h0Z" fill="#ccc"/><path d="m-701.89-243.47c72.54-99.07,147.29-197.11,231.22-286.9,70.38-75.29,148.73-147.94,241.41-194.86,81.86-41.44,172.83-55.79,261.18-26.71,100.88,33.21,185.13,106.98,257.1,182.64C453.83-396.01,567.91-178.26,757.61-28.31c77.69,61.41,165.9,110.33,262.22,135.04,86.56,22.21,176.97,23.76,264.82,8.38,106.86-18.7,209.84-59.35,302.97-114.61,51.16-30.36,98.3-65.98,145.05-102.62,45.27-35.49,91.04-72.16,142.85-97.79,22.95-11.36,47.02-20.02,72.34-24.16.79-.13.46-1.33-.33-1.21-51.08,8.36-96.79,35.09-138.71,64.25-48.47,33.71-93.22,72.35-140.91,107.1-96.45,70.29-205.07,124.06-320.74,154.11-91.8,23.85-187.68,31.51-281.46,15.15-99.75-17.41-192.7-61.1-274.61-119.93-200.66-144.14-317.89-365.1-481.63-544.56-69.65-76.34-149.61-150.75-245.75-192.02-79.49-34.12-164.48-36.08-245.58-6.16-90.75,33.48-168.7,96.3-237.48,162.86-83.98,81.26-157.72,172.73-228.15,265.76-18.71,24.71-37.16,49.62-55.47,74.63-.48.65.61,1.27,1.08.63h0Z" fill="#ccc"/><path d="m-702.19-261.92c71.94-98.9,146.31-196.63,229.9-286.07,70.45-75.38,148.98-148.03,241.83-194.85,80.72-40.7,170.62-55.39,257.94-27.54,101.32,32.32,185.95,106.12,258.04,181.77C451.34-414.6,565.34-195.73,754.89-43.79c78.26,62.73,167.28,112.99,264.75,138.42,85.23,22.23,174.27,24.35,261,10.02,106.31-17.58,209.4-56.53,302.58-110.31,51.79-29.89,99.6-65.2,146.65-101.95,46.67-36.46,93.44-74.48,146.39-101.58,23.15-11.85,47.45-21.11,73.07-25.88.79-.15.46-1.35-.33-1.21-52.45,9.76-99.11,38.2-142.06,68.63-48.2,34.15-93.14,72.63-141.1,107.09-96.87,69.62-206.03,121.67-321.85,150.68-91.7,22.97-187.27,29.92-280.62,12.91-100.14-18.24-193.17-63.06-275.06-122.79-199.93-145.82-316.88-367.06-480.8-547.05-70.19-77.07-150.98-152.28-248.34-193.17-79.22-33.27-163.77-34.12-244.14-4.2-89.53,33.34-166.63,95.16-234.7,160.8-84.27,81.26-158.14,172.92-228.5,266.26-18.6,24.68-36.94,49.56-55.12,74.56-.47.65.61,1.28,1.08.63h0Z" fill="#ccc"/><path d="m-702.49-280.38c72.11-99.79,146.91-198.27,231.26-288.13,70.39-74.99,149.01-147.12,241.9-193.17,81.45-40.38,171.9-53.94,259.35-24.94,101.73,33.74,186.35,108.82,258.53,185.54C453.84-425.42,568.11-206.05,758.85-53.95c77.64,61.92,165.79,111.61,262.28,136.9,84.11,22.04,171.97,24.43,257.67,10.81,107.4-17.06,211.92-55.58,306.25-109.4,51.19-29.2,98.53-63.74,144.96-99.9s93.48-74.53,146.09-102.48c23.64-12.56,48.48-22.6,74.73-28.08.79-.16.45-1.37-.33-1.21-52.27,10.91-98.7,39.67-141.64,70.28-48.71,34.72-94.24,73.66-143.01,108.29-97.88,69.51-208.27,120.51-325.02,148.72-90.48,21.86-184.6,28.22-276.49,11.3-99.07-18.24-191.1-62.56-272.27-121.51-98.4-71.45-179.58-162.11-253.73-257.79-75.48-97.39-145.33-199.39-227.88-291.11-70.3-78.11-151.15-154.54-248.86-196.76-78.72-34.02-163.14-36.29-243.77-7.34-90.19,32.38-167.94,94.01-236.41,159.61-85.03,81.48-159.37,173.73-229.96,267.76-18.59,24.76-36.9,49.74-55.03,74.84-.47.65.61,1.28,1.08.63h0Z" fill="#ccc"/><path d="m-702.8-298.83c71.84-100.05,146.59-198.68,231.05-288.52,70.74-75.24,149.93-147.56,243.53-193.18,82.19-40.05,173.22-52.47,260.76-22.32,100.63,34.66,184.26,109.43,255.78,185.86,165.59,176.97,279.99,397.3,471.43,550.45,77.35,61.88,165.09,111.78,261.23,137.39,84.59,22.53,173.01,25.05,259.3,11.5,107.32-16.86,212.05-54.64,306.58-107.94,51.3-28.93,98.73-63.26,145.17-99.33,46.88-36.41,93.46-74.44,145.8-102.88,23.57-12.81,48.3-23.24,74.48-29.29.78-.18.45-1.39-.33-1.21-52.07,12.05-98.29,41.13-141.23,71.93-49.21,35.3-95.35,74.69-144.94,109.48-97.68,68.53-207.8,118.09-323.88,145.71-90.47,21.52-184.46,27.84-276.25,10.83-99.33-18.41-191.47-63.11-272.74-122.38-99.65-72.67-181.76-164.81-256.7-262.05-74.84-97.13-144.18-198.73-226.09-290.21-69.65-77.79-149.55-153.86-246.15-196.78-78.82-35.02-163.68-38.41-245.05-9.89-90.84,31.84-169.2,93.55-238.05,159.33-85.13,81.34-159.45,173.61-229.84,267.76-18.57,24.85-36.85,49.91-54.94,75.11-.47.65.61,1.28,1.08.63h0Z" fill="#ccc"/><path d="m-703.1-317.29c71.71-100.5,146.55-199.45,231.31-289.41,70.8-75.14,150.21-147.27,244.03-192.39,81.91-39.39,172.46-51.26,259.42-21.23,101.83,35.17,186.23,111.31,258.22,189.02,164.75,177.87,279.04,398.03,470.22,551.71,77.17,62.03,164.65,112.3,260.64,138.3,84.02,22.76,171.9,25.67,257.79,12.72,106.78-16.11,211.39-52.6,305.9-104.63,52.99-29.17,101.87-64.12,149.62-101.1,46.94-36.35,93.45-74.36,145.51-103.29,23.49-13.06,48.14-23.87,74.23-30.51.78-.2.45-1.4-.33-1.21-51.86,13.19-97.87,42.59-140.82,73.58-49.03,35.38-95.17,74.62-144.79,109.2-99.23,69.14-211.31,118.13-329.13,145.17-89.78,20.61-182.97,26.25-273.81,8.96-99.08-18.86-190.89-63.97-271.83-123.4-100.08-73.48-182.55-166.25-257.7-264.37-74.07-96.71-142.87-197.72-223.78-289.01-69.73-78.67-149.83-155.59-246.86-199.29-78.81-35.5-163.83-39.54-245.56-11.37-91.03,31.38-169.62,92.87-238.58,158.55-84.82,80.79-158.81,172.56-228.69,266.32-18.98,25.47-37.64,51.18-56.09,77.04-.47.66.62,1.28,1.08.63h0Z" fill="#ccc"/><path d="m-703.41-335.75c71.88-101.38,147.15-201.1,232.66-291.49,70.35-74.36,149.32-145.53,242.47-189.99,82.46-39.35,173.57-50.73,260.77-19.98,101.49,35.78,185.5,112.11,257.2,189.97,83.7,90.89,153.77,192.9,227.87,291.47,72.19,96.05,149.55,187.86,243.46,263.59,76.42,61.62,162.91,111.86,257.91,138.3,83.28,23.18,170.48,26.76,255.89,14.63,106.92-15.18,212.11-50.59,307.17-101.65,54.92-29.49,105.46-65.24,154.71-103.29,46.48-35.91,92.43-73.41,143.57-102.63,23.74-13.57,48.63-24.98,75.02-32.31.77-.21.45-1.42-.33-1.21-52.43,14.55-98.83,44.91-142.37,76.66-49.48,36.07-96.29,75.77-146.86,110.36-99.74,68.23-212.35,115.65-330.24,141.72-88.96,19.68-181.17,24.67-270.94,7.2-98.7-19.21-189.99-64.56-270.58-123.94-100.06-73.72-182.7-166.58-257.8-264.93-74.03-96.95-142.63-198.28-223.25-290.03-69.84-79.49-150.07-157.36-247.47-201.91-78.44-35.88-163.35-40.69-245.14-13.17-91,30.62-169.69,91.54-238.64,156.81-85.58,81.01-160.03,173.39-230.15,267.85-18.97,25.55-37.59,51.36-56,77.32-.47.66.62,1.28,1.08.63h0Z" fill="#ccc"/><path d="m-703.71-354.2c71.62-101.64,146.83-201.54,232.45-291.92,70.71-74.63,150.22-146,244.1-190.05,82.59-38.75,173.68-49.23,260.51-17.98,101.89,36.66,185.99,114.02,257.77,192.69,83.38,91.38,153.23,193.73,227.25,292.55,72.14,96.31,149.65,188.17,243.57,264.14,76.62,61.98,163.33,112.64,258.68,139.27,82.65,23.08,169.18,26.78,254,15.06,107.42-14.84,213.42-49.68,309.15-100.46,54.31-28.81,104.39-63.76,153.03-101.2s92.49-73.45,143.28-103.38c24.26-14.29,49.67-26.53,76.68-34.65.77-.23.44-1.44-.33-1.21-52.19,15.7-98.39,46.37-141.96,78.31-49.99,36.65-97.42,76.77-148.82,111.47-100.52,67.87-214.09,114.17-332.55,139.5-88.4,18.9-179.91,23.38-268.9,5.67-98.32-19.56-189.14-65.13-269.36-124.48-100.03-74-182.85-166.91-257.9-265.48-74.47-97.82-143.3-200.16-224.3-292.86-69.95-80.06-150.36-158.62-248.18-203.53-78.22-35.91-163.01-40.85-244.69-13.64-90.96,30.3-169.7,90.93-238.64,156.03-85.67,80.9-160.1,173.32-230.02,267.9-18.95,25.64-37.55,51.54-55.91,77.6-.46.66.62,1.28,1.08.63h0Z" fill="#ccc"/><path d="m-704.01-372.66c71.07-101.49,145.9-201.1,231.16-291.21,70.75-74.78,150.47-146.24,244.53-190.21,82.71-38.66,173.98-49.05,260.83-17.65,101.58,36.72,185.35,114,256.85,192.56,84.44,92.77,154.91,196.8,229.81,297.13,71.95,96.38,149.43,188.1,243.13,264.23C838.77-55.68,925.26-4.64,1020.5,22.37c82.12,23.29,168.14,27.35,252.58,16.17,106.81-14.15,212.56-47.76,308.21-97.21,55.31-28.59,106.3-63.54,155.64-101.35,47.33-36.27,93.71-74.42,144.92-105.22,24.2-14.55,49.51-27.17,76.42-35.89.76-.25.44-1.45-.33-1.21-52.69,17.08-99.28,48.7-143.45,81.38-49.78,36.84-97.3,76.82-148.9,111.17-100.83,67.13-214.66,112.2-333.05,136.88-87.93,18.34-178.84,22.58-267.24,4.83-98.03-19.68-188.51-65.3-268.5-124.52-100.46-74.39-183.78-167.66-259.05-266.81-74.92-98.7-143.97-202.05-225.34-295.71-69.31-79.76-148.79-157.99-245.49-203.6-78.61-37.08-164.2-43.03-246.88-15.94-91.16,29.86-170.13,90.29-239.18,155.32-85.96,80.95-160.5,173.61-230.38,268.53-18.85,25.61-37.33,51.49-55.57,77.53-.46.66.62,1.29,1.08.63h0Z" fill="#ccc"/><path d="m-704.32-391.11c70.83-101.75,145.6-201.53,230.96-291.67,70.7-74.66,150.45-145.9,244.53-189.56,82.77-38.41,174.12-48.51,260.83-16.91,102.22,37.25,186.29,115.57,257.99,194.96,84.45,93.51,154.91,198.21,229.98,299.11,71.9,96.65,149.53,188.4,243.25,264.78,76.22,62.12,162.34,113.36,257.28,140.67,82.52,23.75,169.02,27.96,253.97,16.85,105.19-13.75,209.58-45.94,304.29-93.64,55.82-28.11,107.39-62.67,157.03-100.49,48.16-36.69,95.08-75.5,146.71-107.33,24.48-15.09,50.04-28.34,77.25-37.8.75-.26.43-1.47-.33-1.21-53.22,18.52-100.24,51.1-145.06,84.55-50.22,37.48-98.42,77.82-150.96,112.1-101.05,65.95-215.06,109.46-333.12,133.24-87.38,17.6-177.59,21.35-265.24,3.38C967.36-.09,877.33-45.93,797.69-105.13c-100.43-74.66-183.94-167.98-259.15-267.37s-144.08-203.13-225.41-297.45c-69.52-80.62-149.26-159.85-246.56-206.12-78.55-37.35-164.24-43.56-247.05-16.7-91.13,29.56-170.15,89.72-239.18,154.59-86.05,80.86-160.56,173.57-230.25,268.62-18.84,25.69-37.29,51.66-55.49,77.81-.46.66.62,1.29,1.08.63h0Z" fill="#ccc"/><path d="m-704.62-409.57c71.14-102.82,146.47-203.56,232.78-294.26,70.39-73.98,149.87-144.34,243.51-187.26,83.05-38.07,174.66-47.4,261.23-15.21,102.63,38.16,186.77,117.53,258.54,197.77,84.11,94.03,154.35,199.05,229.34,300.21s150.32,189.5,244.59,266.31C841.47-80.01,927.38-28.74,1022.14-1.37c82.04,23.69,168.04,28.01,252.54,17.23,105.56-13.47,210.58-45.06,305.85-92.42,55.94-27.81,107.62-62.13,157.3-99.86,48.21-36.62,95.09-75.41,146.43-107.67,24.43-15.35,49.9-28.99,76.98-39.06.75-.28.42-1.49-.33-1.21-53.68,19.96-101.11,53.48-146.57,87.66-49.37,37.13-97.04,76.69-148.94,110.33-101.8,65.96-216.87,108.67-335.62,132-86.92,17.07-176.55,20.6-263.63,2.6-97.39-20.13-187.1-66.02-266.51-125.1-100.87-75.05-184.87-168.75-260.3-268.71-75.03-99.42-143.85-203.68-224.86-298.49-70-81.93-150.4-162.62-248.83-209.67-78.02-37.29-163.39-43.71-245.84-17.42-91.33,29.12-170.58,89.1-239.74,153.92-86.33,80.92-160.98,173.9-230.61,269.29-18.73,25.67-37.08,51.61-55.16,77.74-.46.66.62,1.29,1.08.63h0Z" fill="#ccc"/><path d="m-704.92-428.03c70.9-103.08,146.17-204.03,232.58-294.74,70.73-74.26,150.77-144.91,245.13-187.39,83.23-37.48,174.77-45.95,261.02-13.23,102.29,38.8,186.01,118.43,257.5,198.84,84.46,95,154.89,201.04,230.29,303.09,72.56,98.21,151.42,190.98,246.48,268.31,75.4,61.34,160.39,112.22,254.12,139.68,81.94,24,167.87,28.56,252.39,18.09,105.24-13.03,210.22-43.74,305.54-90.18,56.86-27.7,109.37-62.16,159.73-100.27,48.28-36.54,95.11-75.29,146.15-108.01,24.38-15.63,49.76-29.64,76.72-40.31.74-.29.42-1.5-.33-1.21-53.37,21.12-100.63,54.93-146.14,89.33-49.87,37.69-98.21,77.65-150.97,111.34-102.06,65.19-217.38,106.68-336.01,129.39-86.91,16.64-176.42,19.89-263.35,1.55-97.04-20.47-186.32-66.58-265.39-125.64-100.85-75.32-185.02-169.07-260.42-269.27-74.99-99.66-143.61-204.25-224.31-299.53-70.11-82.76-150.58-164.53-249.39-212.44-78.27-37.95-164.08-44.92-247.12-18.7-91.31,28.83-170.61,88.57-239.74,153.24-86.42,80.84-161.04,173.89-230.49,269.43-18.72,25.75-37.03,51.79-55.07,78.02-.46.66.63,1.29,1.08.63h0Z" fill="#ccc"/></svg>